STARTFONT 2.1
COMMENT
COMMENT Converted from OpenType font "Helvetica.ttc" by "otf2bdf 3.0".
COMMENT
FONT -FreeType-Unknown-Medium-R-Normal--21-150-100-100-P-107-FontSpecific-0
SIZE 15 100 100
FONTBOUNDINGBOX 50 33 -20 -10
STARTPROPERTIES 19
FOUNDRY "FreeType"
FAMILY_NAME "Unknown"
WEIGHT_NAME "Medium"
SLANT "R"
SETWIDTH_NAME "Normal"
ADD_STYLE_NAME ""
PIXEL_SIZE 21
POINT_SIZE 150
RESOLUTION_X 100
RESOLUTION_Y 100
SPACING "P"
AVERAGE_WIDTH 107
CHARSET_REGISTRY "FontSpecific"
CHARSET_ENCODING "0"
FONT_ASCENT 16
FONT_DESCENT 4
COPYRIGHT "-FreeType-Unknown-Medium-R-Normal--21-150-100-100-P-107-FontSpecific-0"
_OTF_FONTFILE "Helvetica.ttc"
_OTF_PSNAME "-FreeType-Unknown-Medium-R-Normal--21-150-100-100-P-107-FontSpecific-0"
ENDPROPERTIES
CHARS 2251
STARTCHAR 0001
ENCODING 1
SWIDTH 0 0
DWIDTH 0 0
BBX 0 0 0 0
BITMAP
ENDCHAR
STARTCHAR 0002
ENCODING 2
SWIDTH 288 0
DWIDTH 6 0
BBX 0 0 0 0
BITMAP
ENDCHAR
STARTCHAR 0003
ENCODING 3
SWIDTH 288 0
DWIDTH 6 0
BBX 0 0 0 0
BITMAP
ENDCHAR
STARTCHAR 0004
ENCODING 4
SWIDTH 288 0
DWIDTH 6 0
BBX 2 15 2 0
BITMAP
C0
C0
C0
C0
C0
C0
40
40
40
40
40
40
00
C0
C0
ENDCHAR
STARTCHAR 0005
ENCODING 5
SWIDTH 336 0
DWIDTH 7 0
BBX 5 6 1 9
BITMAP
D8
D8
D8
98
88
88
ENDCHAR
STARTCHAR 0006
ENCODING 6
SWIDTH 576 0
DWIDTH 12 0
BBX 11 15 0 0
BITMAP
0640
0440
0CC0
0C80
0880
7FE0
1980
1900
1100
1300
FFC0
3200
2200
2600
6600
ENDCHAR
STARTCHAR 0007
ENCODING 7
SWIDTH 576 0
DWIDTH 12 0
BBX 10 18 1 -2
BITMAP
0800
3E00
7F80
E980
C880
C800
E800
7E00
3F80
0980
08C0
88C0
C8C0
E980
7F80
3E00
0800
0800
ENDCHAR
STARTCHAR 0008
ENCODING 8
SWIDTH 912 0
DWIDTH 19 0
BBX 17 14 1 0
BITMAP
781800
FC1000
C62000
862000
C64000
FC4000
788000
011E00
013F00
023180
022180
043180
0C3F00
081E00
ENDCHAR
STARTCHAR 0009
ENCODING 9
SWIDTH 672 0
DWIDTH 14 0
BBX 12 15 1 0
BITMAP
1E00
3F00
3180
2180
3100
3F00
1E00
3C00
6660
C360
C1C0
C0C0
E1E0
7F60
3E30
ENDCHAR
STARTCHAR 000A
ENCODING 10
SWIDTH 192 0
DWIDTH 4 0
BBX 1 6 2 9
BITMAP
80
80
80
80
80
80
ENDCHAR
STARTCHAR 000B
ENCODING 11
SWIDTH 336 0
DWIDTH 7 0
BBX 5 19 1 -4
BITMAP
08
10
30
20
60
60
60
40
C0
C0
C0
40
60
60
60
20
30
10
08
ENDCHAR
STARTCHAR 000C
ENCODING 12
SWIDTH 336 0
DWIDTH 7 0
BBX 4 19 1 -4
BITMAP
80
C0
40
60
20
30
30
30
30
10
30
30
30
30
30
60
60
C0
80
ENDCHAR
STARTCHAR 000D
ENCODING 13
SWIDTH 384 0
DWIDTH 8 0
BBX 6 6 1 9
BITMAP
30
FC
30
30
48
48
ENDCHAR
STARTCHAR 000E
ENCODING 14
SWIDTH 576 0
DWIDTH 12 0
BBX 11 10 1 0
BITMAP
0C00
0C00
0C00
0C00
FFE0
FFE0
0C00
0C00
0C00
0C00
ENDCHAR
STARTCHAR 000F
ENCODING 15
SWIDTH 288 0
DWIDTH 6 0
BBX 2 5 2 -3
BITMAP
C0
C0
40
40
80
ENDCHAR
STARTCHAR 0010
ENCODING 16
SWIDTH 336 0
DWIDTH 7 0
BBX 5 2 1 5
BITMAP
F8
F8
ENDCHAR
STARTCHAR 0011
ENCODING 17
SWIDTH 288 0
DWIDTH 6 0
BBX 2 2 2 0
BITMAP
C0
C0
ENDCHAR
STARTCHAR 0012
ENCODING 18
SWIDTH 288 0
DWIDTH 6 0
BBX 6 15 0 0
BITMAP
04
0C
08
08
18
18
10
30
30
20
60
60
40
C0
C0
ENDCHAR
STARTCHAR 0013
ENCODING 19
SWIDTH 576 0
DWIDTH 12 0
BBX 10 15 1 0
BITMAP
3E00
7F00
6380
C180
C180
C0C0
C0C0
C0C0
C0C0
C0C0
C180
C180
6380
7F00
3E00
ENDCHAR
STARTCHAR 0014
ENCODING 20
SWIDTH 576 0
DWIDTH 12 0
BBX 5 15 2 0
BITMAP
08
18
38
F8
18
18
18
18
18
18
18
18
18
18
18
ENDCHAR
STARTCHAR 0015
ENCODING 21
SWIDTH 576 0
DWIDTH 12 0
BBX 10 15 1 0
BITMAP
3E00
7F80
E180
C0C0
C0C0
01C0
0180
0700
1E00
3800
7000
C000
C000
FFC0
FFC0
ENDCHAR
STARTCHAR 0016
ENCODING 22
SWIDTH 576 0
DWIDTH 12 0
BBX 10 15 1 0
BITMAP
3E00
7F00
E380
C180
C180
0380
1F00
1F80
0180
00C0
80C0
C1C0
E180
7F00
3E00
ENDCHAR
STARTCHAR 0017
ENCODING 23
SWIDTH 576 0
DWIDTH 12 0
BBX 10 15 1 0
BITMAP
0300
0700
0F00
0B00
1B00
3300
6300
4300
C300
FFC0
FFC0
0300
0300
0300
0300
ENDCHAR
STARTCHAR 0018
ENCODING 24
SWIDTH 576 0
DWIDTH 12 0
BBX 10 15 1 0
BITMAP
7F80
7F80
6000
4000
4000
5E00
FF00
C380
01C0
00C0
00C0
C180
E380
7F00
3E00
ENDCHAR
STARTCHAR 0019
ENCODING 25
SWIDTH 576 0
DWIDTH 12 0
BBX 10 15 1 0
BITMAP
1F00
3F80
6180
E080
C000
DE00
FF80
E180
C0C0
C0C0
C0C0
C0C0
6180
7F00
1E00
ENDCHAR
STARTCHAR 001A
ENCODING 26
SWIDTH 576 0
DWIDTH 12 0
BBX 10 15 1 0
BITMAP
FFC0
FFC0
0180
0100
0300
0600
0600
0C00
0C00
1800
1800
1800
3000
3000
3000
ENDCHAR
STARTCHAR 001B
ENCODING 27
SWIDTH 576 0
DWIDTH 12 0
BBX 10 15 1 0
BITMAP
3E00
7F00
E380
C180
C180
6380
7F00
7F00
E180
C0C0
C0C0
C0C0
E180
7F80
3E00
ENDCHAR
STARTCHAR 001C
ENCODING 28
SWIDTH 576 0
DWIDTH 12 0
BBX 10 15 1 0
BITMAP
3E00
7F00
E380
C180
C180
C1C0
C1C0
E3C0
7EC0
3D80
0180
C180
E300
7F00
3C00
ENDCHAR
STARTCHAR 001D
ENCODING 29
SWIDTH 288 0
DWIDTH 6 0
BBX 2 11 2 0
BITMAP
C0
C0
00
00
00
00
00
00
00
C0
C0
ENDCHAR
STARTCHAR 001E
ENCODING 30
SWIDTH 288 0
DWIDTH 6 0
BBX 2 14 2 -3
BITMAP
C0
C0
00
00
00
00
00
00
00
C0
C0
40
40
C0
ENDCHAR
STARTCHAR 001F
ENCODING 31
SWIDTH 576 0
DWIDTH 12 0
BBX 12 11 0 0
BITMAP
0010
00F0
07E0
3F00
F800
C000
F800
3F00
07E0
00F0
0010
ENDCHAR
STARTCHAR 0020
ENCODING 32
SWIDTH 576 0
DWIDTH 12 0
BBX 11 6 1 2
BITMAP
FFE0
FFE0
0000
0000
FFE0
FFE0
ENDCHAR
STARTCHAR 0021
ENCODING 33
SWIDTH 576 0
DWIDTH 12 0
BBX 12 11 0 0
BITMAP
C000
F800
7E00
0FC0
01F0
0030
01F0
0FC0
7E00
F800
C000
ENDCHAR
STARTCHAR 0022
ENCODING 34
SWIDTH 576 0
DWIDTH 12 0
BBX 9 15 2 0
BITMAP
3E00
7F00
C300
C180
8180
0300
0700
0E00
0C00
1800
1800
0000
0000
1800
1800
ENDCHAR
STARTCHAR 0023
ENCODING 35
SWIDTH 1008 0
DWIDTH 21 0
BBX 17 15 2 0
BITMAP
03F800
0C0E00
300300
200100
61C980
433980
C61180
C43180
C43100
C67200
439C00
600000
300200
1C0E00
07F000
ENDCHAR
STARTCHAR 0024
ENCODING 36
SWIDTH 672 0
DWIDTH 14 0
BBX 13 15 0 0
BITMAP
0300
0780
0780
0780
0CC0
0CC0
18E0
1860
1860
3FF0
3FF0
3030
6038
6018
E018
ENDCHAR
STARTCHAR 0025
ENCODING 37
SWIDTH 672 0
DWIDTH 14 0
BBX 11 15 2 0
BITMAP
FF00
FFC0
C0C0
C0C0
C0C0
C0C0
FF80
FFC0
C0E0
C060
C060
C060
C0E0
FFC0
FF80
ENDCHAR
STARTCHAR 0026
ENCODING 38
SWIDTH 720 0
DWIDTH 15 0
BBX 13 15 1 0
BITMAP
0FC0
3FE0
7870
6038
E018
C000
C000
C000
C000
C018
E018
6030
7070
3FE0
0F80
ENDCHAR
STARTCHAR 0027
ENCODING 39
SWIDTH 720 0
DWIDTH 15 0
BBX 12 15 2 0
BITMAP
FF00
FFC0
C0E0
C060
C070
C030
C030
C030
C030
C030
C070
C060
C0E0
FFC0
FF00
ENDCHAR
STARTCHAR 0028
ENCODING 40
SWIDTH 672 0
DWIDTH 14 0
BBX 11 15 2 0
BITMAP
FFE0
FFE0
C000
C000
C000
C000
FFC0
FFC0
C000
C000
C000
C000
C000
FFE0
FFE0
ENDCHAR
STARTCHAR 0029
ENCODING 41
SWIDTH 624 0
DWIDTH 13 0
BBX 10 15 2 0
BITMAP
FFC0
FFC0
C000
C000
C000
C000
FF80
FF80
C000
C000
C000
C000
C000
C000
C000
ENDCHAR
STARTCHAR 002A
ENCODING 42
SWIDTH 768 0
DWIDTH 16 0
BBX 14 15 1 0
BITMAP
0FC0
1FF0
3870
6018
6018
C000
C000
C1FC
C1FC
C00C
E00C
601C
783C
3FEC
0F8C
ENDCHAR
STARTCHAR 002B
ENCODING 43
SWIDTH 720 0
DWIDTH 15 0
BBX 12 15 2 0
BITMAP
C070
C070
C070
C070
C070
C070
FFF0
FFF0
C070
C070
C070
C070
C070
C070
C070
ENDCHAR
STARTCHAR 002C
ENCODING 44
SWIDTH 288 0
DWIDTH 6 0
BBX 2 15 2 0
BITMAP
C0
C0
C0
C0
C0
C0
C0
C0
C0
C0
C0
C0
C0
C0
C0
ENDCHAR
STARTCHAR 002D
ENCODING 45
SWIDTH 480 0
DWIDTH 10 0
BBX 9 15 0 0
BITMAP
0180
0180
0180
0180
0180
0180
0180
0180
0180
0180
C180
C180
6380
7F00
3E00
ENDCHAR
STARTCHAR 002E
ENCODING 46
SWIDTH 672 0
DWIDTH 14 0
BBX 11 15 2 0
BITMAP
C0E0
C1C0
C380
C700
CE00
DC00
FC00
FC00
E600
C700
C380
C180
C1C0
C0E0
C060
ENDCHAR
STARTCHAR 002F
ENCODING 47
SWIDTH 576 0
DWIDTH 12 0
BBX 9 15 2 0
BITMAP
C000
C000
C000
C000
C000
C000
C000
C000
C000
C000
C000
C000
C000
FF80
FF80
ENDCHAR
STARTCHAR 0030
ENCODING 48
SWIDTH 816 0
DWIDTH 17 0
BBX 14 15 2 0
BITMAP
E01C
E03C
E03C
B03C
B06C
906C
986C
98CC
88CC
8CCC
8D8C
858C
878C
870C
830C
ENDCHAR
STARTCHAR 0031
ENCODING 49
SWIDTH 720 0
DWIDTH 15 0
BBX 11 15 2 0
BITMAP
C020
E020
F020
F020
D820
D820
CC20
CE20
C620
C320
C3A0
C1A0
C0E0
C0E0
C060
ENDCHAR
STARTCHAR 0032
ENCODING 50
SWIDTH 768 0
DWIDTH 16 0
BBX 14 15 1 0
BITMAP
0FC0
3FF0
7838
601C
E00C
C00C
C00C
C00C
C00C
C00C
E00C
6018
7838
3FF0
0FC0
ENDCHAR
STARTCHAR 0033
ENCODING 51
SWIDTH 672 0
DWIDTH 14 0
BBX 11 15 2 0
BITMAP
FF80
FFC0
C0E0
C060
C060
C060
C0E0
FFC0
FF80
C000
C000
C000
C000
C000
C000
ENDCHAR
STARTCHAR 0034
ENCODING 52
SWIDTH 768 0
DWIDTH 16 0
BBX 14 15 1 -1
BITMAP
0FC0
3FF0
7838
601C
E00C
C00C
C00C
C00C
C00C
C00C
E00C
60D8
7878
3FF8
0FCC
ENDCHAR
STARTCHAR 0035
ENCODING 53
SWIDTH 720 0
DWIDTH 15 0
BBX 12 15 2 0
BITMAP
FFC0
FFE0
C060
C070
C030
C070
C060
FFC0
FFE0
C060
C060
C060
C060
C070
C030
ENDCHAR
STARTCHAR 0036
ENCODING 54
SWIDTH 672 0
DWIDTH 14 0
BBX 12 15 1 0
BITMAP
1F80
3FC0
60E0
6060
4060
6000
7E00
3FC0
03E0
0030
C030
C030
6070
7FE0
1F80
ENDCHAR
STARTCHAR 0037
ENCODING 55
SWIDTH 624 0
DWIDTH 13 0
BBX 12 15 0 0
BITMAP
FFF0
FFF0
0600
0600
0600
0600
0600
0600
0600
0600
0600
0600
0600
0600
0600
ENDCHAR
STARTCHAR 0038
ENCODING 56
SWIDTH 720 0
DWIDTH 15 0
BBX 12 15 2 0
BITMAP
C070
C070
C070
C070
C070
C070
C070
C070
C060
C060
C060
C060
60E0
7FC0
1F00
ENDCHAR
STARTCHAR 0039
ENCODING 57
SWIDTH 672 0
DWIDTH 14 0
BBX 12 15 1 0
BITMAP
C030
C030
E070
6060
6060
30E0
30C0
30C0
1980
1980
1D80
0F00
0F00
0F00
0600
ENDCHAR
STARTCHAR 003A
ENCODING 58
SWIDTH 960 0
DWIDTH 20 0
BBX 18 15 1 0
BITMAP
C0C0C0
C1C0C0
C1E0C0
C1E180
636180
633180
633180
633300
363300
361B00
361B00
3C1E00
1C0E00
1C0E00
1C0E00
ENDCHAR
STARTCHAR 003B
ENCODING 59
SWIDTH 672 0
DWIDTH 14 0
BBX 12 15 1 0
BITMAP
E030
6060
70E0
38C0
1980
0F80
0F00
0600
0F00
1F80
1980
30C0
70E0
E070
C030
ENDCHAR
STARTCHAR 003C
ENCODING 60
SWIDTH 672 0
DWIDTH 14 0
BBX 12 15 1 0
BITMAP
C030
E070
6060
30E0
30C0
1980
1F80
0F00
0F00
0600
0600
0600
0600
0600
0600
ENDCHAR
STARTCHAR 003D
ENCODING 61
SWIDTH 624 0
DWIDTH 13 0
BBX 12 15 0 0
BITMAP
7FF0
7FF0
0070
00E0
00C0
0180
0300
0700
0E00
1C00
1800
3000
6000
FFF0
FFF0
ENDCHAR
STARTCHAR 003E
ENCODING 62
SWIDTH 288 0
DWIDTH 6 0
BBX 4 19 1 -4
BITMAP
F0
F0
C0
C0
C0
C0
C0
C0
C0
C0
C0
C0
C0
C0
C0
C0
C0
F0
F0
ENDCHAR
STARTCHAR 003F
ENCODING 63
SWIDTH 288 0
DWIDTH 6 0
BBX 7 15 -1 0
BITMAP
C0
40
60
20
30
30
10
18
08
0C
0C
04
06
02
02
ENDCHAR
STARTCHAR 0040
ENCODING 64
SWIDTH 288 0
DWIDTH 6 0
BBX 4 19 0 -4
BITMAP
F0
F0
10
10
10
10
10
10
10
10
10
10
10
10
10
10
10
F0
F0
ENDCHAR
STARTCHAR 0041
ENCODING 65
SWIDTH 480 0
DWIDTH 10 0
BBX 9 9 1 6
BITMAP
0C00
1C00
1400
3600
3600
2300
6300
4100
C180
ENDCHAR
STARTCHAR 0042
ENCODING 66
SWIDTH 576 0
DWIDTH 12 0
BBX 12 1 0 -3
BITMAP
FFF0
ENDCHAR
STARTCHAR 0043
ENCODING 67
SWIDTH 336 0
DWIDTH 7 0
BBX 3 3 1 12
BITMAP
C0
60
20
ENDCHAR
STARTCHAR 0044
ENCODING 68
SWIDTH 576 0
DWIDTH 12 0
BBX 10 11 1 0
BITMAP
3E00
7F00
6180
C180
0180
3F80
FD80
C180
C380
FFC0
78C0
ENDCHAR
STARTCHAR 0045
ENCODING 69
SWIDTH 576 0
DWIDTH 12 0
BBX 10 15 1 0
BITMAP
C000
C000
C000
C000
DE00
FF80
E180
C0C0
C0C0
C0C0
C0C0
C180
E180
FF00
DE00
ENDCHAR
STARTCHAR 0046
ENCODING 70
SWIDTH 480 0
DWIDTH 10 0
BBX 9 11 1 0
BITMAP
3E00
7F00
E380
C180
C000
C000
C000
C180
E380
7F00
3E00
ENDCHAR
STARTCHAR 0047
ENCODING 71
SWIDTH 576 0
DWIDTH 12 0
BBX 9 15 1 0
BITMAP
0180
0180
0180
0180
3D80
7F80
E380
C180
C180
C080
C180
C180
E380
7E80
3C80
ENDCHAR
STARTCHAR 0048
ENCODING 72
SWIDTH 576 0
DWIDTH 12 0
BBX 10 11 1 0
BITMAP
1E00
7F80
E180
C0C0
FFC0
FFC0
C000
C080
E180
7F00
3E00
ENDCHAR
STARTCHAR 0049
ENCODING 73
SWIDTH 288 0
DWIDTH 6 0
BBX 5 15 0 0
BITMAP
18
38
30
30
F8
F8
30
30
30
30
30
30
30
30
30
ENDCHAR
STARTCHAR 004A
ENCODING 74
SWIDTH 576 0
DWIDTH 12 0
BBX 9 15 1 -4
BITMAP
3D80
7F80
E380
C180
C180
C180
C180
C180
E380
7F80
3D80
0180
C380
FF00
3E00
ENDCHAR
STARTCHAR 004B
ENCODING 75
SWIDTH 576 0
DWIDTH 12 0
BBX 9 15 1 0
BITMAP
C000
C000
C000
C000
CF00
DF80
E180
E180
C180
C180
C180
C180
C180
C180
C180
ENDCHAR
STARTCHAR 004C
ENCODING 76
SWIDTH 240 0
DWIDTH 5 0
BBX 2 15 1 0
BITMAP
C0
C0
00
00
C0
C0
C0
C0
C0
C0
C0
C0
C0
C0
C0
ENDCHAR
STARTCHAR 004D
ENCODING 77
SWIDTH 240 0
DWIDTH 5 0
BBX 3 19 0 -4
BITMAP
60
60
00
00
60
60
60
60
60
60
60
60
60
60
60
60
60
E0
C0
ENDCHAR
STARTCHAR 004E
ENCODING 78
SWIDTH 480 0
DWIDTH 10 0
BBX 9 15 1 0
BITMAP
C000
C000
C000
C000
C380
C700
CE00
DC00
F800
EC00
CC00
C600
C700
C300
C180
ENDCHAR
STARTCHAR 004F
ENCODING 79
SWIDTH 240 0
DWIDTH 5 0
BBX 2 15 1 0
BITMAP
C0
C0
C0
C0
C0
C0
C0
C0
C0
C0
C0
C0
C0
C0
C0
ENDCHAR
STARTCHAR 0050
ENCODING 80
SWIDTH 816 0
DWIDTH 17 0
BBX 15 11 1 0
BITMAP
CE3C
DF7E
E3C6
E186
C186
C186
C186
C186
C186
C186
C186
ENDCHAR
STARTCHAR 0051
ENCODING 81
SWIDTH 576 0
DWIDTH 12 0
BBX 9 11 1 0
BITMAP
CF00
DF80
E180
E180
C180
C180
C180
C180
C180
C180
C180
ENDCHAR
STARTCHAR 0052
ENCODING 82
SWIDTH 576 0
DWIDTH 12 0
BBX 10 11 1 0
BITMAP
3E00
7F00
E180
C1C0
C0C0
80C0
C0C0
C180
E180
7F00
3E00
ENDCHAR
STARTCHAR 0053
ENCODING 83
SWIDTH 576 0
DWIDTH 12 0
BBX 10 15 1 -4
BITMAP
CE00
FF80
E180
C0C0
C0C0
C0C0
C0C0
C1C0
E180
FF80
DE00
C000
C000
C000
C000
ENDCHAR
STARTCHAR 0054
ENCODING 84
SWIDTH 576 0
DWIDTH 12 0
BBX 9 15 1 -4
BITMAP
3D80
7F80
E380
C180
C180
C180
C180
C180
E380
7F80
3D80
0180
0180
0180
0180
ENDCHAR
STARTCHAR 0055
ENCODING 85
SWIDTH 336 0
DWIDTH 7 0
BBX 6 11 1 0
BITMAP
CC
DC
E0
E0
C0
C0
C0
C0
C0
C0
C0
ENDCHAR
STARTCHAR 0056
ENCODING 86
SWIDTH 480 0
DWIDTH 10 0
BBX 9 11 1 0
BITMAP
3E00
7F00
C300
C000
F000
3F00
0700
C180
C380
FF00
3E00
ENDCHAR
STARTCHAR 0057
ENCODING 87
SWIDTH 288 0
DWIDTH 6 0
BBX 5 14 0 0
BITMAP
30
30
30
F8
F8
30
30
30
30
30
30
30
38
38
ENDCHAR
STARTCHAR 0058
ENCODING 88
SWIDTH 576 0
DWIDTH 12 0
BBX 9 11 1 0
BITMAP
C180
C180
C180
C180
C180
C180
C180
C180
E380
7F80
3D80
ENDCHAR
STARTCHAR 0059
ENCODING 89
SWIDTH 480 0
DWIDTH 10 0
BBX 10 11 0 0
BITMAP
C0C0
60C0
6180
6180
3180
3300
3300
1A00
1E00
0E00
0C00
ENDCHAR
STARTCHAR 005A
ENCODING 90
SWIDTH 720 0
DWIDTH 15 0
BBX 15 11 0 0
BITMAP
C386
638C
638C
628C
66C8
36D8
34D8
3450
1C70
1C70
1870
ENDCHAR
STARTCHAR 005B
ENCODING 91
SWIDTH 480 0
DWIDTH 10 0
BBX 10 11 0 0
BITMAP
61C0
7180
3300
1F00
1E00
0C00
1E00
3F00
3300
6180
E1C0
ENDCHAR
STARTCHAR 005C
ENCODING 92
SWIDTH 480 0
DWIDTH 10 0
BBX 10 15 0 -4
BITMAP
C0C0
60C0
6180
6180
3180
3300
3300
1B00
1E00
1E00
0C00
0C00
0800
7800
7000
ENDCHAR
STARTCHAR 005D
ENCODING 93
SWIDTH 480 0
DWIDTH 10 0
BBX 9 11 1 0
BITMAP
FF00
FF00
0300
0600
0C00
1800
3000
6000
C000
FF80
FF80
ENDCHAR
STARTCHAR 005E
ENCODING 94
SWIDTH 336 0
DWIDTH 7 0
BBX 7 19 0 -4
BITMAP
0E
1E
38
30
30
30
30
70
E0
80
E0
70
30
30
30
30
38
1E
0E
ENDCHAR
STARTCHAR 005F
ENCODING 95
SWIDTH 240 0
DWIDTH 5 0
BBX 2 15 1 0
BITMAP
C0
C0
C0
C0
C0
C0
C0
C0
C0
C0
C0
C0
C0
C0
C0
ENDCHAR
STARTCHAR 0060
ENCODING 96
SWIDTH 336 0
DWIDTH 7 0
BBX 7 19 0 -4
BITMAP
C0
F0
30
18
18
18
18
1C
0E
02
0E
1C
18
18
18
18
30
F0
C0
ENDCHAR
STARTCHAR 0061
ENCODING 97
SWIDTH 576 0
DWIDTH 12 0
BBX 12 4 0 3
BITMAP
3810
7E30
47E0
C1E0
ENDCHAR
STARTCHAR 0062
ENCODING 98
SWIDTH 672 0
DWIDTH 14 0
BBX 13 19 0 0
BITMAP
0CC0
0CC0
0000
0000
0300
0780
0780
0780
0CC0
0CC0
18E0
1860
1860
3FF0
3FF0
3030
6038
6018
E018
ENDCHAR
STARTCHAR 0063
ENCODING 99
SWIDTH 672 0
DWIDTH 14 0
BBX 13 20 0 0
BITMAP
0380
0480
0480
0480
0300
0300
0780
0780
0780
0CC0
0CC0
18E0
1860
1860
3FF0
3FF0
3030
6038
6018
E018
ENDCHAR
STARTCHAR 0064
ENCODING 100
SWIDTH 720 0
DWIDTH 15 0
BBX 13 20 1 -5
BITMAP
0FC0
3FE0
7870
6038
E018
C000
C000
C000
C000
C018
E018
6030
7070
3FE0
0F80
0200
0700
0180
0100
0F00
ENDCHAR
STARTCHAR 0065
ENCODING 101
SWIDTH 672 0
DWIDTH 14 0
BBX 11 19 2 0
BITMAP
0600
0400
0C00
0000
FFE0
FFE0
C000
C000
C000
C000
FFC0
FFC0
C000
C000
C000
C000
C000
FFE0
FFE0
ENDCHAR
STARTCHAR 0066
ENCODING 102
SWIDTH 720 0
DWIDTH 15 0
BBX 11 19 2 0
BITMAP
1880
2780
0000
0000
C020
E020
F020
F020
D820
D820
CC20
CE20
C620
C320
C3A0
C1A0
C0E0
C0E0
C060
ENDCHAR
STARTCHAR 0067
ENCODING 103
SWIDTH 768 0
DWIDTH 16 0
BBX 14 19 1 0
BITMAP
06C0
06C0
0000
0000
0FC0
3FF0
7838
601C
E00C
C00C
C00C
C00C
C00C
C00C
E00C
6018
7838
3FF0
0FC0
ENDCHAR
STARTCHAR 0068
ENCODING 104
SWIDTH 720 0
DWIDTH 15 0
BBX 12 19 2 0
BITMAP
1900
1900
0000
0000
C070
C070
C070
C070
C070
C070
C070
C070
C060
C060
C060
C060
60E0
7FC0
1F00
ENDCHAR
STARTCHAR 0069
ENCODING 105
SWIDTH 576 0
DWIDTH 12 0
BBX 10 15 1 0
BITMAP
0E00
0C00
1800
0000
3E00
7F00
6180
C180
0180
3F80
FD80
C180
C380
FFC0
78C0
ENDCHAR
STARTCHAR 006A
ENCODING 106
SWIDTH 576 0
DWIDTH 12 0
BBX 10 15 1 0
BITMAP
3000
1800
0C00
0000
3E00
7F00
6180
C180
0180
3F80
FD80
C180
C380
FFC0
78C0
ENDCHAR
STARTCHAR 006B
ENCODING 107
SWIDTH 576 0
DWIDTH 12 0
BBX 10 15 1 0
BITMAP
0C00
1E00
3300
0000
3E00
7F00
6180
C180
0180
3F80
FD80
C180
C380
FFC0
78C0
ENDCHAR
STARTCHAR 006C
ENCODING 108
SWIDTH 576 0
DWIDTH 12 0
BBX 10 15 1 0
BITMAP
3300
3300
0000
0000
3E00
7F00
6180
C180
0180
3F80
FD80
C180
C380
FFC0
78C0
ENDCHAR
STARTCHAR 006D
ENCODING 109
SWIDTH 576 0
DWIDTH 12 0
BBX 10 15 1 0
BITMAP
3900
2700
0000
0000
3E00
7F00
6180
C180
0180
3F80
FD80
C180
C380
FFC0
78C0
ENDCHAR
STARTCHAR 006E
ENCODING 110
SWIDTH 576 0
DWIDTH 12 0
BBX 10 17 1 0
BITMAP
0C00
1200
1200
1200
0C00
0000
3E00
7F00
6180
C180
0180
3F80
FD80
C180
C380
FFC0
78C0
ENDCHAR
STARTCHAR 006F
ENCODING 111
SWIDTH 480 0
DWIDTH 10 0
BBX 9 15 1 -4
BITMAP
3E00
7F00
E380
C180
C000
C000
C000
C180
E380
7F00
3E00
1000
1C00
0400
3C00
ENDCHAR
STARTCHAR 0070
ENCODING 112
SWIDTH 576 0
DWIDTH 12 0
BBX 10 15 1 0
BITMAP
0E00
0C00
1800
0000
1E00
7F80
E180
C0C0
FFC0
FFC0
C000
C080
E180
7F00
3E00
ENDCHAR
STARTCHAR 0071
ENCODING 113
SWIDTH 576 0
DWIDTH 12 0
BBX 10 15 1 0
BITMAP
3000
1800
0C00
0000
1E00
7F80
E180
C0C0
FFC0
FFC0
C000
C080
E180
7F00
3E00
ENDCHAR
STARTCHAR 0072
ENCODING 114
SWIDTH 576 0
DWIDTH 12 0
BBX 10 15 1 0
BITMAP
0C00
1E00
3300
0000
1E00
7F80
E180
C0C0
FFC0
FFC0
C000
C080
E180
7F00
3E00
ENDCHAR
STARTCHAR 0073
ENCODING 115
SWIDTH 576 0
DWIDTH 12 0
BBX 10 15 1 0
BITMAP
3300
3300
0000
0000
1E00
7F80
E180
C0C0
FFC0
FFC0
C000
C080
E180
7F00
3E00
ENDCHAR
STARTCHAR 0074
ENCODING 116
SWIDTH 288 0
DWIDTH 6 0
BBX 4 15 1 0
BITMAP
30
60
C0
00
60
60
60
60
60
60
60
60
60
60
60
ENDCHAR
STARTCHAR 0075
ENCODING 117
SWIDTH 288 0
DWIDTH 6 0
BBX 3 15 1 0
BITMAP
C0
C0
60
00
60
60
60
60
60
60
60
60
60
60
60
ENDCHAR
STARTCHAR 0076
ENCODING 118
SWIDTH 288 0
DWIDTH 6 0
BBX 6 15 0 0
BITMAP
30
78
CC
00
30
30
30
30
30
30
30
30
30
30
30
ENDCHAR
STARTCHAR 0077
ENCODING 119
SWIDTH 288 0
DWIDTH 6 0
BBX 6 15 0 0
BITMAP
CC
CC
00
00
30
30
30
30
30
30
30
30
30
30
30
ENDCHAR
STARTCHAR 0078
ENCODING 120
SWIDTH 576 0
DWIDTH 12 0
BBX 9 15 1 0
BITMAP
3880
2700
0000
0000
CF00
DF80
E180
E180
C180
C180
C180
C180
C180
C180
C180
ENDCHAR
STARTCHAR 0079
ENCODING 121
SWIDTH 576 0
DWIDTH 12 0
BBX 10 15 1 0
BITMAP
0C00
0C00
1800
0000
3E00
7F00
E180
C1C0
C0C0
80C0
C0C0
C180
E180
7F00
3E00
ENDCHAR
STARTCHAR 007A
ENCODING 122
SWIDTH 576 0
DWIDTH 12 0
BBX 10 15 1 0
BITMAP
3000
1800
0C00
0000
3E00
7F00
E180
C1C0
C0C0
80C0
C0C0
C180
E180
7F00
3E00
ENDCHAR
STARTCHAR 007B
ENCODING 123
SWIDTH 576 0
DWIDTH 12 0
BBX 10 15 1 0
BITMAP
0C00
1600
3300
0000
3E00
7F00
E180
C1C0
C0C0
80C0
C0C0
C180
E180
7F00
3E00
ENDCHAR
STARTCHAR 007C
ENCODING 124
SWIDTH 576 0
DWIDTH 12 0
BBX 10 15 1 0
BITMAP
3200
3200
0000
0000
3E00
7F00
E180
C1C0
C0C0
80C0
C0C0
C180
E180
7F00
3E00
ENDCHAR
STARTCHAR 007D
ENCODING 125
SWIDTH 576 0
DWIDTH 12 0
BBX 10 15 1 0
BITMAP
3900
4700
0000
0000
3E00
7F00
E180
C1C0
C0C0
80C0
C0C0
C180
E180
7F00
3E00
ENDCHAR
STARTCHAR 007E
ENCODING 126
SWIDTH 576 0
DWIDTH 12 0
BBX 9 15 1 0
BITMAP
0C00
0C00
1800
0000
C180
C180
C180
C180
C180
C180
C180
C180
E380
7F80
3D80
ENDCHAR
STARTCHAR 007F
ENCODING 127
SWIDTH 576 0
DWIDTH 12 0
BBX 9 15 1 0
BITMAP
3000
1800
0C00
0000
C180
C180
C180
C180
C180
C180
C180
C180
E380
7F80
3D80
ENDCHAR
STARTCHAR 0080
ENCODING 128
SWIDTH 576 0
DWIDTH 12 0
BBX 9 15 1 0
BITMAP
0C00
1600
3300
0000
C180
C180
C180
C180
C180
C180
C180
C180
E380
7F80
3D80
ENDCHAR
STARTCHAR 0081
ENCODING 129
SWIDTH 576 0
DWIDTH 12 0
BBX 9 15 1 0
BITMAP
3200
3200
0000
0000
C180
C180
C180
C180
C180
C180
C180
C180
E380
7F80
3D80
ENDCHAR
STARTCHAR 0082
ENCODING 130
SWIDTH 576 0
DWIDTH 12 0
BBX 10 18 1 -3
BITMAP
0C00
0C00
0C00
0C00
FFC0
FFC0
0C00
0C00
0C00
0C00
0C00
0C00
0C00
0C00
0C00
0C00
0C00
0C00
ENDCHAR
STARTCHAR 0083
ENCODING 131
SWIDTH 384 0
DWIDTH 8 0
BBX 6 6 1 9
BITMAP
78
4C
84
84
4C
78
ENDCHAR
STARTCHAR 0084
ENCODING 132
SWIDTH 576 0
DWIDTH 12 0
BBX 10 15 1 -2
BITMAP
0200
0200
1E00
7F80
6580
C4C0
C400
C800
C800
C8C0
7180
7F80
1E00
1000
2000
ENDCHAR
STARTCHAR 0085
ENCODING 133
SWIDTH 576 0
DWIDTH 12 0
BBX 10 15 1 0
BITMAP
3F00
7F80
E180
C0C0
C0C0
C000
6000
FE00
3000
3000
3000
2000
7C00
FFC0
8780
ENDCHAR
STARTCHAR 0086
ENCODING 134
SWIDTH 576 0
DWIDTH 12 0
BBX 10 19 1 -4
BITMAP
1E00
3F00
6300
6180
6000
3800
7E00
C700
C380
C0C0
E0C0
3880
1F80
0700
0300
6180
6300
7F00
3E00
ENDCHAR
STARTCHAR 0087
ENCODING 135
SWIDTH 336 0
DWIDTH 7 0
BBX 4 5 2 5
BITMAP
E0
F0
F0
F0
E0
ENDCHAR
STARTCHAR 0088
ENCODING 136
SWIDTH 528 0
DWIDTH 11 0
BBX 11 19 0 -4
BITMAP
3FE0
7CC0
FCC0
FCC0
FCC0
FCC0
FCC0
FCC0
7CC0
3CC0
0CC0
0CC0
0CC0
0CC0
0CC0
0CC0
0CC0
0CC0
0CC0
ENDCHAR
STARTCHAR 0089
ENCODING 137
SWIDTH 624 0
DWIDTH 13 0
BBX 9 15 2 0
BITMAP
3E00
7F00
E300
C180
C100
C300
CE00
CF00
C380
C180
C180
C180
C380
CF00
CE00
ENDCHAR
STARTCHAR 008A
ENCODING 138
SWIDTH 720 0
DWIDTH 15 0
BBX 15 15 0 0
BITMAP
07C0
1830
3008
67C4
4466
C422
8462
8782
8462
C422
4426
6424
3008
1830
07C0
ENDCHAR
STARTCHAR 008B
ENCODING 139
SWIDTH 720 0
DWIDTH 15 0
BBX 15 15 0 0
BITMAP
07C0
1830
3008
63C4
4466
CC22
8802
8802
8802
CC22
4466
63C4
3008
1830
07C0
ENDCHAR
STARTCHAR 008C
ENCODING 140
SWIDTH 1008 0
DWIDTH 21 0
BBX 16 7 2 8
BITMAP
FEC3
10E7
10A5
10A5
10B9
1099
1099
ENDCHAR
STARTCHAR 008D
ENCODING 141
SWIDTH 336 0
DWIDTH 7 0
BBX 3 3 2 12
BITMAP
60
C0
80
ENDCHAR
STARTCHAR 008E
ENCODING 142
SWIDTH 336 0
DWIDTH 7 0
BBX 5 2 1 13
BITMAP
D8
D8
ENDCHAR
STARTCHAR 008F
ENCODING 143
SWIDTH 528 0
DWIDTH 11 0
BBX 11 10 1 0
BITMAP
0100
0300
FFE0
FFE0
0400
0C00
FFE0
FFE0
1000
3000
ENDCHAR
STARTCHAR 0090
ENCODING 144
SWIDTH 1008 0
DWIDTH 21 0
BBX 20 15 0 0
BITMAP
03FFF0
03FFF0
063000
063000
0E3000
0C3000
0C3FE0
183FE0
183000
3FF000
3FF000
303000
603000
603FF0
E03FF0
ENDCHAR
STARTCHAR 0091
ENCODING 145
SWIDTH 768 0
DWIDTH 16 0
BBX 14 15 1 0
BITMAP
0FC4
3FFC
7838
603C
E06C
C0CC
C18C
C30C
C60C
C40C
C80C
7018
7838
7FF0
8FC0
ENDCHAR
STARTCHAR 0092
ENCODING 146
SWIDTH 720 0
DWIDTH 15 0
BBX 14 8 0 3
BITMAP
3C78
7CFC
678C
C304
C384
668C
7EFC
3C78
ENDCHAR
STARTCHAR 0093
ENCODING 147
SWIDTH 528 0
DWIDTH 11 0
BBX 11 11 1 0
BITMAP
0C00
0C00
0C00
FFE0
FFE0
0C00
0C00
0C00
0000
FFE0
FFE0
ENDCHAR
STARTCHAR 0094
ENCODING 148
SWIDTH 528 0
DWIDTH 11 0
BBX 11 11 1 0
BITMAP
0060
07E0
3F80
FC00
C000
FC00
3F80
07E0
0060
FFE0
FFE0
ENDCHAR
STARTCHAR 0095
ENCODING 149
SWIDTH 528 0
DWIDTH 11 0
BBX 11 11 1 0
BITMAP
8000
F800
7F80
07E0
00E0
07E0
7F80
F800
8000
FFE0
FFE0
ENDCHAR
STARTCHAR 0096
ENCODING 150
SWIDTH 576 0
DWIDTH 12 0
BBX 11 15 0 0
BITMAP
C060
E060
60C0
30C0
3180
7BE0
7BE0
0F00
0E00
7FC0
7FC0
0600
0600
0600
0600
ENDCHAR
STARTCHAR 0097
ENCODING 151
SWIDTH 576 0
DWIDTH 12 0
BBX 12 15 -1 -4
BITMAP
1830
1830
1830
1820
1060
3060
3060
30E0
31C0
7FC0
7EC0
6000
6000
4000
C000
ENDCHAR
STARTCHAR 0098
ENCODING 152
SWIDTH 480 0
DWIDTH 10 0
BBX 9 15 1 0
BITMAP
1E00
1F00
0380
0180
0180
0180
3C80
7E80
6380
C180
C180
C180
E300
7E00
3C00
ENDCHAR
STARTCHAR 0099
ENCODING 153
SWIDTH 720 0
DWIDTH 15 0
BBX 12 18 0 -3
BITMAP
7FF0
7FF0
7000
3000
1800
0C00
0600
0300
0380
0380
0300
0600
0C00
1800
3000
6000
FFF0
FFF0
ENDCHAR
STARTCHAR 009A
ENCODING 154
SWIDTH 816 0
DWIDTH 17 0
BBX 15 18 0 -3
BITMAP
FFFE
FFFE
3018
3018
3018
3018
3018
3018
3018
3018
3018
3018
3018
3018
3018
3018
3018
3018
ENDCHAR
STARTCHAR 009B
ENCODING 155
SWIDTH 528 0
DWIDTH 11 0
BBX 12 11 0 0
BITMAP
FFF0
FFF0
3060
3060
3060
3060
3060
3060
3060
3060
3070
ENDCHAR
STARTCHAR 009C
ENCODING 156
SWIDTH 288 0
DWIDTH 6 0
BBX 8 20 -1 -4
BITMAP
07
0F
0C
18
18
18
18
18
18
18
18
18
18
18
18
10
30
30
F0
E0
ENDCHAR
STARTCHAR 009D
ENCODING 157
SWIDTH 384 0
DWIDTH 8 0
BBX 6 7 1 8
BITMAP
78
88
0C
FC
8C
8C
FC
ENDCHAR
STARTCHAR 009E
ENCODING 158
SWIDTH 384 0
DWIDTH 8 0
BBX 6 7 1 8
BITMAP
78
CC
84
84
84
CC
78
ENDCHAR
STARTCHAR 009F
ENCODING 159
SWIDTH 768 0
DWIDTH 16 0
BBX 14 15 1 0
BITMAP
0FC0
3FF0
3838
601C
E00C
C00C
C00C
C00C
C00C
600C
6018
3018
1870
FCFC
FCFC
ENDCHAR
STARTCHAR 00A0
ENCODING 160
SWIDTH 912 0
DWIDTH 19 0
BBX 17 11 1 0
BITMAP
3E3C00
7F7F00
E1C300
C18180
1FFF80
7DFF80
C18000
C18300
C3C300
FEFE00
783C00
ENDCHAR
STARTCHAR 00A1
ENCODING 161
SWIDTH 624 0
DWIDTH 13 0
BBX 11 11 1 0
BITMAP
1F20
3FC0
71C0
61C0
C2C0
C4C0
C8C0
D0C0
61C0
7F80
9F00
ENDCHAR
STARTCHAR 00A2
ENCODING 162
SWIDTH 624 0
DWIDTH 13 0
BBX 9 15 2 -4
BITMAP
0C00
0C00
0000
0000
0C00
0800
1800
3000
6000
C000
C180
C180
E380
7F00
3E00
ENDCHAR
STARTCHAR 00A3
ENCODING 163
SWIDTH 336 0
DWIDTH 7 0
BBX 2 15 2 -4
BITMAP
C0
C0
00
40
40
40
40
40
C0
C0
C0
C0
C0
C0
C0
ENDCHAR
STARTCHAR 00A4
ENCODING 164
SWIDTH 576 0
DWIDTH 12 0
BBX 11 6 1 2
BITMAP
FFE0
FFE0
0060
0060
0060
0060
ENDCHAR
STARTCHAR 00A5
ENCODING 165
SWIDTH 528 0
DWIDTH 11 0
BBX 13 19 0 0
BITMAP
0008
0018
0018
0010
0030
0030
0020
0060
3060
7040
90C0
1880
1880
0980
0D00
0D00
0700
0600
0600
ENDCHAR
STARTCHAR 00A6
ENCODING 166
SWIDTH 576 0
DWIDTH 12 0
BBX 11 19 0 -4
BITMAP
00E0
01E0
0380
0300
0300
0300
1FC0
1FC0
0600
0600
0600
0C00
0C00
0C00
0C00
0C00
1800
7800
F000
ENDCHAR
STARTCHAR 00A7
ENCODING 167
SWIDTH 528 0
DWIDTH 11 0
BBX 11 7 1 2
BITMAP
7020
FC60
8FE0
73A0
FC60
8FE0
0380
ENDCHAR
STARTCHAR 00A8
ENCODING 168
SWIDTH 624 0
DWIDTH 13 0
BBX 13 15 1 0
BITMAP
0700
0700
0500
0D80
0D80
18C0
18C0
18C0
3060
3060
3060
6030
6030
7FF0
FFF8
ENDCHAR
STARTCHAR 00A9
ENCODING 169
SWIDTH 576 0
DWIDTH 12 0
BBX 8 6 2 3
BITMAP
23
E7
CC
CC
E7
23
ENDCHAR
STARTCHAR 00AA
ENCODING 170
SWIDTH 576 0
DWIDTH 12 0
BBX 8 6 2 3
BITMAP
8C
EE
63
63
EE
8C
ENDCHAR
STARTCHAR 00AB
ENCODING 171
SWIDTH 1008 0
DWIDTH 21 0
BBX 16 2 2 0
BITMAP
E183
E183
ENDCHAR
STARTCHAR 00AC
ENCODING 172
SWIDTH 288 0
DWIDTH 6 0
BBX 0 0 0 0
BITMAP
ENDCHAR
STARTCHAR 00AD
ENCODING 173
SWIDTH 672 0
DWIDTH 14 0
BBX 13 19 0 0
BITMAP
0E00
0600
0300
0000
0300
0780
0780
0780
0CC0
0CC0
18E0
1860
1860
3FF0
3FF0
3030
6038
6018
E018
ENDCHAR
STARTCHAR 00AE
ENCODING 174
SWIDTH 672 0
DWIDTH 14 0
BBX 13 19 0 0
BITMAP
0620
0BC0
0000
0000
0300
0780
0780
0780
0CC0
0CC0
18E0
1860
1860
3FF0
3FF0
3030
6038
6018
E018
ENDCHAR
STARTCHAR 00AF
ENCODING 175
SWIDTH 768 0
DWIDTH 16 0
BBX 14 19 1 0
BITMAP
0F20
08C0
0000
0000
0FC0
3FF0
7838
601C
E00C
C00C
C00C
C00C
C00C
C00C
E00C
6018
7838
3FF0
0FC0
ENDCHAR
STARTCHAR 00B0
ENCODING 176
SWIDTH 1008 0
DWIDTH 21 0
BBX 19 15 1 0
BITMAP
1F3FE0
3FFFE0
707000
603000
C03000
C03000
C03FE0
C03FE0
C03000
C03000
C03000
E07000
70F000
3FFFE0
1F3FE0
ENDCHAR
STARTCHAR 00B1
ENCODING 177
SWIDTH 960 0
DWIDTH 20 0
BBX 18 11 1 0
BITMAP
3E1E00
7F3F80
E1E180
C0C0C0
C0FFC0
C0FFC0
C0C000
C0C0C0
E1E180
7F7F00
3E1E00
ENDCHAR
STARTCHAR 00B2
ENCODING 178
SWIDTH 576 0
DWIDTH 12 0
BBX 12 2 0 5
BITMAP
FFF0
FFF0
ENDCHAR
STARTCHAR 00B3
ENCODING 179
SWIDTH 1008 0
DWIDTH 21 0
BBX 16 2 2 5
BITMAP
FFFF
FFFF
ENDCHAR
STARTCHAR 00B4
ENCODING 180
SWIDTH 336 0
DWIDTH 7 0
BBX 5 5 1 10
BITMAP
48
98
90
D8
D8
ENDCHAR
STARTCHAR 00B5
ENCODING 181
SWIDTH 336 0
DWIDTH 7 0
BBX 5 5 1 10
BITMAP
D8
D8
48
48
90
ENDCHAR
STARTCHAR 00B6
ENCODING 182
SWIDTH 240 0
DWIDTH 5 0
BBX 3 5 1 10
BITMAP
60
40
80
E0
E0
ENDCHAR
STARTCHAR 00B7
ENCODING 183
SWIDTH 240 0
DWIDTH 5 0
BBX 2 5 2 10
BITMAP
C0
C0
40
40
80
ENDCHAR
STARTCHAR 00B8
ENCODING 184
SWIDTH 528 0
DWIDTH 11 0
BBX 11 10 1 0
BITMAP
0C00
0C00
0000
0000
FFE0
FFE0
0000
0000
0C00
0C00
ENDCHAR
STARTCHAR 00B9
ENCODING 185
SWIDTH 480 0
DWIDTH 10 0
BBX 9 15 1 0
BITMAP
1000
1800
1C00
3400
6600
4300
C300
8180
C300
6300
6600
3400
1C00
1800
1000
ENDCHAR
STARTCHAR 00BA
ENCODING 186
SWIDTH 480 0
DWIDTH 10 0
BBX 10 19 0 -4
BITMAP
1B00
1B00
0000
0000
C0C0
60C0
6180
6180
3180
3300
3300
1B00
1E00
1E00
0C00
0C00
0800
7800
7000
ENDCHAR
STARTCHAR 00BB
ENCODING 187
SWIDTH 672 0
DWIDTH 14 0
BBX 12 19 1 0
BITMAP
0D80
0D80
0000
0000
C030
E070
6060
30E0
30C0
1980
1F80
0F00
0F00
0600
0600
0600
0600
0600
0600
ENDCHAR
STARTCHAR 00BC
ENCODING 188
SWIDTH 144 0
DWIDTH 3 0
BBX 10 15 -3 0
BITMAP
00C0
0080
0100
0300
0200
0600
0400
0800
1800
1000
3000
2000
4000
C000
8000
ENDCHAR
STARTCHAR 00BD
ENCODING 189
SWIDTH 768 0
DWIDTH 16 0
BBX 13 15 1 0
BITMAP
03E0
0FF0
0C38
1818
1808
FFC0
3000
3000
FFC0
1008
1818
1818
0C30
0FF0
03C0
ENDCHAR
STARTCHAR 00BE
ENCODING 190
SWIDTH 336 0
DWIDTH 7 0
BBX 3 6 2 3
BITMAP
20
E0
C0
C0
E0
20
ENDCHAR
STARTCHAR 00BF
ENCODING 191
SWIDTH 336 0
DWIDTH 7 0
BBX 3 6 2 3
BITMAP
80
E0
60
60
E0
80
ENDCHAR
STARTCHAR 00C0
ENCODING 192
SWIDTH 480 0
DWIDTH 10 0
BBX 9 15 0 0
BITMAP
1980
3980
3000
3000
F980
F980
3180
3180
3180
3180
3180
3180
3180
3180
3180
ENDCHAR
STARTCHAR 00C1
ENCODING 193
SWIDTH 480 0
DWIDTH 10 0
BBX 9 15 0 0
BITMAP
1980
3980
3180
3180
F980
F980
3180
3180
3180
3180
3180
3180
3180
3180
3180
ENDCHAR
STARTCHAR 00C2
ENCODING 194
SWIDTH 576 0
DWIDTH 12 0
BBX 10 18 1 -3
BITMAP
0C00
0C00
0C00
0C00
FFC0
FFC0
0C00
0C00
0C00
0C00
0C00
0C00
FFC0
FFC0
0C00
0C00
0C00
0C00
ENDCHAR
STARTCHAR 00C3
ENCODING 195
SWIDTH 288 0
DWIDTH 6 0
BBX 2 3 2 6
BITMAP
C0
C0
C0
ENDCHAR
STARTCHAR 00C4
ENCODING 196
SWIDTH 240 0
DWIDTH 5 0
BBX 2 5 2 -3
BITMAP
C0
C0
40
40
80
ENDCHAR
STARTCHAR 00C5
ENCODING 197
SWIDTH 336 0
DWIDTH 7 0
BBX 5 5 1 -3
BITMAP
D8
D8
48
48
90
ENDCHAR
STARTCHAR 00C6
ENCODING 198
SWIDTH 1008 0
DWIDTH 21 0
BBX 21 16 0 -1
BITMAP
382000
7C2000
C64000
86C000
C68000
7D0000
390000
020000
02E0E0
05F1F0
051B18
090B18
091B18
11F1F0
10E0E0
200000
ENDCHAR
STARTCHAR 00C7
ENCODING 199
SWIDTH 672 0
DWIDTH 14 0
BBX 13 19 0 0
BITMAP
0300
0780
04C0
0000
0300
0780
0780
0780
0CC0
0CC0
18E0
1860
1860
3FF0
3FF0
3030
6038
6018
E018
ENDCHAR
STARTCHAR 00C8
ENCODING 200
SWIDTH 672 0
DWIDTH 14 0
BBX 11 19 2 0
BITMAP
0E00
0A00
1B00
0000
FFE0
FFE0
C000
C000
C000
C000
FFC0
FFC0
C000
C000
C000
C000
C000
FFE0
FFE0
ENDCHAR
STARTCHAR 00C9
ENCODING 201
SWIDTH 672 0
DWIDTH 14 0
BBX 13 19 0 0
BITMAP
0180
0300
0600
0000
0300
0780
0780
0780
0CC0
0CC0
18E0
1860
1860
3FF0
3FF0
3030
6038
6018
E018
ENDCHAR
STARTCHAR 00CA
ENCODING 202
SWIDTH 672 0
DWIDTH 14 0
BBX 11 19 2 0
BITMAP
1B00
1B00
0000
0000
FFE0
FFE0
C000
C000
C000
C000
FFC0
FFC0
C000
C000
C000
C000
C000
FFE0
FFE0
ENDCHAR
STARTCHAR 00CB
ENCODING 203
SWIDTH 672 0
DWIDTH 14 0
BBX 11 19 2 0
BITMAP
1800
0800
0C00
0000
FFE0
FFE0
C000
C000
C000
C000
FFC0
FFC0
C000
C000
C000
C000
C000
FFE0
FFE0
ENDCHAR
STARTCHAR 00CC
ENCODING 204
SWIDTH 288 0
DWIDTH 6 0
BBX 4 19 1 0
BITMAP
30
60
C0
00
60
60
60
60
60
60
60
60
60
60
60
60
60
60
60
ENDCHAR
STARTCHAR 00CD
ENCODING 205
SWIDTH 288 0
DWIDTH 6 0
BBX 6 19 0 0
BITMAP
30
78
CC
00
30
30
30
30
30
30
30
30
30
30
30
30
30
30
30
ENDCHAR
STARTCHAR 00CE
ENCODING 206
SWIDTH 288 0
DWIDTH 6 0
BBX 6 18 0 0
BITMAP
CC
CC
00
30
30
30
30
30
30
30
30
30
30
30
30
30
30
30
ENDCHAR
STARTCHAR 00CF
ENCODING 207
SWIDTH 288 0
DWIDTH 6 0
BBX 4 19 0 0
BITMAP
E0
60
30
00
30
30
30
30
30
30
30
30
30
30
30
30
30
30
30
ENDCHAR
STARTCHAR 00D0
ENCODING 208
SWIDTH 768 0
DWIDTH 16 0
BBX 14 19 1 0
BITMAP
0180
0300
0600
0000
0FC0
3FF0
7838
601C
E00C
C00C
C00C
C00C
C00C
C00C
E00C
6018
7838
3FF0
0FC0
ENDCHAR
STARTCHAR 00D1
ENCODING 209
SWIDTH 768 0
DWIDTH 16 0
BBX 14 19 1 0
BITMAP
0380
0680
0CC0
0000
0FC0
3FF0
7838
601C
E00C
C00C
C00C
C00C
C00C
C00C
E00C
6018
7838
3FF0
0FC0
ENDCHAR
STARTCHAR 00D2
ENCODING 210
SWIDTH 768 0
DWIDTH 16 0
BBX 15 17 1 0
BITMAP
0060
00C0
00C0
0180
3FF8
7FFC
FFF8
FFF0
FFF0
FFF0
FFF8
FFF8
7FFE
7FFC
3FFC
3FF8
1E70
ENDCHAR
STARTCHAR 00D3
ENCODING 211
SWIDTH 768 0
DWIDTH 16 0
BBX 14 19 1 0
BITMAP
0600
0300
0100
0000
0FC0
3FF0
7838
601C
E00C
C00C
C00C
C00C
C00C
C00C
E00C
6018
7838
3FF0
0FC0
ENDCHAR
STARTCHAR 00D4
ENCODING 212
SWIDTH 720 0
DWIDTH 15 0
BBX 12 19 2 0
BITMAP
0700
0600
0C00
0000
C070
C070
C070
C070
C070
C070
C070
C070
C060
C060
C060
C060
60E0
7FC0
1F00
ENDCHAR
STARTCHAR 00D5
ENCODING 213
SWIDTH 720 0
DWIDTH 15 0
BBX 12 19 2 0
BITMAP
0600
0F00
1900
0000
C070
C070
C070
C070
C070
C070
C070
C070
C060
C060
C060
C060
60E0
7FC0
1F00
ENDCHAR
STARTCHAR 00D6
ENCODING 214
SWIDTH 720 0
DWIDTH 15 0
BBX 12 19 2 0
BITMAP
1800
0C00
0400
0000
C070
C070
C070
C070
C070
C070
C070
C070
C060
C060
C060
C060
60E0
7FC0
1F00
ENDCHAR
STARTCHAR 00D7
ENCODING 215
SWIDTH 288 0
DWIDTH 6 0
BBX 2 11 2 0
BITMAP
C0
C0
C0
C0
C0
C0
C0
C0
C0
C0
C0
ENDCHAR
STARTCHAR 00D8
ENCODING 216
SWIDTH 336 0
DWIDTH 7 0
BBX 5 3 1 12
BITMAP
70
D0
98
ENDCHAR
STARTCHAR 00D9
ENCODING 217
SWIDTH 336 0
DWIDTH 7 0
BBX 7 2 0 13
BITMAP
72
9C
ENDCHAR
STARTCHAR 00DA
ENCODING 218
SWIDTH 336 0
DWIDTH 7 0
BBX 7 1 0 13
BITMAP
FE
ENDCHAR
STARTCHAR 00DB
ENCODING 219
SWIDTH 336 0
DWIDTH 7 0
BBX 7 3 0 12
BITMAP
82
44
78
ENDCHAR
STARTCHAR 00DC
ENCODING 220
SWIDTH 336 0
DWIDTH 7 0
BBX 1 2 3 13
BITMAP
80
80
ENDCHAR
STARTCHAR 00DD
ENCODING 221
SWIDTH 336 0
DWIDTH 7 0
BBX 5 5 1 12
BITMAP
70
50
88
50
70
ENDCHAR
STARTCHAR 00DE
ENCODING 222
SWIDTH 336 0
DWIDTH 7 0
BBX 5 4 1 -4
BITMAP
20
70
18
F0
ENDCHAR
STARTCHAR 00DF
ENCODING 223
SWIDTH 336 0
DWIDTH 7 0
BBX 7 3 0 12
BITMAP
66
4C
C8
ENDCHAR
STARTCHAR 00E0
ENCODING 224
SWIDTH 336 0
DWIDTH 7 0
BBX 3 5 2 -5
BITMAP
60
C0
80
C0
E0
ENDCHAR
STARTCHAR 00E1
ENCODING 225
SWIDTH 336 0
DWIDTH 7 0
BBX 5 3 1 12
BITMAP
98
D0
70
ENDCHAR
STARTCHAR 00E2
ENCODING 226
SWIDTH 576 0
DWIDTH 12 0
BBX 11 15 0 0
BITMAP
3000
3000
3000
3000
3000
3600
3C00
3000
F000
B000
3000
3000
3000
3FE0
3FE0
ENDCHAR
STARTCHAR 00E3
ENCODING 227
SWIDTH 240 0
DWIDTH 5 0
BBX 5 15 0 0
BITMAP
60
60
60
60
60
60
78
70
E0
E0
60
60
60
60
60
ENDCHAR
STARTCHAR 00E4
ENCODING 228
SWIDTH 672 0
DWIDTH 14 0
BBX 12 19 1 0
BITMAP
1980
0F00
0600
0000
1F80
3FC0
60E0
6060
4060
6000
7E00
3FC0
03E0
0030
C030
C030
6070
7FE0
1F80
ENDCHAR
STARTCHAR 00E5
ENCODING 229
SWIDTH 480 0
DWIDTH 10 0
BBX 9 15 1 0
BITMAP
2600
3400
1C00
0000
3E00
7F00
C300
C000
F000
3F00
0700
C180
C380
FF00
3E00
ENDCHAR
STARTCHAR 00E6
ENCODING 230
SWIDTH 624 0
DWIDTH 13 0
BBX 12 19 0 0
BITMAP
0CC0
0580
0700
0000
7FF0
7FF0
0070
00E0
00C0
0180
0300
0700
0E00
1C00
1800
3000
6000
FFF0
FFF0
ENDCHAR
STARTCHAR 00E7
ENCODING 231
SWIDTH 480 0
DWIDTH 10 0
BBX 9 15 1 0
BITMAP
2600
3400
1C00
0000
FF00
FF00
0300
0600
0C00
1800
3000
6000
C000
FF80
FF80
ENDCHAR
STARTCHAR 00E8
ENCODING 232
SWIDTH 240 0
DWIDTH 5 0
BBX 2 15 1 0
BITMAP
C0
C0
C0
C0
C0
C0
00
00
00
C0
C0
C0
C0
C0
C0
ENDCHAR
STARTCHAR 00E9
ENCODING 233
SWIDTH 720 0
DWIDTH 15 0
BBX 14 15 0 0
BITMAP
3FC0
3FF0
3038
3018
301C
300C
FF0C
FF0C
300C
300C
301C
3018
3038
3FF0
3FC0
ENDCHAR
STARTCHAR 00EA
ENCODING 234
SWIDTH 576 0
DWIDTH 12 0
BBX 10 17 1 0
BITMAP
2400
3800
1C00
6C00
0600
0300
3F00
7F80
E180
C1C0
C0C0
C0C0
C0C0
C180
E380
7F00
3E00
ENDCHAR
STARTCHAR 00EB
ENCODING 235
SWIDTH 672 0
DWIDTH 14 0
BBX 12 19 1 0
BITMAP
0300
0600
0400
0000
C030
E070
6060
30E0
30C0
1980
1F80
0F00
0F00
0600
0600
0600
0600
0600
0600
ENDCHAR
STARTCHAR 00EC
ENCODING 236
SWIDTH 480 0
DWIDTH 10 0
BBX 10 19 0 -4
BITMAP
0600
0400
0C00
0000
C0C0
60C0
6180
6180
3180
3300
3300
1B00
1E00
1E00
0C00
0C00
0800
7800
7000
ENDCHAR
STARTCHAR 00ED
ENCODING 237
SWIDTH 672 0
DWIDTH 14 0
BBX 11 15 1 0
BITMAP
C000
C000
FF80
FFE0
C060
C060
C060
C060
C0E0
FFC0
FF80
C000
C000
C000
C000
ENDCHAR
STARTCHAR 00EE
ENCODING 238
SWIDTH 576 0
DWIDTH 12 0
BBX 10 19 1 -4
BITMAP
C000
C000
C000
C000
DE00
FF80
E180
C0C0
C0C0
C0C0
C0C0
C0C0
E180
FF80
DE00
C000
C000
C000
C000
ENDCHAR
STARTCHAR 00EF
ENCODING 239
SWIDTH 576 0
DWIDTH 12 0
BBX 11 2 1 4
BITMAP
FFE0
FFE0
ENDCHAR
STARTCHAR 00F0
ENCODING 240
SWIDTH 576 0
DWIDTH 12 0
BBX 10 9 1 1
BITMAP
C0C0
61C0
3300
1E00
0C00
1F00
3380
61C0
C0C0
ENDCHAR
STARTCHAR 00F1
ENCODING 241
SWIDTH 336 0
DWIDTH 7 0
BBX 4 9 1 6
BITMAP
30
30
F0
30
30
30
30
30
30
ENDCHAR
STARTCHAR 00F2
ENCODING 242
SWIDTH 336 0
DWIDTH 7 0
BBX 7 9 0 6
BITMAP
38
44
C6
06
0C
38
70
C0
FE
ENDCHAR
STARTCHAR 00F3
ENCODING 243
SWIDTH 336 0
DWIDTH 7 0
BBX 7 9 0 6
BITMAP
78
4C
C4
0C
18
04
C6
C4
78
ENDCHAR
STARTCHAR 00F4
ENCODING 244
SWIDTH 816 0
DWIDTH 17 0
BBX 15 15 1 0
BITMAP
3020
3020
F040
30C0
3080
3180
313C
3266
3262
0406
0C0E
081C
1830
1060
207E
ENDCHAR
STARTCHAR 00F5
ENCODING 245
SWIDTH 816 0
DWIDTH 17 0
BBX 15 15 2 0
BITMAP
3010
7020
F060
3040
30C0
3080
3108
3318
3238
0668
04C8
0888
18FE
1008
3008
ENDCHAR
STARTCHAR 00F6
ENCODING 246
SWIDTH 816 0
DWIDTH 17 0
BBX 16 15 1 0
BITMAP
7808
CC18
8C10
0C30
3820
0C40
84C6
CC8E
799E
0136
0226
0666
047F
0C06
0806
ENDCHAR
STARTCHAR 00F7
ENCODING 247
SWIDTH 576 0
DWIDTH 12 0
BBX 11 15 0 0
BITMAP
3FE0
3FE0
3000
3000
3000
3000
3FC0
3FC0
3000
3000
3000
FE00
FE00
3000
3000
ENDCHAR
STARTCHAR 00F8
ENCODING 248
SWIDTH 768 0
DWIDTH 16 0
BBX 14 21 1 -1
BITMAP
0840
0C40
0780
0000
0000
0FC0
1FF0
3870
7018
6018
C000
C000
C1FC
C1FC
C00C
C00C
E01C
601C
787C
3FEC
0F8C
ENDCHAR
STARTCHAR 00F9
ENCODING 249
SWIDTH 576 0
DWIDTH 12 0
BBX 9 20 1 -4
BITMAP
4100
2200
3C00
0000
0000
3D80
7F80
E380
C180
C180
C180
C180
C180
C180
6380
3D80
0180
C180
FF00
3E00
ENDCHAR
STARTCHAR 00FA
ENCODING 250
SWIDTH 288 0
DWIDTH 6 0
BBX 2 18 2 0
BITMAP
C0
C0
00
C0
C0
C0
C0
C0
C0
C0
C0
C0
C0
C0
C0
C0
C0
C0
ENDCHAR
STARTCHAR 00FB
ENCODING 251
SWIDTH 672 0
DWIDTH 14 0
BBX 12 20 1 -5
BITMAP
1F80
3FC0
60E0
6060
C060
6000
7800
3FC0
03E0
0070
C030
C030
6070
7FE0
1F80
0400
0F00
0300
0300
0E00
ENDCHAR
STARTCHAR 00FC
ENCODING 252
SWIDTH 480 0
DWIDTH 10 0
BBX 9 16 1 -5
BITMAP
3E00
7F00
C300
C000
F000
3E00
0300
C180
C380
FF00
3E00
1000
1C00
0400
0C00
3800
ENDCHAR
STARTCHAR 00FD
ENCODING 253
SWIDTH 720 0
DWIDTH 15 0
BBX 13 19 1 0
BITMAP
0180
0300
0600
0000
0FC0
3FE0
7870
6038
E018
C000
C000
C000
C000
C018
E018
6030
7070
3FE0
0F80
ENDCHAR
STARTCHAR 00FE
ENCODING 254
SWIDTH 480 0
DWIDTH 10 0
BBX 9 15 1 0
BITMAP
0E00
0C00
1800
0000
3E00
7F00
E380
C180
C000
C000
C000
C180
E380
7F00
3E00
ENDCHAR
STARTCHAR 00FF
ENCODING 255
SWIDTH 720 0
DWIDTH 15 0
BBX 13 19 1 0
BITMAP
0C80
0780
0300
0000
0FC0
3FE0
7870
6038
E018
C000
C000
C000
C000
C018
E018
6030
7070
3FE0
0F80
ENDCHAR
STARTCHAR 0100
ENCODING 256
SWIDTH 480 0
DWIDTH 10 0
BBX 9 15 1 0
BITMAP
2200
3600
1C00
0000
3E00
7F00
E380
C180
C000
C000
C000
C180
E380
7F00
3E00
ENDCHAR
STARTCHAR 0101
ENCODING 257
SWIDTH 576 0
DWIDTH 12 0
BBX 11 15 1 0
BITMAP
0180
0180
0FE0
0180
3D80
7F80
E380
C180
C180
C080
C180
C180
E380
7E80
3C80
ENDCHAR
STARTCHAR 0102
ENCODING 258
SWIDTH 672 0
DWIDTH 14 0
BBX 13 17 0 0
BITMAP
0FC0
0000
0300
0780
0780
0780
0CC0
0CC0
18E0
1860
1860
3FF0
3FF0
3030
6038
6018
E018
ENDCHAR
STARTCHAR 0103
ENCODING 259
SWIDTH 576 0
DWIDTH 12 0
BBX 10 13 1 0
BITMAP
7F00
0000
3E00
7F00
6180
C180
0180
3F80
FD80
C180
C380
FFC0
78C0
ENDCHAR
STARTCHAR 0104
ENCODING 260
SWIDTH 672 0
DWIDTH 14 0
BBX 12 19 1 0
BITMAP
1080
1880
0F00
0000
0600
0F00
0F00
0F00
1980
1980
11C0
30C0
30C0
7FE0
7FE0
6060
C070
C030
C030
ENDCHAR
STARTCHAR 0105
ENCODING 261
SWIDTH 576 0
DWIDTH 12 0
BBX 10 17 1 -1
BITMAP
2100
2200
1E00
0000
0000
3E00
7F80
6180
C180
0180
1F80
6180
C180
C180
C380
FFC0
7CC0
ENDCHAR
STARTCHAR 0106
ENCODING 262
SWIDTH 672 0
DWIDTH 14 0
BBX 14 20 0 -5
BITMAP
0300
0780
0780
0780
0CC0
0CC0
18E0
1860
1860
3FF0
3FF0
3030
6038
6018
E018
0008
0010
0030
0030
001C
ENDCHAR
STARTCHAR 0107
ENCODING 263
SWIDTH 576 0
DWIDTH 12 0
BBX 10 16 1 -5
BITMAP
3E00
7F00
6180
C180
0180
3F80
FD80
C180
C380
FFC0
78C0
00C0
0180
0100
0180
01C0
ENDCHAR
STARTCHAR 0108
ENCODING 264
SWIDTH 720 0
DWIDTH 15 0
BBX 13 19 1 0
BITMAP
0300
0780
0CC0
0000
0FC0
3FE0
7870
6038
E018
C000
C000
C000
C000
C018
E018
6030
7070
3FE0
0F80
ENDCHAR
STARTCHAR 0109
ENCODING 265
SWIDTH 480 0
DWIDTH 10 0
BBX 9 15 1 0
BITMAP
0C00
1600
3300
0000
3E00
7F00
E380
C180
C000
C000
C000
C180
E380
7F00
3E00
ENDCHAR
STARTCHAR 010A
ENCODING 266
SWIDTH 720 0
DWIDTH 15 0
BBX 13 19 1 0
BITMAP
0300
0300
0000
0000
0FC0
3FE0
7870
6038
E018
C000
C000
C000
C000
C018
E018
6030
7070
3FE0
0F80
ENDCHAR
STARTCHAR 010B
ENCODING 267
SWIDTH 480 0
DWIDTH 10 0
BBX 9 15 1 0
BITMAP
0C00
0C00
0000
0000
3E00
7F00
E380
C180
C000
C000
C000
C180
E380
7F00
3E00
ENDCHAR
STARTCHAR 010C
ENCODING 268
SWIDTH 720 0
DWIDTH 15 0
BBX 12 19 2 0
BITMAP
1900
0B00
0E00
0000
FF00
FFC0
C0E0
C060
C070
C030
C030
C030
C030
C030
C070
C060
C0E0
FFC0
FF00
ENDCHAR
STARTCHAR 010D
ENCODING 269
SWIDTH 672 0
DWIDTH 14 0
BBX 12 19 1 -1
BITMAP
0030
0030
0010
0190
01B0
0180
0180
3D80
7F80
E380
C180
C180
C080
C080
C180
C180
E380
7E80
3C80
ENDCHAR
STARTCHAR 010E
ENCODING 270
SWIDTH 672 0
DWIDTH 14 0
BBX 11 17 2 0
BITMAP
3F80
0000
FFE0
FFE0
C000
C000
C000
C000
FFC0
FFC0
C000
C000
C000
C000
C000
FFE0
FFE0
ENDCHAR
STARTCHAR 010F
ENCODING 271
SWIDTH 576 0
DWIDTH 12 0
BBX 10 13 1 0
BITMAP
3F00
0000
1E00
7F80
E180
C0C0
FFC0
FFC0
C000
C080
E180
7F00
3E00
ENDCHAR
STARTCHAR 0110
ENCODING 272
SWIDTH 672 0
DWIDTH 14 0
BBX 11 19 2 0
BITMAP
2080
1100
0E00
0000
FFE0
FFE0
C000
C000
C000
C000
FFC0
FFC0
C000
C000
C000
C000
C000
FFE0
FFE0
ENDCHAR
STARTCHAR 0111
ENCODING 273
SWIDTH 576 0
DWIDTH 12 0
BBX 10 16 1 -1
BITMAP
2100
2300
1E00
0000
1E00
7F00
6180
C180
C0C0
FFC0
C000
C000
C180
E180
7F00
3E00
ENDCHAR
STARTCHAR 0112
ENCODING 274
SWIDTH 672 0
DWIDTH 14 0
BBX 11 19 2 0
BITMAP
0600
0600
0000
0000
FFE0
FFE0
C000
C000
C000
C000
FFC0
FFC0
C000
C000
C000
C000
C000
FFE0
FFE0
ENDCHAR
STARTCHAR 0113
ENCODING 275
SWIDTH 576 0
DWIDTH 12 0
BBX 10 15 1 0
BITMAP
0C00
0C00
0000
0000
1E00
7F80
E180
C0C0
FFC0
FFC0
C000
C080
E180
7F00
3E00
ENDCHAR
STARTCHAR 0114
ENCODING 276
SWIDTH 672 0
DWIDTH 14 0
BBX 11 20 2 -5
BITMAP
FFE0
FFE0
C000
C000
C000
C000
FFC0
FFC0
C000
C000
C000
C000
C000
FFE0
FFE0
0300
0600
0400
0600
0700
ENDCHAR
STARTCHAR 0115
ENCODING 277
SWIDTH 576 0
DWIDTH 12 0
BBX 10 16 1 -5
BITMAP
1E00
7F80
E180
C0C0
FFC0
FFC0
C000
C080
E180
7F00
3E00
0C00
1800
1000
1800
1C00
ENDCHAR
STARTCHAR 0116
ENCODING 278
SWIDTH 672 0
DWIDTH 14 0
BBX 11 19 2 0
BITMAP
3300
1E00
0C00
0000
FFE0
FFE0
C000
C000
C000
C000
FFC0
FFC0
C000
C000
C000
C000
C000
FFE0
FFE0
ENDCHAR
STARTCHAR 0117
ENCODING 279
SWIDTH 576 0
DWIDTH 12 0
BBX 10 15 1 0
BITMAP
3200
1600
1C00
0000
1E00
7F80
E180
C0C0
FFC0
FFC0
C000
C080
E180
7F00
3E00
ENDCHAR
STARTCHAR 0118
ENCODING 280
SWIDTH 768 0
DWIDTH 16 0
BBX 14 19 1 0
BITMAP
0380
0680
04C0
0000
0FC0
1FF0
3870
6018
6018
C000
C000
C1FC
C1FC
C00C
E00C
601C
783C
3FEC
0F8C
ENDCHAR
STARTCHAR 0119
ENCODING 281
SWIDTH 576 0
DWIDTH 12 0
BBX 9 19 1 -4
BITMAP
1C00
3400
2600
0000
3D80
7F80
E380
C180
C180
C180
C180
C180
E380
7F80
3D80
0180
C380
FF00
3E00
ENDCHAR
STARTCHAR 011A
ENCODING 282
SWIDTH 768 0
DWIDTH 16 0
BBX 14 19 1 0
BITMAP
0300
0300
0000
0000
0FC0
1FF0
3870
6018
6018
C000
C000
C1FC
C1FC
C00C
E00C
601C
783C
3FEC
0F8C
ENDCHAR
STARTCHAR 011B
ENCODING 283
SWIDTH 576 0
DWIDTH 12 0
BBX 9 19 1 -4
BITMAP
1800
1800
0000
0000
3D80
7F80
E380
C180
C180
C180
C180
C180
E380
7F80
3D80
0180
C380
FF00
3E00
ENDCHAR
STARTCHAR 011C
ENCODING 284
SWIDTH 768 0
DWIDTH 16 0
BBX 14 19 1 -4
BITMAP
0FC0
1FF0
3870
6018
6018
C000
C000
C1FC
C1FC
C00C
E00C
601C
783C
3FEC
0F8C
0100
0380
0080
0780
ENDCHAR
STARTCHAR 011D
ENCODING 285
SWIDTH 576 0
DWIDTH 12 0
BBX 9 19 1 -8
BITMAP
3D80
7F80
E380
C180
C180
C180
C180
C180
E380
7F80
3D80
0180
C380
FF00
3E00
0800
1E00
0600
1C00
ENDCHAR
STARTCHAR 011E
ENCODING 286
SWIDTH 576 0
DWIDTH 12 0
BBX 9 19 1 -4
BITMAP
0600
0C00
1800
0000
3D80
7F80
E380
C180
C180
C180
C180
C180
E380
7F80
3D80
0180
C380
FF00
3E00
ENDCHAR
STARTCHAR 011F
ENCODING 287
SWIDTH 720 0
DWIDTH 15 0
BBX 12 18 2 0
BITMAP
0E00
0B00
1900
C070
C070
C070
C070
C070
C070
FFF0
FFF0
C070
C070
C070
C070
C070
C070
C070
ENDCHAR
STARTCHAR 0120
ENCODING 288
SWIDTH 576 0
DWIDTH 12 0
BBX 9 18 1 0
BITMAP
0E00
0B00
1900
C000
C000
C000
C000
CF00
DF80
E180
E180
C180
C180
C180
C180
C180
C180
C180
ENDCHAR
STARTCHAR 0121
ENCODING 289
SWIDTH 720 0
DWIDTH 15 0
BBX 14 15 1 0
BITMAP
6038
6038
FFFC
FFFC
6038
6038
7FF8
7FF8
6038
6038
6038
6038
6038
6038
6038
ENDCHAR
STARTCHAR 0122
ENCODING 290
SWIDTH 576 0
DWIDTH 12 0
BBX 9 15 1 0
BITMAP
C000
C000
FC00
C000
CF00
DF80
E180
E180
C180
C180
C180
C180
C180
C180
C180
ENDCHAR
STARTCHAR 0123
ENCODING 291
SWIDTH 432 0
DWIDTH 9 0
BBX 7 19 1 0
BITMAP
72
9C
00
00
18
18
18
18
18
18
18
18
18
18
18
18
18
18
18
ENDCHAR
STARTCHAR 0124
ENCODING 292
SWIDTH 432 0
DWIDTH 9 0
BBX 7 16 1 0
BITMAP
E2
9C
00
00
00
30
30
30
30
30
30
30
30
30
30
30
ENDCHAR
STARTCHAR 0125
ENCODING 293
SWIDTH 384 0
DWIDTH 8 0
BBX 6 17 1 0
BITMAP
FC
00
30
30
30
30
30
30
30
30
30
30
30
30
30
30
30
ENDCHAR
STARTCHAR 0126
ENCODING 294
SWIDTH 384 0
DWIDTH 8 0
BBX 7 13 1 0
BITMAP
FE
00
30
30
30
30
30
30
30
30
30
30
30
ENDCHAR
STARTCHAR 0127
ENCODING 295
SWIDTH 288 0
DWIDTH 6 0
BBX 3 20 1 -5
BITMAP
60
60
60
60
60
60
60
60
60
60
60
60
60
60
60
60
C0
80
80
E0
ENDCHAR
STARTCHAR 0128
ENCODING 296
SWIDTH 240 0
DWIDTH 5 0
BBX 3 20 0 -5
BITMAP
60
60
00
00
60
60
60
60
60
60
60
60
60
60
60
60
C0
80
C0
E0
ENDCHAR
STARTCHAR 0129
ENCODING 297
SWIDTH 768 0
DWIDTH 16 0
BBX 13 16 2 -1
BITMAP
C018
C018
C018
C018
C018
C018
C018
C018
C018
C018
CC18
CC18
CC18
CE30
C7F0
03E0
ENDCHAR
STARTCHAR 012A
ENCODING 298
SWIDTH 432 0
DWIDTH 9 0
BBX 7 19 1 -4
BITMAP
C6
C6
00
00
C6
C6
C6
C6
C6
C6
C6
C6
C6
C6
C6
06
06
1E
1C
ENDCHAR
STARTCHAR 012B
ENCODING 299
SWIDTH 480 0
DWIDTH 10 0
BBX 11 18 0 0
BITMAP
0180
03C0
0660
0180
0180
0180
0180
0180
0180
0180
0180
0180
0180
C180
C180
6380
7F00
3E00
ENDCHAR
STARTCHAR 012C
ENCODING 300
SWIDTH 240 0
DWIDTH 5 0
BBX 6 19 -1 -4
BITMAP
30
78
CC
00
30
30
30
30
30
30
30
30
30
30
30
30
30
70
60
ENDCHAR
STARTCHAR 012D
ENCODING 301
SWIDTH 672 0
DWIDTH 14 0
BBX 12 19 1 -4
BITMAP
6070
60E0
61C0
6380
6700
6E00
7E00
7E00
7300
6380
61C0
60C0
60E0
6070
6030
4000
F000
3000
E000
ENDCHAR
STARTCHAR 012E
ENCODING 302
SWIDTH 480 0
DWIDTH 10 0
BBX 10 19 0 -4
BITMAP
6000
6000
6000
6000
61C0
6380
6700
6E00
7C00
7600
6600
6300
6380
6180
60C0
4000
7000
1000
F000
ENDCHAR
STARTCHAR 012F
ENCODING 303
SWIDTH 576 0
DWIDTH 12 0
BBX 9 18 2 0
BITMAP
6000
6000
C000
C000
C000
C000
C000
C000
C000
C000
C000
C000
C000
C000
C000
C000
FF80
FF80
ENDCHAR
STARTCHAR 0130
ENCODING 304
SWIDTH 288 0
DWIDTH 6 0
BBX 4 18 1 0
BITMAP
30
60
40
C0
C0
C0
C0
C0
C0
C0
C0
C0
C0
C0
C0
C0
C0
C0
ENDCHAR
STARTCHAR 0131
ENCODING 305
SWIDTH 576 0
DWIDTH 12 0
BBX 9 19 2 -4
BITMAP
C000
C000
C000
C000
C000
C000
C000
C000
C000
C000
C000
C000
C000
FF80
FF80
0800
1E00
0600
1C00
ENDCHAR
STARTCHAR 0132
ENCODING 306
SWIDTH 240 0
DWIDTH 5 0
BBX 5 19 0 -4
BITMAP
60
60
60
60
60
60
60
60
60
60
60
60
60
60
60
20
70
18
F0
ENDCHAR
STARTCHAR 0133
ENCODING 307
SWIDTH 576 0
DWIDTH 12 0
BBX 9 15 2 0
BITMAP
C300
C300
C100
C100
C300
C000
C000
C000
C000
C000
C000
C000
C000
FF80
FF80
ENDCHAR
STARTCHAR 0134
ENCODING 308
SWIDTH 240 0
DWIDTH 5 0
BBX 5 15 1 0
BITMAP
D8
D8
D8
D8
D8
D8
C0
C0
C0
C0
C0
C0
C0
C0
C0
ENDCHAR
STARTCHAR 0135
ENCODING 309
SWIDTH 576 0
DWIDTH 12 0
BBX 9 15 2 0
BITMAP
C000
C000
C000
C000
C000
C000
CC00
CC00
C000
C000
C000
C000
C000
FF80
FF80
ENDCHAR
STARTCHAR 0136
ENCODING 310
SWIDTH 288 0
DWIDTH 6 0
BBX 5 15 1 0
BITMAP
C0
C0
C0
C0
C0
C8
C8
C0
C0
C0
C0
C0
C0
C0
C0
ENDCHAR
STARTCHAR 0137
ENCODING 311
SWIDTH 720 0
DWIDTH 15 0
BBX 11 18 2 0
BITMAP
0300
0200
0400
C020
E020
F020
F020
D820
D820
CC20
CE20
C620
C320
C3A0
C1A0
C0E0
C0E0
C060
ENDCHAR
STARTCHAR 0138
ENCODING 312
SWIDTH 576 0
DWIDTH 12 0
BBX 9 15 1 0
BITMAP
0300
0600
0C00
0000
CF00
DF80
E180
E180
C180
C180
C180
C180
C180
C180
C180
ENDCHAR
STARTCHAR 0139
ENCODING 313
SWIDTH 720 0
DWIDTH 15 0
BBX 12 19 1 -4
BITMAP
6010
7010
7810
7810
6C10
6C10
6610
6710
6310
6190
61D0
60D0
6070
6070
6030
4000
F000
3000
E000
ENDCHAR
STARTCHAR 013A
ENCODING 314
SWIDTH 576 0
DWIDTH 12 0
BBX 10 15 0 -4
BITMAP
6780
6FC0
70C0
70C0
60C0
60C0
60C0
60C0
60C0
60C0
60C0
2000
7000
1800
F000
ENDCHAR
STARTCHAR 013B
ENCODING 315
SWIDTH 720 0
DWIDTH 15 0
BBX 11 18 2 0
BITMAP
1900
0B00
0E00
C020
E020
F020
F020
D820
D820
CC20
CE20
C620
C320
C3A0
C1A0
C0E0
C0E0
C060
ENDCHAR
STARTCHAR 013C
ENCODING 316
SWIDTH 576 0
DWIDTH 12 0
BBX 9 15 1 0
BITMAP
1300
1A00
0E00
0000
CF00
DF80
E180
E180
C180
C180
C180
C180
C180
C180
C180
ENDCHAR
STARTCHAR 013D
ENCODING 317
SWIDTH 576 0
DWIDTH 12 0
BBX 11 17 0 0
BITMAP
C000
C000
4000
4000
8000
0000
33C0
37E0
3860
3860
3060
3060
3060
3060
3060
3060
3060
ENDCHAR
STARTCHAR 013E
ENCODING 318
SWIDTH 768 0
DWIDTH 16 0
BBX 14 17 1 0
BITMAP
0FC0
0000
0FC0
3FF0
7838
601C
E00C
C00C
C00C
C00C
C00C
C00C
E00C
6018
7838
3FF0
0FC0
ENDCHAR
STARTCHAR 013F
ENCODING 319
SWIDTH 576 0
DWIDTH 12 0
BBX 10 13 1 0
BITMAP
7F00
0000
3E00
7F00
E180
C1C0
C0C0
80C0
C0C0
C180
E180
7F00
3E00
ENDCHAR
STARTCHAR 0140
ENCODING 320
SWIDTH 768 0
DWIDTH 16 0
BBX 14 21 1 -1
BITMAP
0840
0C40
0780
0000
0000
0FC0
3FF0
3838
6018
E00C
C00C
C00C
C00C
C00C
C00C
C00C
E01C
6018
7838
3FF0
0FC0
ENDCHAR
STARTCHAR 0141
ENCODING 321
SWIDTH 576 0
DWIDTH 12 0
BBX 10 16 1 -1
BITMAP
2100
2300
1E00
0000
3E00
7F00
E180
C180
C0C0
C0C0
80C0
C0C0
C180
E380
7F00
3E00
ENDCHAR
STARTCHAR 0142
ENCODING 322
SWIDTH 768 0
DWIDTH 16 0
BBX 14 19 1 0
BITMAP
0360
0640
04C0
0000
0FC0
3FF0
7838
601C
E00C
C00C
C00C
C00C
C00C
C00C
E00C
6018
7838
3FF0
0FC0
ENDCHAR
STARTCHAR 0143
ENCODING 323
SWIDTH 576 0
DWIDTH 12 0
BBX 10 15 1 0
BITMAP
1B00
3300
2600
0000
3E00
7F00
E180
C1C0
C0C0
80C0
C0C0
C180
E180
7F00
3E00
ENDCHAR
STARTCHAR 0144
ENCODING 324
SWIDTH 720 0
DWIDTH 15 0
BBX 12 19 2 0
BITMAP
0600
0C00
1800
0000
FFC0
FFE0
C060
C070
C030
C070
C060
FFC0
FFE0
C060
C060
C060
C060
C070
C030
ENDCHAR
STARTCHAR 0145
ENCODING 325
SWIDTH 336 0
DWIDTH 7 0
BBX 6 15 1 0
BITMAP
30
60
40
00
CC
DC
E0
E0
C0
C0
C0
C0
C0
C0
C0
ENDCHAR
STARTCHAR 0146
ENCODING 326
SWIDTH 720 0
DWIDTH 15 0
BBX 13 19 1 -4
BITMAP
7FE0
7FF0
6030
6038
6018
6038
6030
7FE0
7FF0
6030
6030
6030
6030
6038
6018
4000
7000
1000
F000
ENDCHAR
STARTCHAR 0147
ENCODING 327
SWIDTH 336 0
DWIDTH 7 0
BBX 7 15 0 -4
BITMAP
66
6E
70
70
60
60
60
60
60
60
60
20
70
18
F0
ENDCHAR
STARTCHAR 0148
ENCODING 328
SWIDTH 720 0
DWIDTH 15 0
BBX 12 18 2 0
BITMAP
3300
1E00
0C00
FFC0
FFE0
C060
C070
C030
C070
C060
FFC0
FFE0
C060
C060
C060
C060
C070
C030
ENDCHAR
STARTCHAR 0149
ENCODING 329
SWIDTH 336 0
DWIDTH 7 0
BBX 6 15 1 0
BITMAP
C8
58
70
00
CC
DC
E0
E0
C0
C0
C0
C0
C0
C0
C0
ENDCHAR
STARTCHAR 014A
ENCODING 330
SWIDTH 672 0
DWIDTH 14 0
BBX 12 19 1 0
BITMAP
0300
0600
0400
0000
1F80
3FC0
60E0
6060
4060
6000
7E00
3FC0
03E0
0030
C030
C030
6070
7FE0
1F80
ENDCHAR
STARTCHAR 014B
ENCODING 331
SWIDTH 480 0
DWIDTH 10 0
BBX 9 15 1 0
BITMAP
0C00
0C00
1800
0000
3E00
7F00
C300
C000
F000
3F00
0700
C180
C380
FF00
3E00
ENDCHAR
STARTCHAR 014C
ENCODING 332
SWIDTH 672 0
DWIDTH 14 0
BBX 12 19 1 0
BITMAP
0600
0F00
1980
0000
1F80
3FC0
60E0
6060
4060
6000
7E00
3FC0
03E0
0030
C030
C030
6070
7FE0
1F80
ENDCHAR
STARTCHAR 014D
ENCODING 333
SWIDTH 480 0
DWIDTH 10 0
BBX 9 15 1 0
BITMAP
1C00
3400
2600
0000
3E00
7F00
C300
C000
F000
3F00
0700
C180
C380
FF00
3E00
ENDCHAR
STARTCHAR 014E
ENCODING 334
SWIDTH 624 0
DWIDTH 13 0
BBX 12 19 0 -4
BITMAP
FFF0
FFF0
0600
0600
0600
0600
0600
0600
0600
0600
0600
0600
0600
0600
0600
0200
0700
0180
0F00
ENDCHAR
STARTCHAR 014F
ENCODING 335
SWIDTH 288 0
DWIDTH 6 0
BBX 6 18 0 -4
BITMAP
30
30
30
F8
F8
30
30
30
30
30
30
30
38
38
10
1C
04
3C
ENDCHAR
STARTCHAR 0150
ENCODING 336
SWIDTH 624 0
DWIDTH 13 0
BBX 12 19 0 0
BITMAP
0980
0D00
0700
0000
FFF0
FFF0
0600
0600
0600
0600
0600
0600
0600
0600
0600
0600
0600
0600
0600
ENDCHAR
STARTCHAR 0151
ENCODING 337
SWIDTH 384 0
DWIDTH 8 0
BBX 8 17 0 0
BITMAP
07
07
02
32
36
30
F8
F8
30
30
30
30
30
30
30
30
38
ENDCHAR
STARTCHAR 0152
ENCODING 338
SWIDTH 624 0
DWIDTH 13 0
BBX 12 15 0 0
BITMAP
FFF0
FFF0
0600
0600
0600
0600
0600
1FC0
0600
0600
0600
0600
0600
0600
0600
ENDCHAR
STARTCHAR 0153
ENCODING 339
SWIDTH 336 0
DWIDTH 7 0
BBX 6 14 0 0
BITMAP
30
30
30
F8
F8
30
30
FC
30
30
30
30
38
38
ENDCHAR
STARTCHAR 0154
ENCODING 340
SWIDTH 720 0
DWIDTH 15 0
BBX 12 19 2 0
BITMAP
1C80
2700
0000
0000
C070
C070
C070
C070
C070
C070
C070
C070
C060
C060
C060
C060
60E0
7FC0
1F00
ENDCHAR
STARTCHAR 0155
ENCODING 341
SWIDTH 576 0
DWIDTH 12 0
BBX 9 15 1 0
BITMAP
3900
4E00
0000
0000
C180
C180
C180
C180
C180
C180
C180
C180
E380
7F80
3D80
ENDCHAR
STARTCHAR 0156
ENCODING 342
SWIDTH 720 0
DWIDTH 15 0
BBX 12 17 2 0
BITMAP
1F80
0000
C070
C070
C070
C070
C070
C070
C070
C070
C060
C060
C060
C060
60E0
7FC0
1F00
ENDCHAR
STARTCHAR 0157
ENCODING 343
SWIDTH 576 0
DWIDTH 12 0
BBX 9 13 1 0
BITMAP
7F00
0000
C180
C180
C180
C180
C180
C180
C180
C180
E380
7F80
3D80
ENDCHAR
STARTCHAR 0158
ENCODING 344
SWIDTH 720 0
DWIDTH 15 0
BBX 12 20 2 -1
BITMAP
1080
1100
0F00
0000
C070
C070
C070
C070
C070
C070
C070
C070
C070
C060
C060
C060
C060
60E0
7FC0
1F00
ENDCHAR
STARTCHAR 0159
ENCODING 345
SWIDTH 576 0
DWIDTH 12 0
BBX 9 15 1 0
BITMAP
2100
2300
1E00
C180
C180
C180
C180
C180
C180
C180
C180
C180
6380
7F80
3D80
ENDCHAR
STARTCHAR 015A
ENCODING 346
SWIDTH 720 0
DWIDTH 15 0
BBX 12 20 2 0
BITMAP
0600
0900
0900
0900
0600
C070
C070
C070
C070
C070
C070
C070
C070
C060
C060
C060
C060
60E0
7FC0
1F00
ENDCHAR
STARTCHAR 015B
ENCODING 347
SWIDTH 576 0
DWIDTH 12 0
BBX 9 16 1 0
BITMAP
0C00
1200
1200
1200
0C00
C180
C180
C180
C180
C180
C180
C180
C180
E380
7F80
3D80
ENDCHAR
STARTCHAR 015C
ENCODING 348
SWIDTH 720 0
DWIDTH 15 0
BBX 12 19 2 0
BITMAP
0D80
1980
1300
0000
C070
C070
C070
C070
C070
C070
C070
C070
C060
C060
C060
C060
60E0
7FC0
1F00
ENDCHAR
STARTCHAR 015D
ENCODING 349
SWIDTH 576 0
DWIDTH 12 0
BBX 9 15 1 0
BITMAP
1B00
3300
2600
0000
C180
C180
C180
C180
C180
C180
C180
C180
E380
7F80
3D80
ENDCHAR
STARTCHAR 015E
ENCODING 350
SWIDTH 720 0
DWIDTH 15 0
BBX 12 20 2 -5
BITMAP
C070
C070
C070
C070
C070
C070
C070
C070
C060
C060
C060
C060
60E0
7FC0
1F00
0C00
1800
1800
1A00
0E00
ENDCHAR
STARTCHAR 015F
ENCODING 351
SWIDTH 576 0
DWIDTH 12 0
BBX 9 16 1 -5
BITMAP
C180
C180
C180
C180
C180
C180
C180
C180
E380
7F80
3D80
0100
0300
0600
0600
0380
ENDCHAR
STARTCHAR 0160
ENCODING 352
SWIDTH 960 0
DWIDTH 20 0
BBX 18 19 1 0
BITMAP
00C000
01E000
033000
000000
C0C0C0
C1C0C0
C1E0C0
C1E180
636180
633180
633180
633300
363300
361B00
361B00
3C1E00
1C0E00
1C0E00
1C0E00
ENDCHAR
STARTCHAR 0161
ENCODING 353
SWIDTH 720 0
DWIDTH 15 0
BBX 15 15 0 0
BITMAP
0380
06C0
0440
0000
C386
638C
638C
628C
66C8
36D8
34D8
3450
1C70
1C70
1870
ENDCHAR
STARTCHAR 0162
ENCODING 354
SWIDTH 672 0
DWIDTH 14 0
BBX 12 19 1 0
BITMAP
0700
0D00
0980
0000
C030
E070
6060
30E0
30C0
1980
1F80
0F00
0F00
0600
0600
0600
0600
0600
0600
ENDCHAR
STARTCHAR 0163
ENCODING 355
SWIDTH 480 0
DWIDTH 10 0
BBX 10 19 0 -4
BITMAP
0E00
1A00
1300
0000
C0C0
60C0
6180
6180
3180
3300
3300
1B00
1E00
1E00
0C00
0C00
0800
7800
7000
ENDCHAR
STARTCHAR 0164
ENCODING 356
SWIDTH 624 0
DWIDTH 13 0
BBX 12 18 0 0
BITMAP
0180
0180
0300
7FF0
7FF0
0070
00E0
00C0
0180
0300
0700
0E00
1C00
1800
3000
6000
FFF0
FFF0
ENDCHAR
STARTCHAR 0165
ENCODING 357
SWIDTH 480 0
DWIDTH 10 0
BBX 9 15 1 0
BITMAP
0600
0C00
1800
0000
FF00
FF00
0300
0600
0C00
1800
3000
6000
C000
FF80
FF80
ENDCHAR
STARTCHAR 0166
ENCODING 358
SWIDTH 624 0
DWIDTH 13 0
BBX 12 19 0 0
BITMAP
0300
0300
0000
0000
7FF0
7FF0
0070
00E0
00C0
0180
0300
0700
0E00
1C00
1800
3000
6000
FFF0
FFF0
ENDCHAR
STARTCHAR 0167
ENCODING 359
SWIDTH 480 0
DWIDTH 10 0
BBX 9 15 1 0
BITMAP
1800
1800
0000
0000
FF00
FF00
0300
0600
0C00
1800
3000
6000
C000
FF80
FF80
ENDCHAR
STARTCHAR 0168
ENCODING 360
SWIDTH 672 0
DWIDTH 14 0
BBX 12 21 1 -6
BITMAP
1F80
3FC0
70E0
6060
4060
6000
7000
3F80
07E0
0070
C030
C030
E030
7060
3FE0
1F80
0000
0600
0600
0200
0400
ENDCHAR
STARTCHAR 0169
ENCODING 361
SWIDTH 480 0
DWIDTH 10 0
BBX 9 17 1 -6
BITMAP
3C00
7E00
C300
C100
C000
7C00
0F00
0180
C180
C300
FF00
3E00
0000
1800
1800
0800
1000
ENDCHAR
STARTCHAR 016A
ENCODING 362
SWIDTH 624 0
DWIDTH 13 0
BBX 12 21 0 -6
BITMAP
FFF0
FFF0
0600
0600
0600
0600
0600
0600
0600
0600
0600
0600
0600
0600
0600
0000
0600
0600
0200
0200
0400
ENDCHAR
STARTCHAR 016B
ENCODING 363
SWIDTH 288 0
DWIDTH 6 0
BBX 5 20 0 -6
BITMAP
30
30
30
F8
F8
30
30
30
30
30
30
30
30
38
00
30
30
10
20
20
ENDCHAR
STARTCHAR 016C
ENCODING 364
SWIDTH 576 0
DWIDTH 12 0
BBX 9 10 1 2
BITMAP
8080
DE80
7300
4180
C080
C080
4180
6300
DE80
8080
ENDCHAR
STARTCHAR 016D
ENCODING 365
SWIDTH 0 0
DWIDTH 0 0
BBX 3 3 -7 12
BITMAP
C0
40
60
ENDCHAR
STARTCHAR 016E
ENCODING 366
SWIDTH 0 0
DWIDTH 0 0
BBX 4 3 -8 12
BITMAP
30
60
C0
ENDCHAR
STARTCHAR 016F
ENCODING 367
SWIDTH 0 0
DWIDTH 0 0
BBX 5 3 -8 12
BITMAP
70
D0
98
ENDCHAR
STARTCHAR 0170
ENCODING 368
SWIDTH 0 0
DWIDTH 0 0
BBX 7 2 -9 13
BITMAP
E2
9C
ENDCHAR
STARTCHAR 0171
ENCODING 369
SWIDTH 0 0
DWIDTH 0 0
BBX 6 1 -9 13
BITMAP
FC
ENDCHAR
STARTCHAR 0172
ENCODING 370
SWIDTH 0 0
DWIDTH 0 0
BBX 6 3 -9 12
BITMAP
84
C4
78
ENDCHAR
STARTCHAR 0173
ENCODING 371
SWIDTH 0 0
DWIDTH 0 0
BBX 2 2 -7 13
BITMAP
C0
C0
ENDCHAR
STARTCHAR 0174
ENCODING 372
SWIDTH 0 0
DWIDTH 0 0
BBX 5 2 -8 13
BITMAP
98
98
ENDCHAR
STARTCHAR 0175
ENCODING 373
SWIDTH 0 0
DWIDTH 0 0
BBX 4 5 -8 12
BITMAP
60
90
90
90
60
ENDCHAR
STARTCHAR 0176
ENCODING 374
SWIDTH 0 0
DWIDTH 0 0
BBX 6 3 -9 12
BITMAP
6C
CC
98
ENDCHAR
STARTCHAR 0177
ENCODING 375
SWIDTH 0 0
DWIDTH 0 0
BBX 5 3 -8 12
BITMAP
98
D0
70
ENDCHAR
STARTCHAR 0178
ENCODING 376
SWIDTH 0 0
DWIDTH 0 0
BBX 2 6 -7 -7
BITMAP
C0
C0
C0
40
40
80
ENDCHAR
STARTCHAR 0179
ENCODING 377
SWIDTH 0 0
DWIDTH 0 0
BBX 4 4 -8 -4
BITMAP
20
70
10
F0
ENDCHAR
STARTCHAR 017A
ENCODING 378
SWIDTH 0 0
DWIDTH 0 0
BBX 4 5 -8 -5
BITMAP
20
60
C0
C0
70
ENDCHAR
STARTCHAR 017B
ENCODING 379
SWIDTH 0 0
DWIDTH 0 0
BBX 6 15 -9 0
BITMAP
04
0C
0C
08
18
18
10
30
30
20
60
60
40
40
C0
ENDCHAR
STARTCHAR 017C
ENCODING 380
SWIDTH 720 0
DWIDTH 15 0
BBX 14 15 0 0
BITMAP
3FC0
3FF0
3038
3018
301C
300C
FF0C
FF0C
300C
300C
301C
3018
3038
3FF0
3FC0
ENDCHAR
STARTCHAR 017D
ENCODING 381
SWIDTH 768 0
DWIDTH 16 0
BBX 14 22 1 -7
BITMAP
0FC0
1FF0
3870
6018
6018
C000
C000
C1FC
C1FC
C00C
E00C
601C
783C
3FEC
0F8C
0000
0000
0300
0300
0100
0100
0200
ENDCHAR
STARTCHAR 017E
ENCODING 382
SWIDTH 576 0
DWIDTH 12 0
BBX 9 22 1 -4
BITMAP
0400
0800
0800
0C00
0C00
0000
0000
3D80
7F80
E380
C180
C180
C180
C180
C180
E380
7F80
3D80
0180
C380
FF00
3E00
ENDCHAR
STARTCHAR 017F
ENCODING 383
SWIDTH 576 0
DWIDTH 12 0
BBX 9 21 2 -6
BITMAP
C000
C000
C000
C000
C000
C000
C000
C000
C000
C000
C000
C000
C000
FF80
FF80
0000
1800
1800
0800
0800
1800
ENDCHAR
STARTCHAR 0180
ENCODING 384
SWIDTH 240 0
DWIDTH 5 0
BBX 3 21 1 -6
BITMAP
C0
C0
C0
C0
C0
C0
C0
C0
C0
C0
C0
C0
C0
C0
C0
00
E0
E0
20
40
C0
ENDCHAR
STARTCHAR 0181
ENCODING 385
SWIDTH 672 0
DWIDTH 14 0
BBX 11 21 2 -6
BITMAP
C0E0
C1C0
C380
C700
CE00
DC00
FC00
FC00
E600
C700
C380
C180
C1C0
C0E0
C060
0000
1800
1800
0800
0800
1800
ENDCHAR
STARTCHAR 0182
ENCODING 386
SWIDTH 480 0
DWIDTH 10 0
BBX 9 21 1 -6
BITMAP
C000
C000
C000
C000
C380
C700
CE00
DC00
F800
EC00
CC00
C600
C700
C300
C180
0000
1800
1800
0800
0800
1000
ENDCHAR
STARTCHAR 0183
ENCODING 387
SWIDTH 720 0
DWIDTH 15 0
BBX 11 21 2 -6
BITMAP
C020
E020
F020
F020
D820
D820
CC20
CE20
C620
C320
C3A0
C1A0
C0E0
C0E0
C060
0000
0C00
0C00
0400
0400
0800
ENDCHAR
STARTCHAR 0184
ENCODING 388
SWIDTH 576 0
DWIDTH 12 0
BBX 9 17 1 -6
BITMAP
CF00
DF80
E180
E180
C180
C180
C180
C180
C180
C180
C180
0000
0C00
0C00
0400
0800
0800
ENDCHAR
STARTCHAR 0185
ENCODING 389
SWIDTH 720 0
DWIDTH 15 0
BBX 12 21 2 -6
BITMAP
FFC0
FFE0
C060
C070
C030
C070
C060
FFC0
FFE0
C060
C060
C060
C060
C070
C030
0000
0E00
0E00
0200
0400
0C00
ENDCHAR
STARTCHAR 0186
ENCODING 390
SWIDTH 336 0
DWIDTH 7 0
BBX 6 17 1 -6
BITMAP
CC
DC
E0
E0
C0
C0
C0
C0
C0
C0
C0
00
E0
E0
20
40
C0
ENDCHAR
STARTCHAR 0187
ENCODING 391
SWIDTH 192 0
DWIDTH 4 0
BBX 3 19 0 -4
BITMAP
60
60
00
00
60
60
60
60
60
60
60
60
60
60
60
60
60
60
C0
ENDCHAR
STARTCHAR 0188
ENCODING 392
SWIDTH 288 0
DWIDTH 6 0
BBX 2 14 2 -3
BITMAP
C0
C0
00
00
00
00
00
00
00
C0
C0
40
40
80
ENDCHAR
STARTCHAR 0189
ENCODING 393
SWIDTH 336 0
DWIDTH 7 0
BBX 5 2 1 5
BITMAP
F8
F8
ENDCHAR
STARTCHAR 018A
ENCODING 394
SWIDTH 240 0
DWIDTH 5 0
BBX 3 15 0 -4
BITMAP
60
60
60
60
60
60
60
60
60
60
60
60
60
E0
C0
ENDCHAR
STARTCHAR 018B
ENCODING 395
SWIDTH 480 0
DWIDTH 10 0
BBX 9 11 1 0
BITMAP
C380
C700
CE00
DC00
F800
FC00
EC00
C600
C700
C300
C180
ENDCHAR
STARTCHAR 018C
ENCODING 396
SWIDTH 288 0
DWIDTH 6 0
BBX 5 15 0 0
BITMAP
18
38
30
30
F0
30
30
30
30
30
30
30
30
30
30
ENDCHAR
STARTCHAR 018D
ENCODING 397
SWIDTH 576 0
DWIDTH 12 0
BBX 10 12 1 -1
BITMAP
3E00
7F00
E380
C180
C0C0
FFC0
00C0
00C0
C180
6380
7F00
1E00
ENDCHAR
STARTCHAR 018E
ENCODING 398
SWIDTH 576 0
DWIDTH 12 0
BBX 10 12 1 -1
BITMAP
1E00
7F00
6180
C180
00C0
FFC0
C0C0
C1C0
C180
E380
7F00
3E00
ENDCHAR
STARTCHAR 018F
ENCODING 399
SWIDTH 480 0
DWIDTH 10 0
BBX 9 12 1 -1
BITMAP
3C00
7F00
E300
C180
8180
0180
0180
0180
C380
C300
7E00
3C00
ENDCHAR
STARTCHAR 0190
ENCODING 400
SWIDTH 576 0
DWIDTH 12 0
BBX 10 12 1 -1
BITMAP
CF80
FFC0
70C0
60C0
60C0
6180
7E00
6000
60C0
6180
7F80
1E00
ENDCHAR
STARTCHAR 0191
ENCODING 401
SWIDTH 0 0
DWIDTH 0 0
BBX 3 3 -7 13
BITMAP
C0
20
C0
ENDCHAR
STARTCHAR 0192
ENCODING 402
SWIDTH 0 0
DWIDTH 0 0
BBX 7 1 -9 13
BITMAP
FE
ENDCHAR
STARTCHAR 0193
ENCODING 403
SWIDTH 0 0
DWIDTH 0 0
BBX 6 3 -9 12
BITMAP
78
C4
84
ENDCHAR
STARTCHAR 0194
ENCODING 404
SWIDTH 288 0
DWIDTH 6 0
BBX 6 19 0 0
BITMAP
84
C4
78
00
30
30
30
30
30
30
30
30
30
30
30
30
30
30
30
ENDCHAR
STARTCHAR 0195
ENCODING 405
SWIDTH 288 0
DWIDTH 6 0
BBX 6 15 0 0
BITMAP
84
C4
78
00
30
30
30
30
30
30
30
30
30
30
30
ENDCHAR
STARTCHAR 0196
ENCODING 406
SWIDTH 720 0
DWIDTH 15 0
BBX 11 19 2 -4
BITMAP
C020
E020
F020
F020
D820
D820
CC20
C620
C620
C320
C3A0
C1A0
C0E0
C0E0
C060
0020
0020
00E0
00E0
ENDCHAR
STARTCHAR 0197
ENCODING 407
SWIDTH 576 0
DWIDTH 12 0
BBX 9 15 1 -4
BITMAP
CF00
DF80
E180
E180
C180
C180
C180
C180
C180
C180
C180
0180
0180
0380
0300
ENDCHAR
STARTCHAR 0198
ENCODING 408
SWIDTH 0 0
DWIDTH 0 0
BBX 5 3 -8 10
BITMAP
10
38
F0
ENDCHAR
STARTCHAR 0199
ENCODING 409
SWIDTH 672 0
DWIDTH 14 0
BBX 13 15 1 0
BITMAP
0700
0F00
0F00
0D80
1980
1980
18C0
30C0
30C0
7FE0
7FE0
6070
E030
C030
C038
ENDCHAR
STARTCHAR 019A
ENCODING 410
SWIDTH 672 0
DWIDTH 14 0
BBX 11 15 2 0
BITMAP
FFC0
FFC0
C000
C000
C000
C000
FF00
FFC0
C0C0
C060
C060
C060
C0C0
FFC0
FF80
ENDCHAR
STARTCHAR 019B
ENCODING 411
SWIDTH 672 0
DWIDTH 14 0
BBX 11 15 2 0
BITMAP
FF00
FFC0
C0C0
C0C0
C0C0
C0C0
FF80
FFC0
C0E0
C060
C060
C060
C0E0
FFC0
FF00
ENDCHAR
STARTCHAR 019C
ENCODING 412
SWIDTH 528 0
DWIDTH 11 0
BBX 8 15 2 0
BITMAP
FF
FF
C0
C0
C0
C0
C0
C0
C0
C0
C0
C0
C0
C0
C0
ENDCHAR
STARTCHAR 019D
ENCODING 413
SWIDTH 720 0
DWIDTH 15 0
BBX 15 18 0 -3
BITMAP
1FF8
1FF8
1818
1818
1818
1818
1818
1818
1818
1818
1818
3018
3018
FFFE
FFFE
C006
C006
C006
ENDCHAR
STARTCHAR 019E
ENCODING 414
SWIDTH 672 0
DWIDTH 14 0
BBX 11 15 2 0
BITMAP
FFC0
FFC0
C000
C000
C000
C000
FFC0
FFC0
C000
C000
C000
C000
C000
FFE0
FFE0
ENDCHAR
STARTCHAR 019F
ENCODING 415
SWIDTH 1008 0
DWIDTH 21 0
BBX 19 15 1 0
BITMAP
C0C0E0
E0C0C0
70C180
38C380
1CC700
0ECE00
07FC00
07FC00
0ECE00
1CC600
18C300
30C380
70C1C0
E0C0C0
C0C0E0
ENDCHAR
STARTCHAR 01A0
ENCODING 416
SWIDTH 672 0
DWIDTH 14 0
BBX 12 15 1 0
BITMAP
1F80
7FE0
7060
C060
C060
0060
0FC0
0FE0
0070
0030
C030
C030
E070
7FE0
1F80
ENDCHAR
STARTCHAR 01A1
ENCODING 417
SWIDTH 720 0
DWIDTH 15 0
BBX 12 15 2 0
BITMAP
C070
C0F0
C0F0
C1F0
C370
C370
C670
CE70
CC70
D870
D870
F070
E070
E070
C070
ENDCHAR
STARTCHAR 01A2
ENCODING 418
SWIDTH 720 0
DWIDTH 15 0
BBX 12 19 2 0
BITMAP
3180
3180
1F00
0000
C070
C0F0
C0F0
C1F0
C370
C370
C670
CE70
CC70
D870
D870
F070
E070
E070
C070
ENDCHAR
STARTCHAR 01A3
ENCODING 419
SWIDTH 672 0
DWIDTH 14 0
BBX 11 15 2 0
BITMAP
C0E0
C1C0
C380
C700
CE00
DC00
FC00
FC00
E600
C700
C380
C180
C1C0
C0E0
C060
ENDCHAR
STARTCHAR 01A4
ENCODING 420
SWIDTH 672 0
DWIDTH 14 0
BBX 13 15 0 0
BITMAP
1FF8
1FF8
1818
1818
1818
1818
1818
1818
1818
1818
1818
1818
3018
F018
E018
ENDCHAR
STARTCHAR 01A5
ENCODING 421
SWIDTH 816 0
DWIDTH 17 0
BBX 14 15 2 0
BITMAP
E01C
E03C
A03C
B03C
B06C
906C
986C
98CC
88CC
8CCC
8D8C
858C
878C
870C
830C
ENDCHAR
STARTCHAR 01A6
ENCODING 422
SWIDTH 720 0
DWIDTH 15 0
BBX 12 15 2 0
BITMAP
C070
C070
C070
C070
C070
C070
FFF0
FFF0
C070
C070
C070
C070
C070
C070
C070
ENDCHAR
STARTCHAR 01A7
ENCODING 423
SWIDTH 768 0
DWIDTH 16 0
BBX 14 15 1 0
BITMAP
0FC0
3FF0
7838
6018
E00C
C00C
C00C
C00C
C00C
C00C
C00C
6018
7838
3FF0
0FC0
ENDCHAR
STARTCHAR 01A8
ENCODING 424
SWIDTH 720 0
DWIDTH 15 0
BBX 12 15 2 0
BITMAP
FFF0
FFF0
C070
C070
C070
C070
C070
C070
C070
C070
C070
C070
C070
C070
C070
ENDCHAR
STARTCHAR 01A9
ENCODING 425
SWIDTH 672 0
DWIDTH 14 0
BBX 11 15 2 0
BITMAP
FF00
FFC0
C0C0
C0E0
C060
C0E0
C0C0
FFC0
FF00
C000
C000
C000
C000
C000
C000
ENDCHAR
STARTCHAR 01AA
ENCODING 426
SWIDTH 720 0
DWIDTH 15 0
BBX 13 15 1 0
BITMAP
0FC0
3FE0
7870
6038
C018
C000
C000
C000
C000
C018
C018
6030
7070
3FE0
0F80
ENDCHAR
STARTCHAR 01AB
ENCODING 427
SWIDTH 624 0
DWIDTH 13 0
BBX 12 15 0 0
BITMAP
FFF0
FFF0
0600
0600
0600
0600
0600
0600
0600
0600
0600
0600
0600
0600
0600
ENDCHAR
STARTCHAR 01AC
ENCODING 428
SWIDTH 672 0
DWIDTH 14 0
BBX 13 15 1 0
BITMAP
C038
E030
6030
7060
3060
38C0
18C0
1CC0
0D80
0780
0700
0300
0600
3E00
3C00
ENDCHAR
STARTCHAR 01AD
ENCODING 429
SWIDTH 864 0
DWIDTH 18 0
BBX 16 15 1 0
BITMAP
0180
0FF0
3FFC
718E
E187
C183
C183
C183
C183
C183
E187
718E
3FFC
0FF0
0180
ENDCHAR
STARTCHAR 01AE
ENCODING 430
SWIDTH 672 0
DWIDTH 14 0
BBX 12 15 1 0
BITMAP
C070
6060
70C0
31C0
1980
1F00
0F00
0600
0F00
1F80
3980
30C0
70E0
E060
C030
ENDCHAR
STARTCHAR 01AF
ENCODING 431
SWIDTH 720 0
DWIDTH 15 0
BBX 13 18 2 -3
BITMAP
C070
C070
C070
C070
C070
C070
C070
C070
C070
C070
C070
C070
C070
FFF8
FFF8
0018
0018
0018
ENDCHAR
STARTCHAR 01B0
ENCODING 432
SWIDTH 672 0
DWIDTH 14 0
BBX 11 15 1 0
BITMAP
C060
C060
C060
C060
C060
C060
C060
E060
7FE0
3F60
0060
0060
0060
0060
0060
ENDCHAR
STARTCHAR 01B1
ENCODING 433
SWIDTH 960 0
DWIDTH 20 0
BBX 16 15 2 0
BITMAP
C183
C183
C183
C183
C183
C183
C183
C183
C183
C183
C183
C183
C183
FFFF
FFFF
ENDCHAR
STARTCHAR 01B2
ENCODING 434
SWIDTH 960 0
DWIDTH 20 0
BBX 18 18 2 -3
BITMAP
C18300
C18300
C18300
C18300
C18300
C18300
C18300
C18300
C18300
C18300
C18300
C18300
C18300
FFFFC0
FFFFC0
0000C0
0000C0
0000C0
ENDCHAR
STARTCHAR 01B3
ENCODING 435
SWIDTH 816 0
DWIDTH 17 0
BBX 17 15 0 0
BITMAP
FE0000
FE0000
060000
060000
060000
060000
07FC00
07FF00
060700
060300
060380
060300
060300
07FF00
07FC00
ENDCHAR
STARTCHAR 01B4
ENCODING 436
SWIDTH 864 0
DWIDTH 18 0
BBX 15 15 2 0
BITMAP
C006
C006
C006
C006
C006
C006
FF06
FFC6
C0C6
C0E6
C066
C0E6
C0C6
FFC6
FF06
ENDCHAR
STARTCHAR 01B5
ENCODING 437
SWIDTH 672 0
DWIDTH 14 0
BBX 11 15 2 0
BITMAP
C000
C000
C000
C000
C000
C000
FF00
FFC0
C0C0
C0E0
C060
C0E0
C0C0
FFC0
FF00
ENDCHAR
STARTCHAR 01B6
ENCODING 438
SWIDTH 720 0
DWIDTH 15 0
BBX 13 15 1 0
BITMAP
0F80
3FE0
7070
6030
C018
0018
07F8
07F8
0018
C018
C018
6030
7070
3FE0
0F80
ENDCHAR
STARTCHAR 01B7
ENCODING 439
SWIDTH 1008 0
DWIDTH 21 0
BBX 18 16 2 0
BITMAP
C00000
C0FC00
C3FF00
C78780
C60180
CE01C0
CC00C0
FC00C0
FC00C0
CC00C0
CC00C0
CE01C0
C60180
C38700
C3FE00
C0FC00
ENDCHAR
STARTCHAR 01B8
ENCODING 440
SWIDTH 720 0
DWIDTH 15 0
BBX 12 15 1 0
BITMAP
1FF0
7FF0
6030
6030
6030
6030
6030
3FF0
3FF0
7030
6030
6030
6030
6030
E030
ENDCHAR
STARTCHAR 01B9
ENCODING 441
SWIDTH 576 0
DWIDTH 12 0
BBX 10 12 1 -1
BITMAP
3E00
7F80
6180
C180
0180
1F80
6180
C180
C180
C380
FFC0
78C0
ENDCHAR
STARTCHAR 01BA
ENCODING 442
SWIDTH 576 0
DWIDTH 12 0
BBX 10 16 1 -1
BITMAP
1F80
3F00
6000
4000
DE00
A180
C180
C0C0
C0C0
C0C0
C0C0
C0C0
C180
6180
7F00
1E00
ENDCHAR
STARTCHAR 01BB
ENCODING 443
SWIDTH 528 0
DWIDTH 11 0
BBX 10 11 1 0
BITMAP
FF00
FF80
C180
C180
C180
FF00
C180
C0C0
C180
FF80
FF00
ENDCHAR
STARTCHAR 01BC
ENCODING 444
SWIDTH 384 0
DWIDTH 8 0
BBX 7 11 1 0
BITMAP
FE
FE
C0
C0
C0
C0
C0
C0
C0
C0
C0
ENDCHAR
STARTCHAR 01BD
ENCODING 445
SWIDTH 624 0
DWIDTH 13 0
BBX 12 14 0 -3
BITMAP
1FE0
1FE0
1860
1860
1860
1860
1060
3060
3060
3060
FFF0
FFF0
C030
C030
ENDCHAR
STARTCHAR 01BE
ENCODING 446
SWIDTH 576 0
DWIDTH 12 0
BBX 10 12 1 -1
BITMAP
1E00
7F80
6180
C0C0
C0C0
FFC0
C000
C000
C0C0
6180
7F00
1E00
ENDCHAR
STARTCHAR 01BF
ENCODING 447
SWIDTH 768 0
DWIDTH 16 0
BBX 15 11 1 0
BITMAP
C30C
630C
6318
3330
1B60
0FE0
1B70
3330
6318
E30C
C30E
ENDCHAR
STARTCHAR 01C0
ENCODING 448
SWIDTH 480 0
DWIDTH 10 0
BBX 9 12 1 -1
BITMAP
3E00
7F00
E300
C300
1E00
1F00
0380
0180
C180
C300
7F00
3C00
ENDCHAR
STARTCHAR 01C1
ENCODING 449
SWIDTH 576 0
DWIDTH 12 0
BBX 10 11 1 0
BITMAP
C1C0
C1C0
C3C0
C6C0
C6C0
CCC0
C8C0
D8C0
F0C0
E0C0
E0C0
ENDCHAR
STARTCHAR 01C2
ENCODING 450
SWIDTH 576 0
DWIDTH 12 0
BBX 10 15 1 0
BITMAP
2180
3300
1E00
0000
C1C0
C1C0
C3C0
C6C0
C6C0
CCC0
C8C0
D8C0
F0C0
E0C0
E0C0
ENDCHAR
STARTCHAR 01C3
ENCODING 451
SWIDTH 528 0
DWIDTH 11 0
BBX 10 11 1 0
BITMAP
C1C0
C380
C700
CE00
D800
FC00
EC00
C600
C300
C180
C1C0
ENDCHAR
STARTCHAR 01C4
ENCODING 452
SWIDTH 576 0
DWIDTH 12 0
BBX 11 11 0 0
BITMAP
1FE0
1FE0
1860
1060
1060
1060
3060
3060
3060
F060
E060
ENDCHAR
STARTCHAR 01C5
ENCODING 453
SWIDTH 672 0
DWIDTH 14 0
BBX 12 11 1 0
BITMAP
E070
F0F0
F0F0
D0B0
D9B0
D9B0
C930
C930
CF30
C630
C630
ENDCHAR
STARTCHAR 01C6
ENCODING 454
SWIDTH 576 0
DWIDTH 12 0
BBX 9 11 1 0
BITMAP
C180
C180
C180
C180
FF80
FF80
C180
C180
C180
C180
C180
ENDCHAR
STARTCHAR 01C7
ENCODING 455
SWIDTH 576 0
DWIDTH 12 0
BBX 10 12 1 -1
BITMAP
3E00
7F00
E180
C1C0
C0C0
C0C0
C0C0
C0C0
C180
E180
7F00
3E00
ENDCHAR
STARTCHAR 01C8
ENCODING 456
SWIDTH 576 0
DWIDTH 12 0
BBX 9 11 1 0
BITMAP
FF80
FF80
C180
C180
C180
C180
C180
C180
C180
C180
C180
ENDCHAR
STARTCHAR 01C9
ENCODING 457
SWIDTH 576 0
DWIDTH 12 0
BBX 10 15 1 -4
BITMAP
0E00
DF80
E180
E1C0
C0C0
C0C0
C0C0
C0C0
E1C0
E180
FF80
DE00
C000
C000
C000
ENDCHAR
STARTCHAR 01CA
ENCODING 458
SWIDTH 480 0
DWIDTH 10 0
BBX 9 12 1 -1
BITMAP
1E00
7F00
6380
C180
C000
C000
C000
C000
C180
E380
7F00
3E00
ENDCHAR
STARTCHAR 01CB
ENCODING 459
SWIDTH 480 0
DWIDTH 10 0
BBX 9 11 1 0
BITMAP
FF80
FF80
1800
1800
1800
1800
1800
1800
1800
1800
1800
ENDCHAR
STARTCHAR 01CC
ENCODING 460
SWIDTH 480 0
DWIDTH 10 0
BBX 10 16 0 -5
BITMAP
C0C0
60C0
6180
6180
3180
3300
1300
1B00
1E00
0E00
0C00
0C00
0C00
1800
7800
7000
ENDCHAR
STARTCHAR 01CD
ENCODING 461
SWIDTH 816 0
DWIDTH 17 0
BBX 16 19 1 -4
BITMAP
0180
0180
0180
0180
39B8
7DFC
E3C6
C386
C183
C183
C183
C183
C186
E38E
7DFC
3DB8
0180
0180
0180
ENDCHAR
STARTCHAR 01CE
ENCODING 462
SWIDTH 480 0
DWIDTH 10 0
BBX 9 11 1 0
BITMAP
C380
E300
6600
3600
3C00
1800
3C00
3E00
6600
C300
C180
ENDCHAR
STARTCHAR 01CF
ENCODING 463
SWIDTH 576 0
DWIDTH 12 0
BBX 11 14 1 -3
BITMAP
C180
C180
C180
C180
C180
C180
C180
C180
C180
C380
FFE0
FFE0
0060
0060
ENDCHAR
STARTCHAR 01D0
ENCODING 464
SWIDTH 528 0
DWIDTH 11 0
BBX 9 11 1 0
BITMAP
C180
C180
C180
C180
C180
FF80
3F80
0180
0180
0180
0180
ENDCHAR
STARTCHAR 01D1
ENCODING 465
SWIDTH 768 0
DWIDTH 16 0
BBX 14 11 1 0
BITMAP
C30C
C30C
C30C
C30C
C30C
C30C
C30C
C30C
C30C
FFFC
FFFC
ENDCHAR
STARTCHAR 01D2
ENCODING 466
SWIDTH 816 0
DWIDTH 17 0
BBX 15 14 1 -3
BITMAP
C30C
C30C
C30C
C30C
C30C
C30C
C30C
C30C
C30C
C71C
FFFE
FFFE
0006
0006
ENDCHAR
STARTCHAR 01D3
ENCODING 467
SWIDTH 624 0
DWIDTH 13 0
BBX 12 11 0 0
BITMAP
FC00
FC00
0C00
0C00
0FE0
0FF0
0C30
0C30
0C30
0FF0
0FE0
ENDCHAR
STARTCHAR 01D4
ENCODING 468
SWIDTH 720 0
DWIDTH 15 0
BBX 13 11 1 0
BITMAP
C018
C018
C018
C018
FF18
FF98
C198
C198
C198
FF98
FF18
ENDCHAR
STARTCHAR 01D5
ENCODING 469
SWIDTH 480 0
DWIDTH 10 0
BBX 9 11 1 0
BITMAP
C000
C000
C000
C000
FE00
FF80
C180
C180
C180
FF80
FE00
ENDCHAR
STARTCHAR 01D6
ENCODING 470
SWIDTH 528 0
DWIDTH 11 0
BBX 9 12 1 -1
BITMAP
3C00
7E00
C300
C180
0180
1F80
1F80
0180
C180
C300
7E00
3C00
ENDCHAR
STARTCHAR 01D7
ENCODING 471
SWIDTH 768 0
DWIDTH 16 0
BBX 14 12 1 -1
BITMAP
C1F0
C3F8
C71C
C60C
CC0C
FC04
CC04
C40C
C60C
C71C
C3F8
01F0
ENDCHAR
STARTCHAR 01D8
ENCODING 472
SWIDTH 576 0
DWIDTH 12 0
BBX 9 11 1 0
BITMAP
3F80
7F80
C180
C180
C180
7F80
7F80
6180
C180
C180
C180
ENDCHAR
STARTCHAR 01D9
ENCODING 473
SWIDTH 672 0
DWIDTH 14 0
BBX 11 18 2 0
BITMAP
3300
3300
0000
FFC0
FFC0
C000
C000
C000
C000
FFC0
FFC0
C000
C000
C000
C000
C000
FFE0
FFE0
ENDCHAR
STARTCHAR 01DA
ENCODING 474
SWIDTH 576 0
DWIDTH 12 0
BBX 10 15 1 0
BITMAP
3200
3200
0000
0000
1E00
7F80
6180
C0C0
C0C0
FFC0
C000
C0C0
E180
7F00
3E00
ENDCHAR
STARTCHAR 01DB
ENCODING 475
SWIDTH 528 0
DWIDTH 11 0
BBX 8 19 2 0
BITMAP
0C
0C
18
00
FF
FF
C0
C0
C0
C0
C0
C0
C0
C0
C0
C0
C0
C0
C0
ENDCHAR
STARTCHAR 01DC
ENCODING 476
SWIDTH 384 0
DWIDTH 8 0
BBX 7 15 1 0
BITMAP
0C
08
10
00
FE
FE
C0
C0
C0
C0
C0
C0
C0
C0
C0
ENDCHAR
STARTCHAR 01DD
ENCODING 477
SWIDTH 288 0
DWIDTH 6 0
BBX 2 15 2 0
BITMAP
C0
C0
C0
C0
C0
C0
C0
C0
C0
C0
C0
C0
C0
C0
C0
ENDCHAR
STARTCHAR 01DE
ENCODING 478
SWIDTH 240 0
DWIDTH 5 0
BBX 2 15 1 0
BITMAP
C0
C0
00
00
C0
C0
C0
C0
C0
C0
C0
C0
C0
C0
C0
ENDCHAR
STARTCHAR 01DF
ENCODING 479
SWIDTH 480 0
DWIDTH 10 0
BBX 9 15 0 0
BITMAP
0180
0180
0180
0180
0180
0180
0180
0180
0180
0180
C180
C180
6380
7F00
3E00
ENDCHAR
STARTCHAR 01E0
ENCODING 480
SWIDTH 720 0
DWIDTH 15 0
BBX 13 15 1 0
BITMAP
0FC0
3FE0
7070
6038
C018
C000
FF00
FF00
C000
C018
E018
6030
7870
3FE0
0F80
ENDCHAR
STARTCHAR 01E1
ENCODING 481
SWIDTH 480 0
DWIDTH 10 0
BBX 9 12 1 -1
BITMAP
3E00
7F00
E380
C180
C000
F800
F800
C000
C180
E380
7F00
3E00
ENDCHAR
STARTCHAR 01E2
ENCODING 482
SWIDTH 288 0
DWIDTH 6 0
BBX 6 18 0 0
BITMAP
CC
CC
00
30
30
30
30
30
30
30
30
30
30
30
30
30
30
30
ENDCHAR
STARTCHAR 01E3
ENCODING 483
SWIDTH 240 0
DWIDTH 5 0
BBX 5 15 0 0
BITMAP
D8
D8
00
00
30
30
30
30
30
30
30
30
30
30
30
ENDCHAR
STARTCHAR 01E4
ENCODING 484
SWIDTH 1008 0
DWIDTH 21 0
BBX 20 15 0 0
BITMAP
1FF000
1FF000
183000
183000
183000
183000
183FC0
183FE0
183070
183030
183030
183030
303070
F03FE0
E03FC0
ENDCHAR
STARTCHAR 01E5
ENCODING 485
SWIDTH 864 0
DWIDTH 18 0
BBX 17 11 0 0
BITMAP
1FC000
1FC000
184000
104000
107E00
107F00
304180
304180
304180
F07F00
E07E00
ENDCHAR
STARTCHAR 01E6
ENCODING 486
SWIDTH 1008 0
DWIDTH 21 0
BBX 18 15 2 0
BITMAP
C0C000
C0C000
C0C000
C0C000
C0C000
C0C000
FFFE00
FFFF80
C0C180
C0C1C0
C0C0C0
C0C1C0
C0C180
C0FF80
C0FE00
ENDCHAR
STARTCHAR 01E7
ENCODING 487
SWIDTH 816 0
DWIDTH 17 0
BBX 16 11 1 0
BITMAP
C180
C180
C180
C180
FFFC
FFFE
C186
C183
C186
C1FE
C1FC
ENDCHAR
STARTCHAR 01E8
ENCODING 488
SWIDTH 240 0
DWIDTH 5 0
BBX 3 19 0 -4
BITMAP
60
60
00
60
60
60
60
60
60
60
60
60
60
60
60
60
60
E0
C0
ENDCHAR
STARTCHAR 01E9
ENCODING 489
SWIDTH 672 0
DWIDTH 14 0
BBX 12 15 1 0
BITMAP
1F80
3FC0
60E0
6060
4060
6000
3C00
0F80
00E0
0030
C030
C030
7070
3FE0
1F80
ENDCHAR
STARTCHAR 01EA
ENCODING 490
SWIDTH 768 0
DWIDTH 16 0
BBX 14 15 1 0
BITMAP
FFE0
FFE0
0C00
0C00
0C00
0C00
0FF0
0FF8
0C1C
0C0C
0C0C
0C0C
0C0C
0C0C
0C0C
ENDCHAR
STARTCHAR 01EB
ENCODING 491
SWIDTH 576 0
DWIDTH 12 0
BBX 10 15 0 0
BITMAP
3000
3000
3000
FF80
FF80
3000
3780
3FC0
38C0
3040
3040
3040
3040
3040
3040
ENDCHAR
STARTCHAR 01EC
ENCODING 492
SWIDTH 672 0
DWIDTH 14 0
BBX 11 19 2 0
BITMAP
0600
0C00
0800
0000
C0E0
C1C0
C380
C700
CE00
DC00
FC00
FC00
E600
C700
C380
C180
C1C0
C0E0
C060
ENDCHAR
STARTCHAR 01ED
ENCODING 493
SWIDTH 528 0
DWIDTH 11 0
BBX 10 15 1 0
BITMAP
0600
0400
0800
0000
C0C0
C380
C700
CE00
DC00
F800
EC00
C600
C300
C180
C1C0
ENDCHAR
STARTCHAR 01EE
ENCODING 494
SWIDTH 480 0
DWIDTH 10 0
BBX 9 12 1 -1
BITMAP
3E00
7F00
C300
C000
C000
7800
0F00
0180
C180
C380
7F00
3E00
ENDCHAR
STARTCHAR 01EF
ENCODING 495
SWIDTH 768 0
DWIDTH 16 0
BBX 15 19 0 -4
BITMAP
FFF0
FFF0
0E00
0E00
0E00
0E00
0FF0
0FFC
0E0C
0E0E
0E06
0E06
0E06
0E06
0E0E
000C
0018
00F0
00E0
ENDCHAR
STARTCHAR 01F0
ENCODING 496
SWIDTH 576 0
DWIDTH 12 0
BBX 11 19 0 -4
BITMAP
3000
3000
3000
FF80
FF80
3000
3780
3FC0
38C0
30C0
3060
3060
3060
3060
3040
00C0
00C0
0380
0300
ENDCHAR
STARTCHAR 01F1
ENCODING 497
SWIDTH 672 0
DWIDTH 14 0
BBX 12 19 1 0
BITMAP
10C0
18C0
0F80
0000
C030
E030
6060
3060
3060
18C0
18C0
0D80
0D80
0780
0700
0300
0600
3E00
3C00
ENDCHAR
STARTCHAR 01F2
ENCODING 498
SWIDTH 480 0
DWIDTH 10 0
BBX 10 20 0 -5
BITMAP
2180
3300
1E00
0000
C0C0
60C0
6180
6180
3180
3300
3300
1B00
1E00
0E00
0C00
0C00
0C00
1800
7800
7000
ENDCHAR
STARTCHAR 01F3
ENCODING 499
SWIDTH 720 0
DWIDTH 15 0
BBX 12 18 2 -3
BITMAP
C070
C070
C070
C070
C070
C070
C070
C070
C070
C070
C070
C070
C070
FFF0
FFF0
0600
0600
0600
ENDCHAR
STARTCHAR 01F4
ENCODING 500
SWIDTH 576 0
DWIDTH 12 0
BBX 9 14 1 -3
BITMAP
C180
C180
C180
C180
C180
C180
C180
C180
C180
C180
FF80
FF80
0C00
0C00
ENDCHAR
STARTCHAR 01F5
ENCODING 501
SWIDTH 576 0
DWIDTH 12 0
BBX 9 18 2 0
BITMAP
0180
0180
0180
FF80
FF80
C000
C000
C000
C000
C000
C000
C000
C000
C000
C000
C000
C000
C000
ENDCHAR
STARTCHAR 01F6
ENCODING 502
SWIDTH 384 0
DWIDTH 8 0
BBX 7 13 1 0
BITMAP
06
06
FE
FE
C0
C0
C0
C0
C0
C0
C0
C0
C0
ENDCHAR
STARTCHAR 01F7
ENCODING 503
SWIDTH 0 0
DWIDTH 0 0
BBX 2 5 -7 10
BITMAP
40
80
80
C0
C0
ENDCHAR
STARTCHAR 01F8
ENCODING 504
SWIDTH 0 0
DWIDTH 0 0
BBX 2 5 -7 10
BITMAP
C0
C0
40
40
80
ENDCHAR
STARTCHAR 01F9
ENCODING 505
SWIDTH 0 0
DWIDTH 0 0
BBX 2 5 -7 10
BITMAP
C0
C0
40
40
80
ENDCHAR
STARTCHAR 01FA
ENCODING 506
SWIDTH 0 0
DWIDTH 0 0
BBX 2 5 -7 10
BITMAP
C0
C0
80
80
40
ENDCHAR
STARTCHAR 01FB
ENCODING 507
SWIDTH 0 0
DWIDTH 0 0
BBX 6 3 -9 12
BITMAP
DC
6C
24
ENDCHAR
STARTCHAR 01FC
ENCODING 508
SWIDTH 0 0
DWIDTH 0 0
BBX 1 3 -6 12
BITMAP
80
80
80
ENDCHAR
STARTCHAR 01FD
ENCODING 509
SWIDTH 0 0
DWIDTH 0 0
BBX 3 3 -7 12
BITMAP
A0
A0
A0
ENDCHAR
STARTCHAR 01FE
ENCODING 510
SWIDTH 0 0
DWIDTH 0 0
BBX 6 4 -9 13
BITMAP
30
B4
C4
78
ENDCHAR
STARTCHAR 01FF
ENCODING 511
SWIDTH 0 0
DWIDTH 0 0
BBX 3 3 -7 -4
BITMAP
C0
40
60
ENDCHAR
STARTCHAR 0200
ENCODING 512
SWIDTH 0 0
DWIDTH 0 0
BBX 4 3 -8 -4
BITMAP
30
60
C0
ENDCHAR
STARTCHAR 0201
ENCODING 513
SWIDTH 0 0
DWIDTH 0 0
BBX 6 1 -9 -3
BITMAP
FC
ENDCHAR
STARTCHAR 0202
ENCODING 514
SWIDTH 0 0
DWIDTH 0 0
BBX 2 2 -7 -4
BITMAP
C0
C0
ENDCHAR
STARTCHAR 0203
ENCODING 515
SWIDTH 0 0
DWIDTH 0 0
BBX 5 2 -8 -4
BITMAP
98
98
ENDCHAR
STARTCHAR 0204
ENCODING 516
SWIDTH 0 0
DWIDTH 0 0
BBX 4 4 -8 -4
BITMAP
70
90
90
70
ENDCHAR
STARTCHAR 0205
ENCODING 517
SWIDTH 0 0
DWIDTH 0 0
BBX 1 4 -6 -5
BITMAP
80
80
80
80
ENDCHAR
STARTCHAR 0206
ENCODING 518
SWIDTH 0 0
DWIDTH 0 0
BBX 5 3 -8 -4
BITMAP
98
D0
70
ENDCHAR
STARTCHAR 0207
ENCODING 519
SWIDTH 0 0
DWIDTH 0 0
BBX 5 3 -8 -4
BITMAP
70
D0
98
ENDCHAR
STARTCHAR 0208
ENCODING 520
SWIDTH 0 0
DWIDTH 0 0
BBX 6 3 -9 -4
BITMAP
84
C4
78
ENDCHAR
STARTCHAR 0209
ENCODING 521
SWIDTH 0 0
DWIDTH 0 0
BBX 6 3 -9 -4
BITMAP
78
C4
84
ENDCHAR
STARTCHAR 020A
ENCODING 522
SWIDTH 0 0
DWIDTH 0 0
BBX 7 3 -9 -4
BITMAP
02
E4
9C
ENDCHAR
STARTCHAR 020B
ENCODING 523
SWIDTH 0 0
DWIDTH 0 0
BBX 6 1 -9 -3
BITMAP
FC
ENDCHAR
STARTCHAR 020C
ENCODING 524
SWIDTH 0 0
DWIDTH 0 0
BBX 7 1 -9 -3
BITMAP
FE
ENDCHAR
STARTCHAR 020D
ENCODING 525
SWIDTH 0 0
DWIDTH 0 0
BBX 7 2 -9 5
BITMAP
02
FC
ENDCHAR
STARTCHAR 020E
ENCODING 526
SWIDTH 0 0
DWIDTH 0 0
BBX 6 1 -9 5
BITMAP
FC
ENDCHAR
STARTCHAR 020F
ENCODING 527
SWIDTH 0 0
DWIDTH 0 0
BBX 7 1 -9 5
BITMAP
FE
ENDCHAR
STARTCHAR 0210
ENCODING 528
SWIDTH 0 0
DWIDTH 0 0
BBX 7 3 -9 -5
BITMAP
FE
00
FE
ENDCHAR
STARTCHAR 0211
ENCODING 529
SWIDTH 0 0
DWIDTH 0 0
BBX 2 7 -7 10
BITMAP
40
C0
C0
C0
40
40
80
ENDCHAR
STARTCHAR 0212
ENCODING 530
SWIDTH 0 0
DWIDTH 0 0
BBX 7 3 -9 11
BITMAP
FE
00
FE
ENDCHAR
STARTCHAR 0213
ENCODING 531
SWIDTH 0 0
DWIDTH 0 0
BBX 2 5 -7 10
BITMAP
C0
C0
40
40
80
ENDCHAR
STARTCHAR 0214
ENCODING 532
SWIDTH 0 0
DWIDTH 0 0
BBX 6 3 -9 12
BITMAP
78
C4
84
ENDCHAR
STARTCHAR 0215
ENCODING 533
SWIDTH 0 0
DWIDTH 0 0
BBX 6 3 -9 12
BITMAP
10
B4
20
ENDCHAR
STARTCHAR 0216
ENCODING 534
SWIDTH 0 0
DWIDTH 0 0
BBX 3 3 -7 -5
BITMAP
A0
A0
A0
ENDCHAR
STARTCHAR 0217
ENCODING 535
SWIDTH 0 0
DWIDTH 0 0
BBX 0 0 0 0
BITMAP
ENDCHAR
STARTCHAR 0218
ENCODING 536
SWIDTH 288 0
DWIDTH 6 0
BBX 5 15 0 -4
BITMAP
30
30
30
30
30
30
30
30
30
30
F8
30
30
F0
E0
ENDCHAR
STARTCHAR 0219
ENCODING 537
SWIDTH 576 0
DWIDTH 12 0
BBX 9 15 1 -4
BITMAP
C180
C180
C180
C180
C180
C180
C180
C180
C180
6380
7F80
3D80
0180
0180
0180
ENDCHAR
STARTCHAR 021A
ENCODING 538
SWIDTH 816 0
DWIDTH 17 0
BBX 15 11 1 0
BITMAP
C186
C186
C186
C186
C186
C186
C186
C186
E38E
7FFE
3CF6
ENDCHAR
STARTCHAR 021B
ENCODING 539
SWIDTH 336 0
DWIDTH 7 0
BBX 6 11 1 0
BITMAP
0C
0C
0C
0C
0C
0C
0C
0C
1C
FC
EC
ENDCHAR
STARTCHAR 021C
ENCODING 540
SWIDTH 816 0
DWIDTH 17 0
BBX 15 15 1 -4
BITMAP
C186
C186
C186
C186
C186
C186
C186
C186
E38E
7FFE
3CF6
0006
0006
0006
0006
ENDCHAR
STARTCHAR 021D
ENCODING 541
SWIDTH 336 0
DWIDTH 7 0
BBX 6 14 1 -3
BITMAP
CC
FC
E0
C0
C0
C0
C0
C0
C0
C0
C0
C0
C0
C0
ENDCHAR
STARTCHAR 021E
ENCODING 542
SWIDTH 336 0
DWIDTH 7 0
BBX 6 15 1 0
BITMAP
0C
0C
0C
0C
0C
0C
0C
0C
0C
0C
0C
0C
1C
FC
EC
ENDCHAR
STARTCHAR 021F
ENCODING 543
SWIDTH 528 0
DWIDTH 11 0
BBX 9 11 1 0
BITMAP
3E00
7F00
C300
C180
6000
3800
C000
C000
C180
C300
3E00
ENDCHAR
STARTCHAR 0220
ENCODING 544
SWIDTH 528 0
DWIDTH 11 0
BBX 9 11 1 0
BITMAP
3E00
7F00
6300
C100
0300
1E00
0300
0180
C180
E380
3E00
ENDCHAR
STARTCHAR 0221
ENCODING 545
SWIDTH 240 0
DWIDTH 5 0
BBX 4 11 1 0
BITMAP
C0
C0
C0
C0
C0
C0
C0
C0
C0
C0
70
ENDCHAR
STARTCHAR 0222
ENCODING 546
SWIDTH 384 0
DWIDTH 8 0
BBX 8 20 0 -4
BITMAP
07
0F
0C
0C
0C
08
18
18
18
18
18
18
18
18
18
18
18
30
F0
E0
ENDCHAR
STARTCHAR 0223
ENCODING 547
SWIDTH 288 0
DWIDTH 6 0
BBX 5 14 0 0
BITMAP
E0
70
30
30
30
30
30
30
30
F8
F8
30
30
30
ENDCHAR
STARTCHAR 0224
ENCODING 548
SWIDTH 288 0
DWIDTH 6 0
BBX 5 19 0 -5
BITMAP
30
30
30
F8
F8
30
30
30
30
30
30
30
30
30
30
30
30
38
38
ENDCHAR
STARTCHAR 0225
ENCODING 549
SWIDTH 480 0
DWIDTH 10 0
BBX 10 11 0 0
BITMAP
0C00
0E00
1E00
1A00
1300
3300
3180
6180
6180
60C0
C0C0
ENDCHAR
STARTCHAR 0226
ENCODING 550
SWIDTH 720 0
DWIDTH 15 0
BBX 14 11 0 0
BITMAP
1870
1C70
1C70
3450
34D8
26D8
66C8
668C
638C
438C
C384
ENDCHAR
STARTCHAR 0227
ENCODING 551
SWIDTH 480 0
DWIDTH 10 0
BBX 10 15 0 0
BITMAP
0380
0780
0600
0400
0C00
0E00
1E00
1A00
1300
3300
3180
6180
6180
60C0
C0C0
ENDCHAR
STARTCHAR 0228
ENCODING 552
SWIDTH 576 0
DWIDTH 12 0
BBX 9 15 2 0
BITMAP
3E00
7F00
C300
C180
8180
0300
0300
0600
0C00
1800
1800
1800
1800
1800
1800
ENDCHAR
STARTCHAR 0229
ENCODING 553
SWIDTH 576 0
DWIDTH 12 0
BBX 9 15 2 0
BITMAP
3C00
FE00
C300
C100
C180
C000
6000
3000
1800
1800
1800
1800
1800
1800
1800
ENDCHAR
STARTCHAR 022A
ENCODING 554
SWIDTH 576 0
DWIDTH 12 0
BBX 9 15 2 0
BITMAP
1800
1800
1800
1800
1800
1800
0C00
0600
0300
0300
8180
C180
C300
7F00
3E00
ENDCHAR
STARTCHAR 022B
ENCODING 555
SWIDTH 480 0
DWIDTH 10 0
BBX 8 15 2 -4
BITMAP
C1
E1
61
31
33
1F
1D
19
31
61
C1
01
01
01
01
ENDCHAR
STARTCHAR 022C
ENCODING 556
SWIDTH 576 0
DWIDTH 12 0
BBX 11 12 1 -1
BITMAP
3CC0
7FC0
E3C0
C1C0
80C0
80C0
80C0
80C0
C1C0
E3C0
7EE0
3C60
ENDCHAR
STARTCHAR 022D
ENCODING 557
SWIDTH 576 0
DWIDTH 12 0
BBX 11 12 1 -1
BITMAP
CF00
DF80
70C0
60C0
6060
6060
6060
6060
60C0
70C0
5F80
4F00
ENDCHAR
STARTCHAR 022E
ENCODING 558
SWIDTH 720 0
DWIDTH 15 0
BBX 13 16 1 -1
BITMAP
0F80
3FE0
7070
6030
C038
C018
0018
0018
0018
0018
0018
C038
E030
70F0
3FE0
1F80
ENDCHAR
STARTCHAR 022F
ENCODING 559
SWIDTH 720 0
DWIDTH 15 0
BBX 14 15 0 0
BITMAP
3FC0
3FF0
3038
3018
301C
300C
FF0C
FF0C
300C
300C
301C
3018
3038
3FF0
3FC0
ENDCHAR
STARTCHAR 0230
ENCODING 560
SWIDTH 576 0
DWIDTH 12 0
BBX 10 15 1 0
BITMAP
3E00
7F80
E180
C0C0
C0C0
80C0
80C0
C0C0
4180
2180
1E00
0400
0200
7F80
7F80
ENDCHAR
STARTCHAR 0231
ENCODING 561
SWIDTH 672 0
DWIDTH 14 0
BBX 11 15 2 0
BITMAP
FFE0
FFE0
0060
0060
0060
0060
7FE0
7FE0
0060
0060
0060
0060
0060
FFE0
FFE0
ENDCHAR
STARTCHAR 0232
ENCODING 562
SWIDTH 672 0
DWIDTH 14 0
BBX 12 16 1 -1
BITMAP
1F80
3FC0
70E0
6060
C060
0060
01E0
1FC0
7E00
E000
C030
C030
C070
E0E0
7FC0
1F80
ENDCHAR
STARTCHAR 0233
ENCODING 563
SWIDTH 480 0
DWIDTH 10 0
BBX 9 12 1 -1
BITMAP
3E00
7F00
C300
C300
0300
1E00
F000
C000
C180
C300
FF00
3E00
ENDCHAR
STARTCHAR 0234
ENCODING 564
SWIDTH 576 0
DWIDTH 12 0
BBX 10 15 1 0
BITMAP
FFC0
FFC0
6000
3000
3800
1C00
0E00
0700
0600
0C00
1800
3000
C000
FFC0
FFC0
ENDCHAR
STARTCHAR 0235
ENCODING 565
SWIDTH 864 0
DWIDTH 18 0
BBX 15 17 2 -1
BITMAP
0006
C076
C07E
C070
C070
C070
C070
C070
C070
C070
C060
C060
C060
C060
60E0
7FC0
1F00
ENDCHAR
STARTCHAR 0236
ENCODING 566
SWIDTH 720 0
DWIDTH 15 0
BBX 13 12 1 0
BITMAP
C010
C1B8
C1F0
C180
C180
C180
C180
C180
C180
6380
7F80
3D80
ENDCHAR
STARTCHAR 0237
ENCODING 567
SWIDTH 768 0
DWIDTH 16 0
BBX 14 15 1 0
BITMAP
FCFC
FCFC
1020
2030
6018
C008
C00C
C00C
C00C
C00C
C01C
6018
7078
3FF0
0FC0
ENDCHAR
STARTCHAR 0238
ENCODING 568
SWIDTH 240 0
DWIDTH 5 0
BBX 2 15 2 0
BITMAP
C0
C0
C0
C0
C0
C0
C0
C0
C0
C0
C0
C0
C0
C0
C0
ENDCHAR
STARTCHAR 0239
ENCODING 569
SWIDTH 432 0
DWIDTH 9 0
BBX 5 15 2 0
BITMAP
D8
D8
D8
D8
D8
D8
D8
D8
D8
D8
D8
D8
D8
D8
D8
ENDCHAR
STARTCHAR 023A
ENCODING 570
SWIDTH 288 0
DWIDTH 6 0
BBX 2 15 2 0
BITMAP
C0
C0
C0
C0
C0
C0
C0
C0
C0
C0
C0
00
00
C0
C0
ENDCHAR
STARTCHAR 023B
ENCODING 571
SWIDTH 576 0
DWIDTH 12 0
BBX 11 15 0 0
BITMAP
0600
0600
0600
0600
0600
FFE0
FFE0
0600
0600
FFE0
FFE0
0600
0600
0600
0600
ENDCHAR
STARTCHAR 023C
ENCODING 572
SWIDTH 480 0
DWIDTH 10 0
BBX 9 12 1 -1
BITMAP
3E00
7F00
E300
C180
C000
C000
C000
C180
C180
E300
7F00
3C00
ENDCHAR
STARTCHAR 023D
ENCODING 573
SWIDTH 144 0
DWIDTH 3 0
BBX 2 6 1 -7
BITMAP
80
80
80
80
80
C0
ENDCHAR
STARTCHAR 023E
ENCODING 574
SWIDTH 336 0
DWIDTH 7 0
BBX 4 6 2 9
BITMAP
30
60
60
40
C0
C0
ENDCHAR
STARTCHAR 023F
ENCODING 575
SWIDTH 336 0
DWIDTH 7 0
BBX 4 6 2 9
BITMAP
C0
60
60
20
30
30
ENDCHAR
STARTCHAR 0240
ENCODING 576
SWIDTH 1392 0
DWIDTH 29 0
BBX 28 15 0 0
BITMAP
38200000
44600000
86400000
86800000
44800000
39000000
01000000
02000000
06000000
04F0E1E0
09191330
090B1A10
110B1A10
11191330
20F0E1E0
ENDCHAR
STARTCHAR 0241
ENCODING 577
SWIDTH 672 0
DWIDTH 14 0
BBX 9 2 2 0
BITMAP
E180
E180
ENDCHAR
STARTCHAR 0242
ENCODING 578
SWIDTH 336 0
DWIDTH 7 0
BBX 3 2 2 0
BITMAP
E0
E0
ENDCHAR
STARTCHAR 0243
ENCODING 579
SWIDTH 336 0
DWIDTH 7 0
BBX 5 5 1 10
BITMAP
D8
D8
90
98
48
ENDCHAR
STARTCHAR 0244
ENCODING 580
SWIDTH 240 0
DWIDTH 5 0
BBX 2 5 2 10
BITMAP
C0
C0
80
80
40
ENDCHAR
STARTCHAR 0245
ENCODING 581
SWIDTH 336 0
DWIDTH 7 0
BBX 5 2 1 5
BITMAP
F8
F8
ENDCHAR
STARTCHAR 0246
ENCODING 582
SWIDTH 528 0
DWIDTH 11 0
BBX 11 19 0 -4
BITMAP
FF00
67C0
67C0
67E0
67E0
67E0
67E0
67C0
67C0
6700
6600
6600
6600
6600
6600
6600
6600
6600
6600
ENDCHAR
STARTCHAR 0247
ENCODING 583
SWIDTH 528 0
DWIDTH 11 0
BBX 7 6 2 9
BITMAP
36
66
66
4C
CC
C8
ENDCHAR
STARTCHAR 0248
ENCODING 584
SWIDTH 528 0
DWIDTH 11 0
BBX 8 6 2 9
BITMAP
CC
6C
66
26
32
33
ENDCHAR
STARTCHAR 0249
ENCODING 585
SWIDTH 672 0
DWIDTH 14 0
BBX 11 6 2 9
BITMAP
3660
66E0
66C0
4CC0
CC80
C980
ENDCHAR
STARTCHAR 024A
ENCODING 586
SWIDTH 672 0
DWIDTH 14 0
BBX 11 6 2 9
BITMAP
CD80
6CC0
66C0
2640
3260
3320
ENDCHAR
STARTCHAR 024B
ENCODING 587
SWIDTH 336 0
DWIDTH 7 0
BBX 5 2 1 5
BITMAP
F8
F8
ENDCHAR
STARTCHAR 024C
ENCODING 588
SWIDTH 336 0
DWIDTH 7 0
BBX 3 2 2 6
BITMAP
E0
E0
ENDCHAR
STARTCHAR 024D
ENCODING 589
SWIDTH 336 0
DWIDTH 7 0
BBX 5 2 1 5
BITMAP
F8
F8
ENDCHAR
STARTCHAR 024E
ENCODING 590
SWIDTH 1008 0
DWIDTH 21 0
BBX 16 2 2 5
BITMAP
FFFF
FFFF
ENDCHAR
STARTCHAR 024F
ENCODING 591
SWIDTH 336 0
DWIDTH 7 0
BBX 4 5 2 5
BITMAP
80
E0
F0
E0
80
ENDCHAR
STARTCHAR 0250
ENCODING 592
SWIDTH 144 0
DWIDTH 3 0
BBX 0 0 0 0
BITMAP
ENDCHAR
STARTCHAR 0251
ENCODING 593
SWIDTH 0 0
DWIDTH 0 0
BBX 0 0 0 0
BITMAP
ENDCHAR
STARTCHAR 0252
ENCODING 594
SWIDTH 0 0
DWIDTH 0 0
BBX 0 0 0 0
BITMAP
ENDCHAR
STARTCHAR 0253
ENCODING 595
SWIDTH 0 0
DWIDTH 0 0
BBX 0 0 0 0
BITMAP
ENDCHAR
STARTCHAR 0254
ENCODING 596
SWIDTH 0 0
DWIDTH 0 0
BBX 0 0 0 0
BITMAP
ENDCHAR
STARTCHAR 0255
ENCODING 597
SWIDTH 0 0
DWIDTH 0 0
BBX 0 0 0 0
BITMAP
ENDCHAR
STARTCHAR 0256
ENCODING 598
SWIDTH 0 0
DWIDTH 0 0
BBX 0 0 0 0
BITMAP
ENDCHAR
STARTCHAR 0257
ENCODING 599
SWIDTH 0 0
DWIDTH 0 0
BBX 0 0 0 0
BITMAP
ENDCHAR
STARTCHAR 0258
ENCODING 600
SWIDTH 288 0
DWIDTH 6 0
BBX 0 0 0 0
BITMAP
ENDCHAR
STARTCHAR 0259
ENCODING 601
SWIDTH 288 0
DWIDTH 6 0
BBX 0 0 0 0
BITMAP
ENDCHAR
STARTCHAR 025A
ENCODING 602
SWIDTH 288 0
DWIDTH 6 0
BBX 0 0 0 0
BITMAP
ENDCHAR
STARTCHAR 025B
ENCODING 603
SWIDTH 288 0
DWIDTH 6 0
BBX 0 0 0 0
BITMAP
ENDCHAR
STARTCHAR 025C
ENCODING 604
SWIDTH 288 0
DWIDTH 6 0
BBX 0 0 0 0
BITMAP
ENDCHAR
STARTCHAR 025D
ENCODING 605
SWIDTH 288 0
DWIDTH 6 0
BBX 0 0 0 0
BITMAP
ENDCHAR
STARTCHAR 025E
ENCODING 606
SWIDTH 288 0
DWIDTH 6 0
BBX 0 0 0 0
BITMAP
ENDCHAR
STARTCHAR 025F
ENCODING 607
SWIDTH 288 0
DWIDTH 6 0
BBX 0 0 0 0
BITMAP
ENDCHAR
STARTCHAR 0260
ENCODING 608
SWIDTH 288 0
DWIDTH 6 0
BBX 0 0 0 0
BITMAP
ENDCHAR
STARTCHAR 0261
ENCODING 609
SWIDTH 0 0
DWIDTH 0 0
BBX 0 0 0 0
BITMAP
ENDCHAR
STARTCHAR 0262
ENCODING 610
SWIDTH 0 0
DWIDTH 0 0
BBX 0 0 0 0
BITMAP
ENDCHAR
STARTCHAR 0263
ENCODING 611
SWIDTH 0 0
DWIDTH 0 0
BBX 0 0 0 0
BITMAP
ENDCHAR
STARTCHAR 0264
ENCODING 612
SWIDTH 0 0
DWIDTH 0 0
BBX 0 0 0 0
BITMAP
ENDCHAR
STARTCHAR 0265
ENCODING 613
SWIDTH 0 0
DWIDTH 0 0
BBX 0 0 0 0
BITMAP
ENDCHAR
STARTCHAR 0266
ENCODING 614
SWIDTH 144 0
DWIDTH 3 0
BBX 0 0 0 0
BITMAP
ENDCHAR
STARTCHAR 0267
ENCODING 615
SWIDTH 48 0
DWIDTH 1 0
BBX 0 0 0 0
BITMAP
ENDCHAR
STARTCHAR 0268
ENCODING 616
SWIDTH 336 0
DWIDTH 7 0
BBX 7 3 0 -5
BITMAP
FE
00
FE
ENDCHAR
STARTCHAR 0269
ENCODING 617
SWIDTH 432 0
DWIDTH 9 0
BBX 5 15 2 0
BITMAP
D8
D8
D8
D8
D8
D8
D8
D8
D8
D8
D8
D8
D8
D8
D8
ENDCHAR
STARTCHAR 026A
ENCODING 618
SWIDTH 576 0
DWIDTH 12 0
BBX 9 15 2 0
BITMAP
3E00
7F00
DB00
D980
9980
1B00
1F00
1E00
1C00
1800
1800
1800
0000
1800
1800
ENDCHAR
STARTCHAR 026B
ENCODING 619
SWIDTH 336 0
DWIDTH 7 0
BBX 5 2 1 5
BITMAP
F8
F8
ENDCHAR
STARTCHAR 026C
ENCODING 620
SWIDTH 336 0
DWIDTH 7 0
BBX 7 1 0 13
BITMAP
FE
ENDCHAR
STARTCHAR 026D
ENCODING 621
SWIDTH 528 0
DWIDTH 11 0
BBX 10 9 1 3
BITMAP
FE00
CF80
CF80
CFC0
CFC0
CFC0
CF80
CF80
FF00
ENDCHAR
STARTCHAR 026E
ENCODING 622
SWIDTH 528 0
DWIDTH 11 0
BBX 10 9 1 3
BITMAP
1FC0
7CC0
7CC0
FCC0
FCC0
FCC0
7CC0
7CC0
3FC0
ENDCHAR
STARTCHAR 026F
ENCODING 623
SWIDTH 672 0
DWIDTH 14 0
BBX 13 20 0 0
BITMAP
0300
0480
0480
0480
0300
0300
0780
0780
0780
0CC0
0CC0
18E0
1860
1860
3FF0
3FF0
3030
6038
6018
E018
ENDCHAR
STARTCHAR 0270
ENCODING 624
SWIDTH 624 0
DWIDTH 13 0
BBX 10 15 2 0
BITMAP
00C0
00C0
00C0
00C0
00C0
00C0
00C0
7FC0
7FC0
00C0
00C0
00C0
00C0
FFC0
FFC0
ENDCHAR
STARTCHAR 0271
ENCODING 625
SWIDTH 576 0
DWIDTH 12 0
BBX 10 12 1 -1
BITMAP
1E00
7F00
6180
C180
00C0
FFC0
C0C0
C1C0
C180
E380
7F00
3E00
ENDCHAR
STARTCHAR 0272
ENCODING 626
SWIDTH 912 0
DWIDTH 19 0
BBX 17 16 1 -1
BITMAP
0FC100
3FF380
383F00
601800
E00C00
C00C00
C00C00
C00C00
C00C00
C00C00
C00C00
E01C00
601800
783800
3FF000
0FC000
ENDCHAR
STARTCHAR 0273
ENCODING 627
SWIDTH 672 0
DWIDTH 14 0
BBX 12 13 1 -1
BITMAP
0010
3E30
7F30
E1C0
C1C0
C0C0
C0C0
80C0
C0C0
C180
E380
7F00
3E00
ENDCHAR
STARTCHAR 0274
ENCODING 628
SWIDTH 0 0
DWIDTH 0 0
BBX 2 5 -7 12
BITMAP
80
40
40
40
80
ENDCHAR
STARTCHAR 0275
ENCODING 629
SWIDTH 0 0
DWIDTH 0 0
BBX 2 5 -7 12
BITMAP
40
80
80
80
40
ENDCHAR
STARTCHAR 0276
ENCODING 630
SWIDTH 0 0
DWIDTH 0 0
BBX 2 4 -7 -4
BITMAP
40
80
80
40
ENDCHAR
STARTCHAR 0277
ENCODING 631
SWIDTH 0 0
DWIDTH 0 0
BBX 2 4 -7 -4
BITMAP
C0
40
40
C0
ENDCHAR
STARTCHAR 0278
ENCODING 632
SWIDTH 0 0
DWIDTH 0 0
BBX 5 6 -8 10
BITMAP
70
90
10
F0
90
F8
ENDCHAR
STARTCHAR 0279
ENCODING 633
SWIDTH 0 0
DWIDTH 0 0
BBX 5 6 -8 10
BITMAP
70
90
88
F8
90
70
ENDCHAR
STARTCHAR 027A
ENCODING 634
SWIDTH 0 0
DWIDTH 0 0
BBX 1 8 -6 10
BITMAP
80
00
00
80
80
80
80
80
ENDCHAR
STARTCHAR 027B
ENCODING 635
SWIDTH 0 0
DWIDTH 0 0
BBX 5 6 -8 10
BITMAP
70
98
88
88
90
70
ENDCHAR
STARTCHAR 027C
ENCODING 636
SWIDTH 0 0
DWIDTH 0 0
BBX 4 6 -8 10
BITMAP
90
90
90
90
90
E0
ENDCHAR
STARTCHAR 027D
ENCODING 637
SWIDTH 0 0
DWIDTH 0 0
BBX 4 6 -8 10
BITMAP
70
90
80
80
90
70
ENDCHAR
STARTCHAR 027E
ENCODING 638
SWIDTH 0 0
DWIDTH 0 0
BBX 5 8 -8 10
BITMAP
08
08
68
98
88
88
98
68
ENDCHAR
STARTCHAR 027F
ENCODING 639
SWIDTH 0 0
DWIDTH 0 0
BBX 4 8 -8 10
BITMAP
80
80
F0
90
90
90
90
90
ENDCHAR
STARTCHAR 0280
ENCODING 640
SWIDTH 0 0
DWIDTH 0 0
BBX 7 6 -9 10
BITMAP
EC
92
92
92
92
92
ENDCHAR
STARTCHAR 0281
ENCODING 641
SWIDTH 0 0
DWIDTH 0 0
BBX 3 6 -7 10
BITMAP
E0
80
80
80
80
80
ENDCHAR
STARTCHAR 0282
ENCODING 642
SWIDTH 0 0
DWIDTH 0 0
BBX 2 7 -7 10
BITMAP
40
C0
40
40
40
40
40
ENDCHAR
STARTCHAR 0283
ENCODING 643
SWIDTH 0 0
DWIDTH 0 0
BBX 5 6 -8 10
BITMAP
88
90
90
50
60
20
ENDCHAR
STARTCHAR 0284
ENCODING 644
SWIDTH 0 0
DWIDTH 0 0
BBX 4 6 -8 10
BITMAP
90
50
60
60
50
90
ENDCHAR
STARTCHAR 0285
ENCODING 645
SWIDTH 0 0
DWIDTH 0 0
BBX 6 4 -9 -6
BITMAP
FC
00
00
FC
ENDCHAR
STARTCHAR 0286
ENCODING 646
SWIDTH 0 0
DWIDTH 0 0
BBX 6 7 -9 4
BITMAP
0C
08
18
30
20
60
C0
ENDCHAR
STARTCHAR 0287
ENCODING 647
SWIDTH 0 0
DWIDTH 0 0
BBX 5 5 -8 -6
BITMAP
20
20
F8
20
20
ENDCHAR
STARTCHAR 0288
ENCODING 648
SWIDTH 0 0
DWIDTH 0 0
BBX 5 5 -8 -6
BITMAP
F8
20
20
20
20
ENDCHAR
STARTCHAR 0289
ENCODING 649
SWIDTH 0 0
DWIDTH 0 0
BBX 5 5 -8 -6
BITMAP
20
20
20
20
F8
ENDCHAR
STARTCHAR 028A
ENCODING 650
SWIDTH 0 0
DWIDTH 0 0
BBX 5 5 -8 -6
BITMAP
08
08
F8
08
08
ENDCHAR
STARTCHAR 028B
ENCODING 651
SWIDTH 0 0
DWIDTH 0 0
BBX 5 5 -8 -6
BITMAP
80
80
F8
80
80
ENDCHAR
STARTCHAR 028C
ENCODING 652
SWIDTH 0 0
DWIDTH 0 0
BBX 6 5 -9 12
BITMAP
78
C4
84
30
30
ENDCHAR
STARTCHAR 028D
ENCODING 653
SWIDTH 144 0
DWIDTH 3 0
BBX 2 6 1 9
BITMAP
40
40
80
80
80
80
ENDCHAR
STARTCHAR 028E
ENCODING 654
SWIDTH 288 0
DWIDTH 6 0
BBX 4 6 1 9
BITMAP
50
50
90
90
90
A0
ENDCHAR
STARTCHAR 028F
ENCODING 655
SWIDTH 144 0
DWIDTH 3 0
BBX 2 6 1 9
BITMAP
40
40
80
80
80
80
ENDCHAR
STARTCHAR 0290
ENCODING 656
SWIDTH 144 0
DWIDTH 3 0
BBX 2 6 1 -5
BITMAP
40
40
40
40
80
80
ENDCHAR
STARTCHAR 0291
ENCODING 657
SWIDTH 528 0
DWIDTH 11 0
BBX 10 10 1 0
BITMAP
2000
3000
FFC0
FFC0
0800
0C00
FFC0
FFC0
0200
0300
ENDCHAR
STARTCHAR 0292
ENCODING 658
SWIDTH 528 0
DWIDTH 11 0
BBX 11 10 0 0
BITMAP
0180
0100
FFE0
FFE0
0600
0400
FFE0
FFE0
1800
1000
ENDCHAR
STARTCHAR 0293
ENCODING 659
SWIDTH 480 0
DWIDTH 10 0
BBX 10 15 0 0
BITMAP
1E00
3C00
6000
6000
6000
4000
CE00
DF80
7180
60C0
60C0
60C0
31C0
1F80
0F00
ENDCHAR
STARTCHAR 0294
ENCODING 660
SWIDTH 480 0
DWIDTH 10 0
BBX 10 15 0 0
BITMAP
0E00
0F00
0180
0180
00C0
00C0
1EC0
3FC0
71C0
61C0
C180
6180
6300
7F00
3C00
ENDCHAR
STARTCHAR 0295
ENCODING 661
SWIDTH 720 0
DWIDTH 15 0
BBX 11 18 3 -3
BITMAP
FFE0
FFE0
00E0
01C0
0180
0300
0600
0C00
1800
1800
0C00
0600
0300
0180
00C0
00E0
FFE0
FFE0
ENDCHAR
STARTCHAR 0296
ENCODING 662
SWIDTH 720 0
DWIDTH 15 0
BBX 12 18 0 -3
BITMAP
7FF0
7FF0
7000
3000
1800
0C00
0600
0300
0380
0380
0300
0600
0C00
1800
3000
6000
FFF0
FFF0
ENDCHAR
STARTCHAR 0297
ENCODING 663
SWIDTH 288 0
DWIDTH 6 0
BBX 9 20 1 -4
BITMAP
E000
F000
3800
1800
1800
1800
1800
1800
1800
1800
1800
1800
1800
1800
0C00
0C00
0C00
0C00
0700
0780
ENDCHAR
STARTCHAR 0298
ENCODING 664
SWIDTH 288 0
DWIDTH 6 0
BBX 9 20 -4 -4
BITMAP
0780
0780
0C00
0C00
0C00
0C00
0C00
0C00
0800
1800
1800
1800
1800
1800
1800
1800
1800
3800
F000
E000
ENDCHAR
STARTCHAR 0299
ENCODING 665
SWIDTH 528 0
DWIDTH 11 0
BBX 13 19 -2 0
BITMAP
C000
C000
4000
6000
2000
2000
3000
1000
1020
1838
0868
0C60
0C40
04C0
06C0
0680
0380
0300
0300
ENDCHAR
STARTCHAR 029A
ENCODING 666
SWIDTH 528 0
DWIDTH 11 0
BBX 13 19 0 0
BITMAP
0008
0018
0018
0010
0030
0030
0020
0060
3060
7040
90C0
1880
1880
0980
0D00
0D00
0700
0600
0600
ENDCHAR
STARTCHAR 029B
ENCODING 667
SWIDTH 528 0
DWIDTH 11 0
BBX 11 7 0 2
BITMAP
81C0
C7E0
FE20
B9C0
C7E0
FE20
3800
ENDCHAR
STARTCHAR 029C
ENCODING 668
SWIDTH 528 0
DWIDTH 11 0
BBX 11 7 0 2
BITMAP
3800
7E20
C7E0
B9C0
7E20
C7E0
81C0
ENDCHAR
STARTCHAR 029D
ENCODING 669
SWIDTH 1104 0
DWIDTH 23 0
BBX 21 15 1 0
BITMAP
780FC0
4C1FF0
843830
847018
4C6018
78E000
00C000
00C000
00C000
00E018
006018
007038
003870
001FE0
000FC0
ENDCHAR
STARTCHAR 029E
ENCODING 670
SWIDTH 1008 0
DWIDTH 21 0
BBX 19 15 1 0
BITMAP
787FE0
4C7FE0
846000
846000
4C6000
786000
007FC0
007FC0
006000
006000
006000
006000
006000
006000
006000
ENDCHAR
STARTCHAR 029F
ENCODING 671
SWIDTH 672 0
DWIDTH 14 0
BBX 11 15 2 0
BITMAP
C0E0
C1C0
C380
C700
CE00
DC00
FC00
FC00
E600
C700
C380
C180
C1C0
C0E0
C060
ENDCHAR
STARTCHAR 02A0
ENCODING 672
SWIDTH 288 0
DWIDTH 6 0
BBX 2 15 2 0
BITMAP
C0
C0
C0
C0
C0
C0
C0
C0
C0
C0
C0
C0
C0
C0
C0
ENDCHAR
STARTCHAR 02A1
ENCODING 673
SWIDTH 576 0
DWIDTH 12 0
BBX 8 15 2 0
BITMAP
C3
C3
C3
C3
C3
C3
C3
C3
C3
C3
C3
C3
C3
C3
C3
ENDCHAR
STARTCHAR 02A2
ENCODING 674
SWIDTH 816 0
DWIDTH 17 0
BBX 14 15 2 0
BITMAP
C30C
C30C
C30C
C30C
C30C
C30C
C30C
C30C
C30C
C30C
C30C
C30C
C30C
C30C
C30C
ENDCHAR
STARTCHAR 02A3
ENCODING 675
SWIDTH 960 0
DWIDTH 20 0
BBX 17 15 2 0
BITMAP
CE0180
C60180
C60300
C30300
C30700
C38600
C18600
C18E00
C1CC00
C0CC00
C0DC00
C0F800
C07800
C07000
C03000
ENDCHAR
STARTCHAR 02A4
ENCODING 676
SWIDTH 672 0
DWIDTH 14 0
BBX 12 15 1 0
BITMAP
C030
C030
E070
6060
6060
30E0
30C0
30C0
1980
1980
1D80
0F00
0F00
0F00
0600
ENDCHAR
STARTCHAR 02A5
ENCODING 677
SWIDTH 960 0
DWIDTH 20 0
BBX 17 15 1 0
BITMAP
C03180
C03180
E07180
606180
606180
30E180
30C180
30C180
198180
198180
1D8180
0F0180
0F0180
0F0180
060180
ENDCHAR
STARTCHAR 02A6
ENCODING 678
SWIDTH 1200 0
DWIDTH 25 0
BBX 23 15 1 0
BITMAP
C03186
C03186
E07186
606186
606186
30E186
30C186
30C186
198186
198186
1D8186
0F0186
0F0186
0F0186
060186
ENDCHAR
STARTCHAR 02A7
ENCODING 679
SWIDTH 1488 0
DWIDTH 31 0
BBX 29 15 1 0
BITMAP
C0318618
C0318618
E0718618
60618618
60618618
30E18618
30C18618
30C18618
19818618
19818618
1D818618
0F018618
0F018618
0F018618
06018618
ENDCHAR
STARTCHAR 02A8
ENCODING 680
SWIDTH 960 0
DWIDTH 20 0
BBX 17 15 2 0
BITMAP
C60380
C30300
C38600
C18E00
C0CC00
C0F800
C07800
C07000
C07800
C0DC00
C1CC00
C18600
C30700
C70300
C60380
ENDCHAR
STARTCHAR 02A9
ENCODING 681
SWIDTH 672 0
DWIDTH 14 0
BBX 12 15 1 0
BITMAP
E030
6060
70E0
38C0
1980
0F80
0F00
0600
0F00
1F80
1980
30C0
70E0
E070
C030
ENDCHAR
STARTCHAR 02AA
ENCODING 682
SWIDTH 960 0
DWIDTH 20 0
BBX 17 15 1 0
BITMAP
E03180
606180
70E180
38C180
198180
0F8180
0F0180
060180
0F0180
1F8180
198180
30C180
70E180
E07180
C03180
ENDCHAR
STARTCHAR 02AB
ENCODING 683
SWIDTH 1200 0
DWIDTH 25 0
BBX 23 15 1 0
BITMAP
E03186
606186
70E186
38C186
198186
0F8186
0F0186
060186
0F0186
1F8186
198186
30C186
70E186
E07186
C03186
ENDCHAR
STARTCHAR 02AC
ENCODING 684
SWIDTH 576 0
DWIDTH 12 0
BBX 9 15 2 0
BITMAP
C000
C000
C000
C000
C000
C000
C000
C000
C000
C000
C000
C000
C000
FF80
FF80
ENDCHAR
STARTCHAR 02AD
ENCODING 685
SWIDTH 720 0
DWIDTH 15 0
BBX 13 15 1 0
BITMAP
0FC0
3FE0
7870
6038
E018
C000
C000
C000
C000
C018
E018
6030
7070
3FE0
0F80
ENDCHAR
STARTCHAR 02AE
ENCODING 686
SWIDTH 720 0
DWIDTH 15 0
BBX 12 15 2 0
BITMAP
FF00
FFC0
C0E0
C060
C070
C030
C030
C030
C030
C030
C070
C060
C0E0
FFC0
FF00
ENDCHAR
STARTCHAR 02AF
ENCODING 687
SWIDTH 816 0
DWIDTH 17 0
BBX 14 15 2 0
BITMAP
E01C
E03C
E03C
B03C
B06C
906C
986C
98CC
88CC
8CCC
8D8C
858C
878C
870C
830C
ENDCHAR
STARTCHAR 02B0
ENCODING 688
SWIDTH 240 0
DWIDTH 5 0
BBX 2 15 1 0
BITMAP
C0
C0
00
00
C0
C0
C0
C0
C0
C0
C0
C0
C0
C0
C0
ENDCHAR
STARTCHAR 02B1
ENCODING 689
SWIDTH 432 0
DWIDTH 9 0
BBX 7 15 1 0
BITMAP
C6
C6
00
00
C6
C6
C6
C6
C6
C6
C6
C6
C6
C6
C6
ENDCHAR
STARTCHAR 02B2
ENCODING 690
SWIDTH 672 0
DWIDTH 14 0
BBX 11 15 1 0
BITMAP
C620
C620
0000
0000
C620
C620
C620
C620
C620
C620
C620
C620
C620
C620
C620
ENDCHAR
STARTCHAR 02B3
ENCODING 691
SWIDTH 720 0
DWIDTH 15 0
BBX 14 15 1 0
BITMAP
C000
C000
0000
0000
CC0C
CC18
C618
C618
C630
C330
C320
C360
C1E0
C1C0
C0C0
ENDCHAR
STARTCHAR 02B4
ENCODING 692
SWIDTH 480 0
DWIDTH 10 0
BBX 10 11 0 0
BITMAP
C0C0
60C0
6180
6180
3180
3300
3300
1A00
1E00
0E00
0C00
ENDCHAR
STARTCHAR 02B5
ENCODING 693
SWIDTH 720 0
DWIDTH 15 0
BBX 14 15 0 0
BITMAP
000C
000C
0000
0000
C0CC
60CC
618C
618C
318C
330C
330C
1A0C
1E0C
0E0C
0C0C
ENDCHAR
STARTCHAR 02B6
ENCODING 694
SWIDTH 960 0
DWIDTH 20 0
BBX 18 15 0 0
BITMAP
000CC0
000CC0
000000
000000
C0CCC0
60CCC0
618CC0
618CC0
318CC0
330CC0
330CC0
1A0CC0
1E0CC0
0E0CC0
0C0CC0
ENDCHAR
STARTCHAR 02B7
ENCODING 695
SWIDTH 1152 0
DWIDTH 24 0
BBX 23 15 0 0
BITMAP
000CC6
000CC6
000000
000000
C0CCC6
60CCC6
618CC6
618CC6
318CC6
330CC6
330CC6
1A0CC6
1E0CC6
0E0CC6
0C0CC6
ENDCHAR
STARTCHAR 02B8
ENCODING 696
SWIDTH 720 0
DWIDTH 15 0
BBX 13 15 1 0
BITMAP
C000
C000
0000
0000
CE18
C638
C330
C3E0
C1C0
C1C0
C1E0
C360
C730
C638
CC18
ENDCHAR
STARTCHAR 02B9
ENCODING 697
SWIDTH 480 0
DWIDTH 10 0
BBX 10 11 0 0
BITMAP
61C0
7180
3300
1F00
1E00
0C00
1E00
3F00
3300
6180
E1C0
ENDCHAR
STARTCHAR 02BA
ENCODING 698
SWIDTH 720 0
DWIDTH 15 0
BBX 14 15 0 0
BITMAP
000C
000C
0000
0000
61CC
718C
330C
1F0C
1E0C
0C0C
1E0C
3F0C
330C
618C
E1CC
ENDCHAR
STARTCHAR 02BB
ENCODING 699
SWIDTH 960 0
DWIDTH 20 0
BBX 18 15 0 0
BITMAP
000CC0
000CC0
000000
000000
61CCC0
718CC0
330CC0
1F0CC0
1E0CC0
0C0CC0
1E0CC0
3F0CC0
330CC0
618CC0
E1CCC0
ENDCHAR
STARTCHAR 02BC
ENCODING 700
SWIDTH 240 0
DWIDTH 5 0
BBX 2 15 1 0
BITMAP
C0
C0
C0
C0
C0
C0
C0
C0
C0
C0
C0
C0
C0
C0
C0
ENDCHAR
STARTCHAR 02BD
ENCODING 701
SWIDTH 480 0
DWIDTH 10 0
BBX 9 11 1 0
BITMAP
3E00
7F00
E380
C180
C000
C000
C000
C180
E380
7F00
3E00
ENDCHAR
STARTCHAR 02BE
ENCODING 702
SWIDTH 576 0
DWIDTH 12 0
BBX 9 15 1 0
BITMAP
0180
0180
0180
0180
3D80
7F80
E380
C180
C180
C080
C180
C180
E380
7E80
3C80
ENDCHAR
STARTCHAR 02BF
ENCODING 703
SWIDTH 816 0
DWIDTH 17 0
BBX 15 11 1 0
BITMAP
CE3C
DF7E
E3C6
E186
C186
C186
C186
C186
C186
C186
C186
ENDCHAR
STARTCHAR 02C0
ENCODING 704
SWIDTH 1248 0
DWIDTH 26 0
BBX 24 19 1 0
BITMAP
000198
0000F0
000060
000000
FF87FF
FFC7FF
C0E007
C0700E
C0301C
C03018
C03830
C03860
C030E0
C031C0
C03380
C07300
C0E600
FFCFFF
FF8FFF
ENDCHAR
STARTCHAR 02C1
ENCODING 705
SWIDTH 1104 0
DWIDTH 23 0
BBX 21 15 1 0
BITMAP
FF0330
FFC1E0
C0E0C0
C06000
C037F8
C037F8
C03038
C03070
C03060
C030C0
C03180
C06300
C0E600
FFCFF8
FF0FF8
ENDCHAR
STARTCHAR 02C2
ENCODING 706
SWIDTH 960 0
DWIDTH 20 0
BBX 19 15 1 0
BITMAP
018CC0
018780
018300
018000
3DBFE0
7FBFE0
E380C0
C18180
C18380
C08700
C18E00
C18C00
E39800
7EBFE0
3CBFE0
ENDCHAR
STARTCHAR 02C3
ENCODING 707
SWIDTH 960 0
DWIDTH 20 0
BBX 19 15 1 0
BITMAP
C00060
C00060
C00060
C00060
C00060
C00060
C00060
C00060
C00060
C00060
C03060
C03060
C018E0
FFDFC0
FFCF80
ENDCHAR
STARTCHAR 02C4
ENCODING 708
SWIDTH 720 0
DWIDTH 15 0
BBX 13 19 1 -4
BITMAP
C018
C018
C000
C000
C018
C018
C018
C018
C018
C018
C018
C018
C018
FFD8
FFD8
0018
0018
0038
0030
ENDCHAR
STARTCHAR 02C5
ENCODING 709
SWIDTH 384 0
DWIDTH 8 0
BBX 6 19 1 -4
BITMAP
CC
CC
C0
C0
CC
CC
CC
CC
CC
CC
CC
CC
CC
CC
CC
0C
0C
1C
18
ENDCHAR
STARTCHAR 02C6
ENCODING 710
SWIDTH 1104 0
DWIDTH 23 0
BBX 21 15 1 0
BITMAP
E03018
E03018
F03018
D83018
D83018
CC3018
CE3018
C63018
C33018
C33018
C1B618
C0F618
C0F618
C077F0
C071E0
ENDCHAR
STARTCHAR 02C7
ENCODING 711
SWIDTH 864 0
DWIDTH 18 0
BBX 17 19 1 -4
BITMAP
E03180
E03180
F03000
F83000
D83180
CC3180
CE3180
C63180
C33180
C33180
C1B180
C1F180
C0F180
C07180
C07180
000180
000180
000700
000700
ENDCHAR
STARTCHAR 02C8
ENCODING 712
SWIDTH 720 0
DWIDTH 15 0
BBX 13 19 1 -4
BITMAP
0018
0018
0000
0000
DE18
FF18
E398
C198
C198
C198
C198
C198
C198
C198
C198
0018
0018
0038
0030
ENDCHAR
STARTCHAR 02C9
ENCODING 713
SWIDTH 672 0
DWIDTH 14 0
BBX 13 19 0 0
BITMAP
04C0
0680
0380
0000
0300
0780
0780
0780
0CC0
0CC0
18E0
1860
1860
3FF0
3FF0
3030
6038
6018
E018
ENDCHAR
STARTCHAR 02CA
ENCODING 714
SWIDTH 576 0
DWIDTH 12 0
BBX 10 15 1 0
BITMAP
3300
1E00
0C00
0000
3E00
7F00
6180
C180
0180
3F80
FD80
C180
C380
FFC0
78C0
ENDCHAR
STARTCHAR 02CB
ENCODING 715
SWIDTH 288 0
DWIDTH 6 0
BBX 5 19 1 0
BITMAP
98
D0
70
00
60
60
60
60
60
60
60
60
60
60
60
60
60
60
60
ENDCHAR
STARTCHAR 02CC
ENCODING 716
SWIDTH 288 0
DWIDTH 6 0
BBX 6 15 0 0
BITMAP
CC
78
30
00
30
30
30
30
30
30
30
30
30
30
30
ENDCHAR
STARTCHAR 02CD
ENCODING 717
SWIDTH 768 0
DWIDTH 16 0
BBX 14 19 1 0
BITMAP
04C0
0680
0380
0000
0FC0
3FF0
7838
601C
E00C
C00C
C00C
C00C
C00C
C00C
E00C
6018
7838
3FF0
0FC0
ENDCHAR
STARTCHAR 02CE
ENCODING 718
SWIDTH 576 0
DWIDTH 12 0
BBX 10 15 1 0
BITMAP
3300
1E00
0C00
0000
3E00
7F00
E180
C1C0
C0C0
80C0
C0C0
C180
E180
7F00
3E00
ENDCHAR
STARTCHAR 02CF
ENCODING 719
SWIDTH 720 0
DWIDTH 15 0
BBX 12 18 2 0
BITMAP
1980
0F00
0600
C070
C070
C070
C070
C070
C070
C070
C070
C060
C060
C060
C060
60E0
7FC0
1F00
ENDCHAR
STARTCHAR 02D0
ENCODING 720
SWIDTH 576 0
DWIDTH 12 0
BBX 9 15 1 0
BITMAP
3300
1E00
0C00
0000
C180
C180
C180
C180
C180
C180
C180
C180
E380
7F80
3D80
ENDCHAR
STARTCHAR 02D1
ENCODING 721
SWIDTH 720 0
DWIDTH 15 0
BBX 12 20 2 0
BITMAP
1F80
0000
1900
1900
0000
C070
C070
C070
C070
C070
C070
C070
C070
C060
C060
C060
C060
60E0
7FC0
1F00
ENDCHAR
STARTCHAR 02D2
ENCODING 722
SWIDTH 576 0
DWIDTH 12 0
BBX 9 16 1 0
BITMAP
3F00
0000
3300
3300
0000
C180
C180
C180
C180
C180
C180
C180
C180
E380
7F80
3D80
ENDCHAR
STARTCHAR 02D3
ENCODING 723
SWIDTH 720 0
DWIDTH 15 0
BBX 12 21 2 0
BITMAP
0300
0200
0400
1900
1900
0000
C070
C070
C070
C070
C070
C070
C070
C070
C060
C060
C060
C060
60E0
7FC0
1F00
ENDCHAR
STARTCHAR 02D4
ENCODING 724
SWIDTH 576 0
DWIDTH 12 0
BBX 9 18 1 0
BITMAP
0600
0400
0800
0000
3600
3600
0000
C180
C180
C180
C180
C180
C180
C180
C180
E380
7F80
3D80
ENDCHAR
STARTCHAR 02D5
ENCODING 725
SWIDTH 720 0
DWIDTH 15 0
BBX 12 21 2 0
BITMAP
1900
0B00
0E00
1B00
1B00
0000
C070
C070
C070
C070
C070
C070
C070
C070
C060
C060
C060
C060
60E0
7FC0
1F00
ENDCHAR
STARTCHAR 02D6
ENCODING 726
SWIDTH 576 0
DWIDTH 12 0
BBX 9 17 1 0
BITMAP
3200
1600
1C00
3600
3600
0000
C180
C180
C180
C180
C180
C180
C180
C180
E380
7F80
3D80
ENDCHAR
STARTCHAR 02D7
ENCODING 727
SWIDTH 720 0
DWIDTH 15 0
BBX 12 21 2 0
BITMAP
1800
0C00
0400
1B00
1B00
0000
C070
C070
C070
C070
C070
C070
C070
C070
C060
C060
C060
C060
60E0
7FC0
1F00
ENDCHAR
STARTCHAR 02D8
ENCODING 728
SWIDTH 576 0
DWIDTH 12 0
BBX 9 17 1 0
BITMAP
3000
1800
0800
3600
3600
0000
C180
C180
C180
C180
C180
C180
C180
C180
E380
7F80
3D80
ENDCHAR
STARTCHAR 02D9
ENCODING 729
SWIDTH 672 0
DWIDTH 14 0
BBX 13 20 0 0
BITMAP
0FC0
0000
0CC0
0CC0
0000
0300
0780
0780
0780
0CC0
0CC0
18E0
1860
1860
3FF0
3FF0
3030
6038
6018
E018
ENDCHAR
STARTCHAR 02DA
ENCODING 730
SWIDTH 576 0
DWIDTH 12 0
BBX 10 17 1 0
BITMAP
7F00
0000
3600
3600
0000
0000
3E00
7F00
6180
C180
0180
3F80
FD80
C180
C380
FFC0
78C0
ENDCHAR
STARTCHAR 02DB
ENCODING 731
SWIDTH 672 0
DWIDTH 14 0
BBX 13 20 0 0
BITMAP
0FC0
0000
0300
0300
0000
0300
0780
0780
0780
0CC0
0CC0
18E0
1860
1860
3FF0
3FF0
3030
6038
6018
E018
ENDCHAR
STARTCHAR 02DC
ENCODING 732
SWIDTH 576 0
DWIDTH 12 0
BBX 10 17 1 0
BITMAP
7F00
0000
0800
0800
0000
0000
3E00
7F00
6180
C180
0180
3F80
FD80
C180
C380
FFC0
78C0
ENDCHAR
STARTCHAR 02DD
ENCODING 733
SWIDTH 1008 0
DWIDTH 21 0
BBX 20 17 0 0
BITMAP
007F00
000000
03FFF0
03FFF0
063000
063000
0E3000
0C3000
0C3FE0
183FE0
183000
3FF000
3FF000
303000
603000
603FF0
E03FF0
ENDCHAR
STARTCHAR 02DE
ENCODING 734
SWIDTH 912 0
DWIDTH 19 0
BBX 17 13 1 0
BITMAP
07F000
000000
3E3C00
7F7F00
E1C300
C18180
1FFF80
7DFF80
C18000
C18300
C3C300
FEFE00
783C00
ENDCHAR
STARTCHAR 02DF
ENCODING 735
SWIDTH 768 0
DWIDTH 16 0
BBX 14 19 1 0
BITMAP
0CC0
0780
0300
0000
0FC0
1FF0
3870
6018
6018
C000
C000
C1FC
C1FC
C00C
E00C
601C
783C
3FEC
0F8C
ENDCHAR
STARTCHAR 02E0
ENCODING 736
SWIDTH 576 0
DWIDTH 12 0
BBX 9 19 1 -4
BITMAP
2600
3400
1C00
0000
3D80
7F80
E380
C180
C180
C180
C180
C180
E380
7F80
3D80
0180
C380
FF00
3E00
ENDCHAR
STARTCHAR 02E1
ENCODING 737
SWIDTH 672 0
DWIDTH 14 0
BBX 11 19 2 0
BITMAP
3300
1A00
0C00
0000
C0E0
C1C0
C380
C700
CE00
DC00
FC00
FC00
E600
C700
C380
C180
C1C0
C0E0
C060
ENDCHAR
STARTCHAR 02E2
ENCODING 738
SWIDTH 480 0
DWIDTH 10 0
BBX 9 18 1 0
BITMAP
3200
1600
1C00
C000
C000
C000
C000
C380
C700
CE00
DC00
F800
EC00
CC00
C600
C700
C300
C180
ENDCHAR
STARTCHAR 02E3
ENCODING 739
SWIDTH 768 0
DWIDTH 16 0
BBX 14 20 1 -5
BITMAP
0FC0
3FF0
7838
601C
E00C
C00C
C00C
C00C
C00C
C00C
E00C
6018
7838
3FF0
0FC0
0200
0600
0C00
0C00
0700
ENDCHAR
STARTCHAR 02E4
ENCODING 740
SWIDTH 576 0
DWIDTH 12 0
BBX 10 16 1 -5
BITMAP
3E00
7F00
E180
C1C0
C0C0
80C0
C0C0
C180
E180
7F00
3E00
1800
3000
3000
3400
1C00
ENDCHAR
STARTCHAR 02E5
ENCODING 741
SWIDTH 768 0
DWIDTH 16 0
BBX 14 23 1 -5
BITMAP
0FC0
0000
0000
0FC0
3FF0
7838
601C
E00C
C00C
C00C
C00C
C00C
C00C
E00C
6018
7838
3FF0
0FC0
0200
0600
0C00
0C00
0700
ENDCHAR
STARTCHAR 02E6
ENCODING 742
SWIDTH 576 0
DWIDTH 12 0
BBX 10 19 1 -5
BITMAP
7F00
0000
0000
3E00
7F00
E180
C1C0
C0C0
80C0
C0C0
C180
E180
7F00
3E00
1800
3000
3000
3400
1C00
ENDCHAR
STARTCHAR 02E7
ENCODING 743
SWIDTH 240 0
DWIDTH 5 0
BBX 5 19 0 -4
BITMAP
98
D0
70
00
60
60
60
60
60
60
60
60
60
60
60
60
60
E0
C0
ENDCHAR
STARTCHAR 02E8
ENCODING 744
SWIDTH 1248 0
DWIDTH 26 0
BBX 24 15 1 0
BITMAP
FF87FF
FFC7FF
C0E006
C0600E
C0301C
C03038
C03030
C03060
C030C0
C031C0
C03380
C06700
C0E600
FFCFFF
FF0FFF
ENDCHAR
STARTCHAR 02E9
ENCODING 745
SWIDTH 1104 0
DWIDTH 23 0
BBX 22 15 1 0
BITMAP
FF8000
FFC000
C0E000
C07000
C037FC
C037FC
C03018
C03030
C03060
C030C0
C03180
C07380
C0E700
FFC7FC
FF87FC
ENDCHAR
STARTCHAR 02EA
ENCODING 746
SWIDTH 1008 0
DWIDTH 21 0
BBX 19 15 1 0
BITMAP
018000
018000
018000
018000
3DBFE0
7FBFE0
E380C0
C18180
C18300
C08700
C18E00
C18C00
E39800
7EBFE0
3CBFE0
ENDCHAR
STARTCHAR 02EB
ENCODING 747
SWIDTH 768 0
DWIDTH 16 0
BBX 14 19 1 0
BITMAP
0180
0300
0600
0000
0FC0
1FF0
3870
6018
6018
C000
C000
C1FC
C1FC
C00C
E00C
601C
783C
3FEC
0F8C
ENDCHAR
STARTCHAR 02EC
ENCODING 748
SWIDTH 720 0
DWIDTH 15 0
BBX 11 18 2 0
BITMAP
1800
0C00
0600
C020
E020
F020
F020
D820
D820
CC20
CE20
C620
C320
C3A0
C1A0
C0E0
C0E0
C060
ENDCHAR
STARTCHAR 02ED
ENCODING 749
SWIDTH 576 0
DWIDTH 12 0
BBX 9 15 1 0
BITMAP
1800
0800
0400
0000
CF00
DF80
E180
E180
C180
C180
C180
C180
C180
C180
C180
ENDCHAR
STARTCHAR 02EE
ENCODING 750
SWIDTH 672 0
DWIDTH 14 0
BBX 13 23 0 0
BITMAP
00C0
0180
0100
0300
0480
0480
0480
0300
0300
0780
0780
0780
0CC0
0CC0
18E0
1860
1860
3FF0
3FF0
3030
6038
6018
E018
ENDCHAR
STARTCHAR 02EF
ENCODING 751
SWIDTH 576 0
DWIDTH 12 0
BBX 10 19 1 0
BITMAP
0600
0400
0800
1C00
1200
2200
1200
1C00
3E00
7F00
6180
C180
0180
3F80
FD80
C180
C380
FFC0
78C0
ENDCHAR
STARTCHAR 02F0
ENCODING 752
SWIDTH 1008 0
DWIDTH 21 0
BBX 20 18 0 0
BITMAP
000C00
000800
001000
03FFF0
03FFF0
063000
063000
0E3000
0C3000
0C3FE0
183FE0
183000
3FF000
3FF000
303000
603000
603FF0
E03FF0
ENDCHAR
STARTCHAR 02F1
ENCODING 753
SWIDTH 912 0
DWIDTH 19 0
BBX 17 15 1 0
BITMAP
00C000
018000
010000
000000
3E3C00
7F7F00
E1C300
C18180
1FFF80
7DFF80
C18000
C18300
C3C300
FEFE00
783C00
ENDCHAR
STARTCHAR 02F2
ENCODING 754
SWIDTH 768 0
DWIDTH 16 0
BBX 14 19 1 0
BITMAP
0180
0300
0200
0000
0FC4
3FFC
7838
603C
E06C
C0CC
C18C
C30C
C60C
C40C
C80C
7018
7838
7FF0
8FC0
ENDCHAR
STARTCHAR 02F3
ENCODING 755
SWIDTH 624 0
DWIDTH 13 0
BBX 11 15 1 0
BITMAP
0600
0400
0800
0000
1F20
3FC0
71C0
61C0
C2C0
C4C0
C8C0
D0C0
61C0
7F80
9F00
ENDCHAR
STARTCHAR 02F4
ENCODING 756
SWIDTH 672 0
DWIDTH 14 0
BBX 13 19 0 0
BITMAP
1B00
0980
0C80
0000
0300
0780
0780
0780
0CC0
0CC0
18E0
1860
1860
3FF0
3FF0
3030
6038
6018
E018
ENDCHAR
STARTCHAR 02F5
ENCODING 757
SWIDTH 576 0
DWIDTH 12 0
BBX 10 15 1 0
BITMAP
6C00
6600
3200
0000
3E00
7F00
6180
C180
0180
3F80
FD80
C180
C380
FFC0
78C0
ENDCHAR
STARTCHAR 02F6
ENCODING 758
SWIDTH 672 0
DWIDTH 14 0
BBX 13 18 0 0
BITMAP
0780
08C0
0840
0300
0780
0780
0780
0CC0
0CC0
18E0
1860
1860
3FF0
3FF0
3030
6038
6018
E018
ENDCHAR
STARTCHAR 02F7
ENCODING 759
SWIDTH 576 0
DWIDTH 12 0
BBX 10 15 1 0
BITMAP
1E00
2200
4100
0000
3E00
7F00
6180
C180
0180
3F80
FD80
C180
C380
FFC0
78C0
ENDCHAR
STARTCHAR 02F8
ENCODING 760
SWIDTH 672 0
DWIDTH 14 0
BBX 11 19 2 0
BITMAP
3600
3200
1300
0000
FFE0
FFE0
C000
C000
C000
C000
FFC0
FFC0
C000
C000
C000
C000
C000
FFE0
FFE0
ENDCHAR
STARTCHAR 02F9
ENCODING 761
SWIDTH 576 0
DWIDTH 12 0
BBX 10 15 1 0
BITMAP
6C00
2600
3200
0000
1E00
7F80
E180
C0C0
FFC0
FFC0
C000
C080
E180
7F00
3E00
ENDCHAR
STARTCHAR 02FA
ENCODING 762
SWIDTH 672 0
DWIDTH 14 0
BBX 11 19 2 0
BITMAP
1E00
3100
2100
0000
FFE0
FFE0
C000
C000
C000
C000
FFC0
FFC0
C000
C000
C000
C000
C000
FFE0
FFE0
ENDCHAR
STARTCHAR 02FB
ENCODING 763
SWIDTH 576 0
DWIDTH 12 0
BBX 10 15 1 0
BITMAP
1E00
2300
2100
0000
1E00
7F80
E180
C0C0
FFC0
FFC0
C000
C080
E180
7F00
3E00
ENDCHAR
STARTCHAR 02FC
ENCODING 764
SWIDTH 288 0
DWIDTH 6 0
BBX 6 19 -1 0
BITMAP
D8
4C
64
00
18
18
18
18
18
18
18
18
18
18
18
18
18
18
18
ENDCHAR
STARTCHAR 02FD
ENCODING 765
SWIDTH 240 0
DWIDTH 5 0
BBX 7 15 -2 0
BITMAP
CC
6C
26
00
18
18
18
18
18
18
18
18
18
18
18
ENDCHAR
STARTCHAR 02FE
ENCODING 766
SWIDTH 288 0
DWIDTH 6 0
BBX 6 19 0 0
BITMAP
78
C4
84
00
30
30
30
30
30
30
30
30
30
30
30
30
30
30
30
ENDCHAR
STARTCHAR 02FF
ENCODING 767
SWIDTH 240 0
DWIDTH 5 0
BBX 6 15 -1 0
BITMAP
78
44
84
00
30
30
30
30
30
30
30
30
30
30
30
ENDCHAR
STARTCHAR 0300
ENCODING 768
SWIDTH 768 0
DWIDTH 16 0
BBX 14 19 1 0
BITMAP
1B00
0D80
0480
0000
0FC0
3FF0
7838
601C
E00C
C00C
C00C
C00C
C00C
C00C
E00C
6018
7838
3FF0
0FC0
ENDCHAR
STARTCHAR 0301
ENCODING 769
SWIDTH 576 0
DWIDTH 12 0
BBX 10 15 1 0
BITMAP
6C00
2600
3200
0000
3E00
7F00
E180
C1C0
C0C0
80C0
C0C0
C180
E180
7F00
3E00
ENDCHAR
STARTCHAR 0302
ENCODING 770
SWIDTH 768 0
DWIDTH 16 0
BBX 14 19 1 0
BITMAP
0780
0C40
0840
0000
0FC0
3FF0
7838
601C
E00C
C00C
C00C
C00C
C00C
C00C
E00C
6018
7838
3FF0
0FC0
ENDCHAR
STARTCHAR 0303
ENCODING 771
SWIDTH 576 0
DWIDTH 12 0
BBX 10 15 1 0
BITMAP
1E00
2200
2100
0000
3E00
7F00
E180
C1C0
C0C0
80C0
C0C0
C180
E180
7F00
3E00
ENDCHAR
STARTCHAR 0304
ENCODING 772
SWIDTH 720 0
DWIDTH 15 0
BBX 12 19 2 0
BITMAP
3600
3200
1B00
0000
FFC0
FFE0
C060
C070
C030
C070
C060
FFC0
FFE0
C060
C060
C060
C060
C070
C030
ENDCHAR
STARTCHAR 0305
ENCODING 773
SWIDTH 336 0
DWIDTH 7 0
BBX 7 15 0 0
BITMAP
D8
4C
64
00
66
6E
70
70
60
60
60
60
60
60
60
ENDCHAR
STARTCHAR 0306
ENCODING 774
SWIDTH 720 0
DWIDTH 15 0
BBX 12 18 2 0
BITMAP
1E00
3100
2100
FFC0
FFE0
C060
C070
C030
C070
C060
FFC0
FFE0
C060
C060
C060
C060
C070
C030
ENDCHAR
STARTCHAR 0307
ENCODING 775
SWIDTH 336 0
DWIDTH 7 0
BBX 6 15 1 0
BITMAP
78
CC
84
00
CC
DC
E0
E0
C0
C0
C0
C0
C0
C0
C0
ENDCHAR
STARTCHAR 0308
ENCODING 776
SWIDTH 720 0
DWIDTH 15 0
BBX 12 19 2 0
BITMAP
3600
1300
1900
0000
C070
C070
C070
C070
C070
C070
C070
C070
C060
C060
C060
C060
60E0
7FC0
1F00
ENDCHAR
STARTCHAR 0309
ENCODING 777
SWIDTH 576 0
DWIDTH 12 0
BBX 9 15 1 0
BITMAP
6C00
2600
3200
0000
C180
C180
C180
C180
C180
C180
C180
C180
E380
7F80
3D80
ENDCHAR
STARTCHAR 030A
ENCODING 778
SWIDTH 720 0
DWIDTH 15 0
BBX 12 19 2 0
BITMAP
0F00
1100
3080
0000
C070
C070
C070
C070
C070
C070
C070
C070
C060
C060
C060
C060
60E0
7FC0
1F00
ENDCHAR
STARTCHAR 030B
ENCODING 779
SWIDTH 576 0
DWIDTH 12 0
BBX 9 15 1 0
BITMAP
1E00
2300
2100
0000
C180
C180
C180
C180
C180
C180
C180
C180
E380
7F80
3D80
ENDCHAR
STARTCHAR 030C
ENCODING 780
SWIDTH 720 0
DWIDTH 15 0
BBX 12 18 2 0
BITMAP
1900
0B00
0E00
C070
C070
C070
C070
C070
C070
FFF0
FFF0
C070
C070
C070
C070
C070
C070
C070
ENDCHAR
STARTCHAR 030D
ENCODING 781
SWIDTH 576 0
DWIDTH 12 0
BBX 9 18 1 0
BITMAP
3300
1E00
0C00
C000
C000
C000
C000
CF00
DF80
E180
E180
C180
C180
C180
C180
C180
C180
C180
ENDCHAR
STARTCHAR 030E
ENCODING 782
SWIDTH 672 0
DWIDTH 14 0
BBX 13 18 0 0
BITMAP
0300
0300
0000
0300
0780
0780
0780
0CC0
0CC0
18E0
1860
1860
3FF0
3FF0
3030
6038
6018
E018
ENDCHAR
STARTCHAR 030F
ENCODING 783
SWIDTH 576 0
DWIDTH 12 0
BBX 10 15 1 0
BITMAP
0C00
0C00
0000
0000
3E00
7F00
6180
C180
0180
3F80
FD80
C180
C380
FFC0
78C0
ENDCHAR
STARTCHAR 0310
ENCODING 784
SWIDTH 672 0
DWIDTH 14 0
BBX 11 19 2 -4
BITMAP
FFE0
FFE0
C000
C000
C000
C000
FFC0
FFC0
C000
C000
C000
C000
C000
FFE0
FFE0
0400
0F00
0300
0E00
ENDCHAR
STARTCHAR 0311
ENCODING 785
SWIDTH 576 0
DWIDTH 12 0
BBX 10 15 1 -4
BITMAP
1E00
7F80
E180
C0C0
FFC0
FFC0
C000
C080
E180
7F00
3E00
0800
0E00
0200
1E00
ENDCHAR
STARTCHAR 0312
ENCODING 786
SWIDTH 768 0
DWIDTH 16 0
BBX 14 22 1 0
BITMAP
0FE0
0000
0000
0CC0
0CC0
0000
0000
0FC0
3FF0
7838
601C
E00C
C00C
C00C
C00C
C00C
C00C
E00C
6018
7838
3FF0
0FC0
ENDCHAR
STARTCHAR 0313
ENCODING 787
SWIDTH 576 0
DWIDTH 12 0
BBX 10 17 1 0
BITMAP
3F00
0000
3200
3200
0000
0000
3E00
7F00
E180
C1C0
C0C0
80C0
C0C0
C180
E180
7F00
3E00
ENDCHAR
STARTCHAR 0314
ENCODING 788
SWIDTH 768 0
DWIDTH 16 0
BBX 14 20 1 0
BITMAP
0FC0
0E60
09C0
0000
0000
0FC0
3FF0
7838
601C
E00C
C00C
C00C
C00C
C00C
C00C
E00C
6018
7838
3FF0
0FC0
ENDCHAR
STARTCHAR 0315
ENCODING 789
SWIDTH 576 0
DWIDTH 12 0
BBX 10 16 1 0
BITMAP
7F00
3900
4700
0000
0000
3E00
7F00
E180
C1C0
C0C0
80C0
C0C0
C180
E180
7F00
3E00
ENDCHAR
STARTCHAR 0316
ENCODING 790
SWIDTH 768 0
DWIDTH 16 0
BBX 14 19 1 0
BITMAP
0300
0300
0000
0000
0FC0
3FF0
7838
601C
E00C
C00C
C00C
C00C
C00C
C00C
E00C
6018
7838
3FF0
0FC0
ENDCHAR
STARTCHAR 0317
ENCODING 791
SWIDTH 576 0
DWIDTH 12 0
BBX 10 15 1 0
BITMAP
0C00
0C00
0000
0000
3E00
7F00
E180
C1C0
C0C0
80C0
C0C0
C180
E180
7F00
3E00
ENDCHAR
STARTCHAR 0318
ENCODING 792
SWIDTH 768 0
DWIDTH 16 0
BBX 14 21 1 0
BITMAP
0FC0
0000
0300
0300
0000
0000
0FC0
3FF0
7838
601C
E00C
C00C
C00C
C00C
C00C
C00C
E00C
6018
7838
3FF0
0FC0
ENDCHAR
STARTCHAR 0319
ENCODING 793
SWIDTH 576 0
DWIDTH 12 0
BBX 10 16 1 0
BITMAP
3F00
0C00
0C00
0000
0000
3E00
7F00
E180
C1C0
C0C0
80C0
C0C0
C180
E180
7F00
3E00
ENDCHAR
STARTCHAR 031A
ENCODING 794
SWIDTH 672 0
DWIDTH 14 0
BBX 12 17 1 0
BITMAP
1F80
0000
C030
E070
6060
30E0
30C0
1980
1F80
0F00
0F00
0600
0600
0600
0600
0600
0600
ENDCHAR
STARTCHAR 031B
ENCODING 795
SWIDTH 480 0
DWIDTH 10 0
BBX 10 17 0 -4
BITMAP
3F80
0000
C0C0
60C0
6180
6180
3180
3300
3300
1B00
1E00
1E00
0C00
0C00
0800
7800
7000
ENDCHAR
STARTCHAR 031C
ENCODING 796
SWIDTH 336 0
DWIDTH 7 0
BBX 5 5 1 10
BITMAP
D8
D8
48
48
90
ENDCHAR
STARTCHAR 031D
ENCODING 797
SWIDTH 288 0
DWIDTH 6 0
BBX 2 15 2 0
BITMAP
C0
C0
C0
C0
C0
C0
C0
C0
C0
C0
C0
C0
C0
C0
C0
ENDCHAR
STARTCHAR 031E
ENCODING 798
SWIDTH 672 0
DWIDTH 14 0
BBX 13 20 0 -5
BITMAP
0300
0780
0780
0780
0CC0
0CC0
18E0
1860
1860
3FF0
3FF0
3030
6038
6018
E018
0300
0480
0480
0480
0300
ENDCHAR
STARTCHAR 031F
ENCODING 799
SWIDTH 576 0
DWIDTH 12 0
BBX 10 17 1 -6
BITMAP
3E00
7F00
6180
C180
0180
3F80
FD80
C180
C380
FFC0
78C0
0000
1C00
1200
2200
1200
1C00
ENDCHAR
STARTCHAR 0320
ENCODING 800
SWIDTH 672 0
DWIDTH 14 0
BBX 11 19 2 0
BITMAP
0C00
0C00
0000
0000
FF00
FFC0
C0C0
C0C0
C0C0
C0C0
FF80
FFC0
C0E0
C060
C060
C060
C0E0
FFC0
FF80
ENDCHAR
STARTCHAR 0321
ENCODING 801
SWIDTH 576 0
DWIDTH 12 0
BBX 10 18 1 0
BITMAP
0C00
0C00
0000
C000
C000
C000
C000
DE00
FF80
E180
C0C0
C0C0
C0C0
C0C0
C180
E180
FF00
DE00
ENDCHAR
STARTCHAR 0322
ENCODING 802
SWIDTH 672 0
DWIDTH 14 0
BBX 11 18 2 -3
BITMAP
FF00
FFC0
C0C0
C0C0
C0C0
C0C0
FF80
FFC0
C0E0
C060
C060
C060
C0E0
FFC0
FF80
0000
0C00
0C00
ENDCHAR
STARTCHAR 0323
ENCODING 803
SWIDTH 576 0
DWIDTH 12 0
BBX 10 18 1 -3
BITMAP
C000
C000
C000
C000
DE00
FF80
E180
C0C0
C0C0
C0C0
C0C0
C180
E180
FF00
DE00
0000
0C00
0C00
ENDCHAR
STARTCHAR 0324
ENCODING 804
SWIDTH 672 0
DWIDTH 14 0
BBX 11 17 2 -2
BITMAP
FF00
FFC0
C0C0
C0C0
C0C0
C0C0
FF80
FFC0
C0E0
C060
C060
C060
C0E0
FFC0
FF80
0000
7F00
ENDCHAR
STARTCHAR 0325
ENCODING 805
SWIDTH 576 0
DWIDTH 12 0
BBX 10 17 1 -2
BITMAP
C000
C000
C000
C000
DE00
FF80
E180
C0C0
C0C0
C0C0
C0C0
C180
E180
FF00
DE00
0000
7F00
ENDCHAR
STARTCHAR 0326
ENCODING 806
SWIDTH 720 0
DWIDTH 15 0
BBX 13 24 1 -5
BITMAP
0300
0600
0400
0000
0FC0
3FE0
7870
6038
E018
C000
C000
C000
C000
C018
E018
6030
7070
3FE0
0F80
0200
0700
0180
0100
0F00
ENDCHAR
STARTCHAR 0327
ENCODING 807
SWIDTH 480 0
DWIDTH 10 0
BBX 9 19 1 -4
BITMAP
0C00
0800
1800
0000
3E00
7F00
E380
C180
C000
C000
C000
C180
E380
7F00
3E00
1000
1C00
0400
3C00
ENDCHAR
STARTCHAR 0328
ENCODING 808
SWIDTH 720 0
DWIDTH 15 0
BBX 12 19 2 0
BITMAP
1800
1800
0000
0000
FF00
FFC0
C0E0
C060
C070
C030
C030
C030
C030
C030
C070
C060
C0E0
FFC0
FF00
ENDCHAR
STARTCHAR 0329
ENCODING 809
SWIDTH 576 0
DWIDTH 12 0
BBX 9 18 1 0
BITMAP
0C00
0C00
0000
0180
0180
0180
0180
3D80
7F80
E380
C180
C180
C080
C180
C180
E380
7E80
3C80
ENDCHAR
STARTCHAR 032A
ENCODING 810
SWIDTH 720 0
DWIDTH 15 0
BBX 12 18 2 -3
BITMAP
FF00
FFC0
C0E0
C060
C070
C030
C030
C030
C030
C030
C070
C060
C0E0
FFC0
FF00
0000
0C00
0C00
ENDCHAR
STARTCHAR 032B
ENCODING 811
SWIDTH 576 0
DWIDTH 12 0
BBX 9 18 1 -3
BITMAP
0180
0180
0180
0180
3D80
7F80
E380
C180
C180
C080
C180
C180
E380
7E80
3C80
0000
0800
0800
ENDCHAR
STARTCHAR 032C
ENCODING 812
SWIDTH 720 0
DWIDTH 15 0
BBX 12 17 2 -2
BITMAP
FF00
FFC0
C0E0
C060
C070
C030
C030
C030
C030
C030
C070
C060
C0E0
FFC0
FF00
0000
3F00
ENDCHAR
STARTCHAR 032D
ENCODING 813
SWIDTH 576 0
DWIDTH 12 0
BBX 9 18 1 -3
BITMAP
0180
0180
0180
0180
3D80
7F80
E380
C180
C180
C080
C180
C180
E380
7E80
3C80
0000
0000
3F00
ENDCHAR
STARTCHAR 032E
ENCODING 814
SWIDTH 720 0
DWIDTH 15 0
BBX 12 21 2 -6
BITMAP
FF00
FFC0
C0E0
C060
C070
C030
C030
C030
C030
C030
C070
C060
C0E0
FFC0
FF00
0000
0C00
0C00
0400
0C00
0800
ENDCHAR
STARTCHAR 032F
ENCODING 815
SWIDTH 576 0
DWIDTH 12 0
BBX 9 22 1 -7
BITMAP
0180
0180
0180
0180
3D80
7F80
E380
C180
C180
C080
C180
C180
E380
7E80
3C80
0000
0000
0C00
0C00
0400
0400
0800
ENDCHAR
STARTCHAR 0330
ENCODING 816
SWIDTH 720 0
DWIDTH 15 0
BBX 12 19 2 -4
BITMAP
FF00
FFC0
C0E0
C060
C070
C030
C030
C030
C030
C030
C070
C060
C0E0
FFC0
FF00
0000
0C00
1E00
3300
ENDCHAR
STARTCHAR 0331
ENCODING 817
SWIDTH 576 0
DWIDTH 12 0
BBX 9 19 1 -4
BITMAP
0180
0180
0180
0180
3D80
7F80
E380
C180
C180
C080
C180
C180
E380
7E80
3C80
0000
1C00
3400
2200
ENDCHAR
STARTCHAR 0332
ENCODING 818
SWIDTH 672 0
DWIDTH 14 0
BBX 11 20 2 0
BITMAP
0C00
0400
0600
3F80
0000
FFE0
FFE0
C000
C000
C000
C000
FFC0
FFC0
C000
C000
C000
C000
C000
FFE0
FFE0
ENDCHAR
STARTCHAR 0333
ENCODING 819
SWIDTH 576 0
DWIDTH 12 0
BBX 10 17 1 0
BITMAP
1800
0C00
0400
0000
3F00
0000
1E00
7F80
E180
C0C0
FFC0
FFC0
C000
C080
E180
7F00
3E00
ENDCHAR
STARTCHAR 0334
ENCODING 820
SWIDTH 672 0
DWIDTH 14 0
BBX 11 20 2 0
BITMAP
0600
0C00
0800
3F80
0000
FFE0
FFE0
C000
C000
C000
C000
FFC0
FFC0
C000
C000
C000
C000
C000
FFE0
FFE0
ENDCHAR
STARTCHAR 0335
ENCODING 821
SWIDTH 576 0
DWIDTH 12 0
BBX 10 17 1 0
BITMAP
0C00
0800
1800
0000
3F00
0000
1E00
7F80
E180
C0C0
FFC0
FFC0
C000
C080
E180
7F00
3E00
ENDCHAR
STARTCHAR 0336
ENCODING 822
SWIDTH 672 0
DWIDTH 14 0
BBX 11 19 2 -4
BITMAP
FFE0
FFE0
C000
C000
C000
C000
FFC0
FFC0
C000
C000
C000
C000
C000
FFE0
FFE0
0000
0C00
1E00
3300
ENDCHAR
STARTCHAR 0337
ENCODING 823
SWIDTH 576 0
DWIDTH 12 0
BBX 10 16 1 -5
BITMAP
1E00
7F80
E180
C0C0
FFC0
FFC0
C000
C080
E180
7F00
3E00
0000
0000
1C00
1600
3200
ENDCHAR
STARTCHAR 0338
ENCODING 824
SWIDTH 672 0
DWIDTH 14 0
BBX 11 18 2 -3
BITMAP
FFE0
FFE0
C000
C000
C000
C000
FFC0
FFC0
C000
C000
C000
C000
C000
FFE0
FFE0
0000
1C80
2700
ENDCHAR
STARTCHAR 0339
ENCODING 825
SWIDTH 576 0
DWIDTH 12 0
BBX 10 14 1 -3
BITMAP
1E00
7F80
E180
C0C0
FFC0
FFC0
C000
C080
E180
7F00
3E00
0000
3900
2700
ENDCHAR
STARTCHAR 033A
ENCODING 826
SWIDTH 672 0
DWIDTH 14 0
BBX 11 23 2 -4
BITMAP
2080
1100
1E00
0000
FFE0
FFE0
C000
C000
C000
C000
FFC0
FFC0
C000
C000
C000
C000
C000
FFE0
FFE0
0400
0F00
0300
0E00
ENDCHAR
STARTCHAR 033B
ENCODING 827
SWIDTH 576 0
DWIDTH 12 0
BBX 10 19 1 -4
BITMAP
2100
2300
1E00
0000
1E00
7F80
E180
C0C0
FFC0
FFC0
C000
C080
E180
7F00
3E00
0800
0E00
0200
1E00
ENDCHAR
STARTCHAR 033C
ENCODING 828
SWIDTH 624 0
DWIDTH 13 0
BBX 10 19 2 0
BITMAP
0C00
0C00
0000
0000
FFC0
FFC0
C000
C000
C000
C000
FF80
FF80
C000
C000
C000
C000
C000
C000
C000
ENDCHAR
STARTCHAR 033D
ENCODING 829
SWIDTH 288 0
DWIDTH 6 0
BBX 5 19 0 0
BITMAP
30
30
00
00
18
38
30
30
F8
F8
30
30
30
30
30
30
30
30
30
ENDCHAR
STARTCHAR 033E
ENCODING 830
SWIDTH 768 0
DWIDTH 16 0
BBX 14 18 1 0
BITMAP
0FC0
0000
0000
0FC0
1FF0
3870
6018
6018
C000
C000
C1FC
C1FC
C00C
E00C
601C
783C
3FEC
0F8C
ENDCHAR
STARTCHAR 033F
ENCODING 831
SWIDTH 576 0
DWIDTH 12 0
BBX 9 18 1 -4
BITMAP
7F00
0000
0000
3D80
7F80
E380
C180
C180
C180
C180
C180
E380
7F80
3D80
0180
C380
FF00
3E00
ENDCHAR
STARTCHAR 0340
ENCODING 832
SWIDTH 720 0
DWIDTH 15 0
BBX 12 18 2 0
BITMAP
0600
0600
0000
C070
C070
C070
C070
C070
C070
FFF0
FFF0
C070
C070
C070
C070
C070
C070
C070
ENDCHAR
STARTCHAR 0341
ENCODING 833
SWIDTH 576 0
DWIDTH 12 0
BBX 9 18 1 0
BITMAP
0C00
0C00
0000
C000
C000
C000
C000
CF00
DF80
E180
E180
C180
C180
C180
C180
C180
C180
C180
ENDCHAR
STARTCHAR 0342
ENCODING 834
SWIDTH 720 0
DWIDTH 15 0
BBX 12 18 2 -3
BITMAP
C070
C070
C070
C070
C070
C070
FFF0
FFF0
C070
C070
C070
C070
C070
C070
C070
0000
0600
0600
ENDCHAR
STARTCHAR 0343
ENCODING 835
SWIDTH 576 0
DWIDTH 12 0
BBX 9 18 1 -3
BITMAP
C000
C000
C000
C000
CF00
DF80
E180
E180
C180
C180
C180
C180
C180
C180
C180
0000
0C00
0C00
ENDCHAR
STARTCHAR 0344
ENCODING 836
SWIDTH 720 0
DWIDTH 15 0
BBX 12 18 2 0
BITMAP
1B00
1B00
0000
C070
C070
C070
C070
C070
C070
FFF0
FFF0
C070
C070
C070
C070
C070
C070
C070
ENDCHAR
STARTCHAR 0345
ENCODING 837
SWIDTH 576 0
DWIDTH 12 0
BBX 9 18 1 0
BITMAP
3300
3300
0000
C000
C000
C000
C000
CF00
DF80
E180
E180
C180
C180
C180
C180
C180
C180
C180
ENDCHAR
STARTCHAR 0346
ENCODING 838
SWIDTH 720 0
DWIDTH 15 0
BBX 13 19 1 -4
BITMAP
6038
6038
6038
6038
6038
6038
7FF8
7FF8
6038
6038
6038
6038
6038
6038
6038
4000
F000
3000
E000
ENDCHAR
STARTCHAR 0347
ENCODING 839
SWIDTH 576 0
DWIDTH 12 0
BBX 10 19 0 -4
BITMAP
6000
6000
6000
6000
6780
6FC0
70C0
70C0
60C0
60C0
60C0
60C0
60C0
60C0
60C0
2000
7000
1800
F000
ENDCHAR
STARTCHAR 0348
ENCODING 840
SWIDTH 720 0
DWIDTH 15 0
BBX 12 19 2 -4
BITMAP
C070
C070
C070
C070
C070
C070
FFF0
FFF0
C070
C070
C070
C070
C070
C070
C070
0000
1080
1100
0F00
ENDCHAR
STARTCHAR 0349
ENCODING 841
SWIDTH 576 0
DWIDTH 12 0
BBX 9 19 1 -4
BITMAP
C000
C000
C000
C000
CF00
DF80
E180
E180
C180
C180
C180
C180
C180
C180
C180
0000
2100
2300
1E00
ENDCHAR
STARTCHAR 034A
ENCODING 842
SWIDTH 288 0
DWIDTH 6 0
BBX 7 18 0 -3
BITMAP
30
30
30
30
30
30
30
30
30
30
30
30
30
30
30
00
72
9C
ENDCHAR
STARTCHAR 034B
ENCODING 843
SWIDTH 240 0
DWIDTH 5 0
BBX 7 18 -1 -3
BITMAP
30
30
00
00
30
30
30
30
30
30
30
30
30
30
30
00
72
9C
ENDCHAR
STARTCHAR 034C
ENCODING 844
SWIDTH 288 0
DWIDTH 6 0
BBX 6 22 0 0
BITMAP
18
10
30
00
CC
CC
00
30
30
30
30
30
30
30
30
30
30
30
30
30
30
30
ENDCHAR
STARTCHAR 034D
ENCODING 845
SWIDTH 288 0
DWIDTH 6 0
BBX 5 18 0 0
BITMAP
18
30
20
00
C8
C8
00
30
30
30
30
30
30
30
30
30
30
30
ENDCHAR
STARTCHAR 034E
ENCODING 846
SWIDTH 672 0
DWIDTH 14 0
BBX 11 18 2 0
BITMAP
0E00
0C00
1800
C0E0
C1C0
C380
C700
CE00
DC00
FC00
FC00
E600
C700
C380
C180
C1C0
C0E0
C060
ENDCHAR
STARTCHAR 034F
ENCODING 847
SWIDTH 480 0
DWIDTH 10 0
BBX 9 18 1 0
BITMAP
0600
0C00
1800
C000
C000
C000
C000
C380
C700
CE00
DC00
F800
EC00
CC00
C600
C700
C300
C180
ENDCHAR
STARTCHAR 0350
ENCODING 848
SWIDTH 672 0
DWIDTH 14 0
BBX 11 18 2 -3
BITMAP
C0E0
C1C0
C380
C700
CE00
DC00
FC00
FC00
E600
C700
C380
C180
C1C0
C0E0
C060
0000
0C00
0C00
ENDCHAR
STARTCHAR 0351
ENCODING 849
SWIDTH 480 0
DWIDTH 10 0
BBX 9 18 1 -3
BITMAP
C000
C000
C000
C000
C380
C700
CE00
DC00
F800
EC00
CC00
C600
C700
C300
C180
0000
1800
1800
ENDCHAR
STARTCHAR 0352
ENCODING 850
SWIDTH 672 0
DWIDTH 14 0
BBX 11 17 2 -2
BITMAP
C0E0
C1C0
C380
C700
CE00
DC00
FC00
FC00
E600
C700
C380
C180
C1C0
C0E0
C060
0000
3F00
ENDCHAR
STARTCHAR 0353
ENCODING 851
SWIDTH 480 0
DWIDTH 10 0
BBX 9 17 1 -2
BITMAP
C000
C000
C000
C000
C380
C700
CE00
DC00
F800
EC00
CC00
C600
C700
C300
C180
0000
3F00
ENDCHAR
STARTCHAR 0354
ENCODING 852
SWIDTH 576 0
DWIDTH 12 0
BBX 9 18 2 -3
BITMAP
C000
C000
C000
C000
C000
C000
C000
C000
C000
C000
C000
C000
C000
FF80
FF80
0000
0C00
0C00
ENDCHAR
STARTCHAR 0355
ENCODING 853
SWIDTH 240 0
DWIDTH 5 0
BBX 2 18 1 -3
BITMAP
C0
C0
C0
C0
C0
C0
C0
C0
C0
C0
C0
C0
C0
C0
C0
00
40
40
ENDCHAR
STARTCHAR 0356
ENCODING 854
SWIDTH 576 0
DWIDTH 12 0
BBX 9 20 2 -3
BITMAP
7F00
0000
C000
C000
C000
C000
C000
C000
C000
C000
C000
C000
C000
C000
C000
FF80
FF80
0000
0C00
0C00
ENDCHAR
STARTCHAR 0357
ENCODING 855
SWIDTH 240 0
DWIDTH 5 0
BBX 7 20 -1 -3
BITMAP
FE
00
30
30
30
30
30
30
30
30
30
30
30
30
30
30
30
00
30
30
ENDCHAR
STARTCHAR 0358
ENCODING 856
SWIDTH 576 0
DWIDTH 12 0
BBX 9 17 2 -2
BITMAP
C000
C000
C000
C000
C000
C000
C000
C000
C000
C000
C000
C000
C000
FF80
FF80
0000
7F00
ENDCHAR
STARTCHAR 0359
ENCODING 857
SWIDTH 240 0
DWIDTH 5 0
BBX 7 17 -1 -2
BITMAP
30
30
30
30
30
30
30
30
30
30
30
30
30
30
30
00
FE
ENDCHAR
STARTCHAR 035A
ENCODING 858
SWIDTH 576 0
DWIDTH 12 0
BBX 9 19 2 -4
BITMAP
C000
C000
C000
C000
C000
C000
C000
C000
C000
C000
C000
C000
C000
FF80
FF80
0000
1800
3C00
6600
ENDCHAR
STARTCHAR 035B
ENCODING 859
SWIDTH 240 0
DWIDTH 5 0
BBX 5 19 0 -4
BITMAP
60
60
60
60
60
60
60
60
60
60
60
60
60
60
60
00
70
D0
98
ENDCHAR
STARTCHAR 035C
ENCODING 860
SWIDTH 816 0
DWIDTH 17 0
BBX 14 18 2 0
BITMAP
0380
0300
0600
E01C
E03C
E03C
B03C
B06C
906C
986C
98CC
88CC
8CCC
8D8C
858C
878C
870C
830C
ENDCHAR
STARTCHAR 035D
ENCODING 861
SWIDTH 816 0
DWIDTH 17 0
BBX 15 15 1 0
BITMAP
0180
0180
0300
0000
CE3C
DF7E
E3C6
E186
C186
C186
C186
C186
C186
C186
C186
ENDCHAR
STARTCHAR 035E
ENCODING 862
SWIDTH 816 0
DWIDTH 17 0
BBX 14 18 2 0
BITMAP
0300
0300
0000
E01C
E03C
E03C
B03C
B06C
906C
986C
98CC
88CC
8CCC
8D8C
858C
878C
870C
830C
ENDCHAR
STARTCHAR 035F
ENCODING 863
SWIDTH 816 0
DWIDTH 17 0
BBX 15 15 1 0
BITMAP
0180
0180
0000
0000
CE3C
DF7E
E3C6
E186
C186
C186
C186
C186
C186
C186
C186
ENDCHAR
STARTCHAR 0360
ENCODING 864
SWIDTH 816 0
DWIDTH 17 0
BBX 14 18 2 -3
BITMAP
E01C
E03C
E03C
B03C
B06C
906C
986C
98CC
88CC
8CCC
8D8C
858C
878C
870C
830C
0000
0300
0300
ENDCHAR
STARTCHAR 0361
ENCODING 865
SWIDTH 816 0
DWIDTH 17 0
BBX 15 14 1 -3
BITMAP
CE3C
DF7E
E3C6
E186
C186
C186
C186
C186
C186
C186
C186
0000
0180
0180
ENDCHAR
STARTCHAR 0362
ENCODING 866
SWIDTH 720 0
DWIDTH 15 0
BBX 11 18 2 0
BITMAP
0600
0600
0000
C020
E020
F020
F020
D820
D820
CC20
CE20
C620
C320
C3A0
C1A0
C0E0
C0E0
C060
ENDCHAR
STARTCHAR 0363
ENCODING 867
SWIDTH 576 0
DWIDTH 12 0
BBX 9 15 1 0
BITMAP
0C00
0C00
0000
0000
CF00
DF80
E180
E180
C180
C180
C180
C180
C180
C180
C180
ENDCHAR
STARTCHAR 0364
ENCODING 868
SWIDTH 720 0
DWIDTH 15 0
BBX 11 18 2 -3
BITMAP
C020
E020
F020
F020
D820
D820
CC20
CE20
C620
C320
C3A0
C1A0
C0E0
C0E0
C060
0000
0600
0600
ENDCHAR
STARTCHAR 0365
ENCODING 869
SWIDTH 576 0
DWIDTH 12 0
BBX 9 14 1 -3
BITMAP
CF00
DF80
E180
E180
C180
C180
C180
C180
C180
C180
C180
0000
0C00
0C00
ENDCHAR
STARTCHAR 0366
ENCODING 870
SWIDTH 720 0
DWIDTH 15 0
BBX 11 17 2 -2
BITMAP
C020
E020
F020
F020
D820
D820
CC20
CE20
C620
C320
C3A0
C1A0
C0E0
C0E0
C060
0000
1F80
ENDCHAR
STARTCHAR 0367
ENCODING 871
SWIDTH 576 0
DWIDTH 12 0
BBX 9 13 1 -2
BITMAP
CF00
DF80
E180
E180
C180
C180
C180
C180
C180
C180
C180
0000
3F00
ENDCHAR
STARTCHAR 0368
ENCODING 872
SWIDTH 720 0
DWIDTH 15 0
BBX 11 19 2 -4
BITMAP
C020
E020
F020
F020
D820
D820
CC20
CE20
C620
C320
C3A0
C1A0
C0E0
C0E0
C060
0000
0E00
1A00
1300
ENDCHAR
STARTCHAR 0369
ENCODING 873
SWIDTH 576 0
DWIDTH 12 0
BBX 9 15 1 -4
BITMAP
CF00
DF80
E180
E180
C180
C180
C180
C180
C180
C180
C180
0000
1C00
1600
2200
ENDCHAR
STARTCHAR 036A
ENCODING 874
SWIDTH 768 0
DWIDTH 16 0
BBX 14 22 1 0
BITMAP
0300
0300
0600
0E60
09C0
0000
0000
0FC0
3FF0
7838
601C
E00C
C00C
C00C
C00C
C00C
C00C
E00C
6018
7838
3FF0
0FC0
ENDCHAR
STARTCHAR 036B
ENCODING 875
SWIDTH 576 0
DWIDTH 12 0
BBX 10 18 1 0
BITMAP
0C00
0800
1800
3900
4E00
0000
0000
3E00
7F00
E180
C1C0
C0C0
80C0
C0C0
C180
E180
7F00
3E00
ENDCHAR
STARTCHAR 036C
ENCODING 876
SWIDTH 768 0
DWIDTH 16 0
BBX 14 21 1 0
BITMAP
0C80
0C80
0000
0E40
11C0
0000
0FC0
3FF0
7838
601C
E00C
C00C
C00C
C00C
C00C
C00C
E00C
6018
7838
3FF0
0FC0
ENDCHAR
STARTCHAR 036D
ENCODING 877
SWIDTH 576 0
DWIDTH 12 0
BBX 10 17 1 0
BITMAP
3600
3600
0000
3900
4700
0000
3E00
7F00
E180
C1C0
C0C0
80C0
C0C0
C180
E180
7F00
3E00
ENDCHAR
STARTCHAR 036E
ENCODING 878
SWIDTH 768 0
DWIDTH 16 0
BBX 14 21 1 0
BITMAP
0700
0300
0180
0000
0FC0
0000
0FC0
3FF0
7838
601C
E00C
C00C
C00C
C00C
C00C
C00C
E00C
6018
7838
3FF0
0FC0
ENDCHAR
STARTCHAR 036F
ENCODING 879
SWIDTH 576 0
DWIDTH 12 0
BBX 10 17 1 0
BITMAP
1800
0C00
0400
0000
7F00
0000
3E00
7F00
E180
C1C0
C0C0
80C0
C0C0
C180
E180
7F00
3E00
ENDCHAR
STARTCHAR 0370
ENCODING 880
SWIDTH 768 0
DWIDTH 16 0
BBX 14 21 1 0
BITMAP
0380
0300
0600
0000
0FC0
0000
0FC0
3FF0
7838
601C
E00C
C00C
C00C
C00C
C00C
C00C
E00C
6018
7838
3FF0
0FC0
ENDCHAR
STARTCHAR 0371
ENCODING 881
SWIDTH 576 0
DWIDTH 12 0
BBX 10 17 1 0
BITMAP
0C00
0800
1800
0000
7F00
0000
3E00
7F00
E180
C1C0
C0C0
80C0
C0C0
C180
E180
7F00
3E00
ENDCHAR
STARTCHAR 0372
ENCODING 882
SWIDTH 672 0
DWIDTH 14 0
BBX 11 18 2 0
BITMAP
0600
0C00
1800
FF80
FFC0
C0E0
C060
C060
C060
C0E0
FFC0
FF80
C000
C000
C000
C000
C000
C000
ENDCHAR
STARTCHAR 0373
ENCODING 883
SWIDTH 576 0
DWIDTH 12 0
BBX 10 19 1 -4
BITMAP
0600
0C00
1800
0000
CE00
FF80
E180
C0C0
C0C0
C0C0
C0C0
C1C0
E180
FF80
DE00
C000
C000
C000
C000
ENDCHAR
STARTCHAR 0374
ENCODING 884
SWIDTH 672 0
DWIDTH 14 0
BBX 11 19 2 0
BITMAP
0C00
0C00
0000
0000
FF80
FFC0
C0E0
C060
C060
C060
C0E0
FFC0
FF80
C000
C000
C000
C000
C000
C000
ENDCHAR
STARTCHAR 0375
ENCODING 885
SWIDTH 576 0
DWIDTH 12 0
BBX 10 19 1 -4
BITMAP
0C00
0C00
0000
0000
CE00
FF80
E180
C0C0
C0C0
C0C0
C0C0
C1C0
E180
FF80
DE00
C000
C000
C000
C000
ENDCHAR
STARTCHAR 0376
ENCODING 886
SWIDTH 720 0
DWIDTH 15 0
BBX 12 19 2 0
BITMAP
0C00
0C00
0000
0000
FFC0
FFE0
C060
C070
C030
C070
C060
FFC0
FFE0
C060
C060
C060
C060
C070
C030
ENDCHAR
STARTCHAR 0377
ENCODING 887
SWIDTH 336 0
DWIDTH 7 0
BBX 6 15 1 0
BITMAP
C0
C0
00
00
CC
DC
E0
E0
C0
C0
C0
C0
C0
C0
C0
ENDCHAR
STARTCHAR 0378
ENCODING 888
SWIDTH 720 0
DWIDTH 15 0
BBX 12 18 2 -3
BITMAP
FFC0
FFE0
C060
C070
C030
C070
C060
FFC0
FFE0
C060
C060
C060
C060
C070
C030
0000
0600
0600
ENDCHAR
STARTCHAR 0379
ENCODING 889
SWIDTH 336 0
DWIDTH 7 0
BBX 6 14 1 -3
BITMAP
CC
DC
E0
E0
C0
C0
C0
C0
C0
C0
C0
00
C0
C0
ENDCHAR
STARTCHAR 037A
ENCODING 890
SWIDTH 720 0
DWIDTH 15 0
BBX 12 20 2 -3
BITMAP
3F80
0000
FFC0
FFE0
C060
C070
C030
C070
C060
FFC0
FFE0
C060
C060
C060
C060
C070
C030
0000
0C00
0C00
ENDCHAR
STARTCHAR 037B
ENCODING 891
SWIDTH 336 0
DWIDTH 7 0
BBX 6 16 1 -3
BITMAP
FC
00
CC
DC
E0
E0
C0
C0
C0
C0
C0
C0
C0
00
C0
C0
ENDCHAR
STARTCHAR 037C
ENCODING 892
SWIDTH 720 0
DWIDTH 15 0
BBX 12 17 2 -2
BITMAP
FFC0
FFE0
C060
C070
C030
C070
C060
FFC0
FFE0
C060
C060
C060
C060
C070
C030
0000
3F80
ENDCHAR
STARTCHAR 037D
ENCODING 893
SWIDTH 336 0
DWIDTH 7 0
BBX 7 13 0 -2
BITMAP
66
6E
70
70
60
60
60
60
60
60
60
00
FE
ENDCHAR
STARTCHAR 037E
ENCODING 894
SWIDTH 672 0
DWIDTH 14 0
BBX 12 19 1 0
BITMAP
0600
0600
0000
0000
1F80
3FC0
60E0
6060
4060
6000
7E00
3FC0
03E0
0030
C030
C030
6070
7FE0
1F80
ENDCHAR
STARTCHAR 037F
ENCODING 895
SWIDTH 480 0
DWIDTH 10 0
BBX 9 15 1 0
BITMAP
1800
1800
0000
0000
3E00
7F00
C300
C000
F000
3F00
0700
C180
C380
FF00
3E00
ENDCHAR
STARTCHAR 0380
ENCODING 896
SWIDTH 672 0
DWIDTH 14 0
BBX 12 18 1 -3
BITMAP
1F80
3FC0
60E0
6060
4060
6000
7E00
3FC0
03E0
0030
C030
C030
6070
7FE0
1F80
0000
0600
0600
ENDCHAR
STARTCHAR 0381
ENCODING 897
SWIDTH 480 0
DWIDTH 10 0
BBX 9 14 1 -3
BITMAP
3E00
7F00
C300
C000
F000
3F00
0700
C180
C380
FF00
3E00
0000
1800
1800
ENDCHAR
STARTCHAR 0382
ENCODING 898
SWIDTH 672 0
DWIDTH 14 0
BBX 12 23 1 0
BITMAP
0300
0300
0000
0000
0300
0600
0C00
0000
1F80
3FC0
60E0
6060
4060
6000
7E00
3FC0
03E0
0030
C030
C030
6070
7FE0
1F80
ENDCHAR
STARTCHAR 0383
ENCODING 899
SWIDTH 480 0
DWIDTH 10 0
BBX 9 18 1 0
BITMAP
0C00
0C00
0000
0E00
0C00
1800
0000
3E00
7F00
C300
C000
F000
3F00
0700
C180
C380
FF00
3E00
ENDCHAR
STARTCHAR 0384
ENCODING 900
SWIDTH 672 0
DWIDTH 14 0
BBX 12 22 1 0
BITMAP
0600
0600
0000
1980
0F00
0600
0000
1F80
3FC0
60E0
6060
4060
6000
7E00
3FC0
03E0
0030
C030
C030
6070
7FE0
1F80
ENDCHAR
STARTCHAR 0385
ENCODING 901
SWIDTH 480 0
DWIDTH 10 0
BBX 9 18 1 0
BITMAP
1800
1800
0000
2600
3400
1C00
0000
3E00
7F00
C300
C000
F000
3F00
0700
C180
C380
FF00
3E00
ENDCHAR
STARTCHAR 0386
ENCODING 902
SWIDTH 672 0
DWIDTH 14 0
BBX 12 22 1 -3
BITMAP
0600
0600
0000
0000
1F80
3FC0
60E0
6060
4060
6000
7E00
3FC0
03E0
0030
C030
C030
6070
7FE0
1F80
0000
0600
0600
ENDCHAR
STARTCHAR 0387
ENCODING 903
SWIDTH 480 0
DWIDTH 10 0
BBX 9 18 1 -3
BITMAP
1800
1800
0000
0000
3E00
7F00
C300
C000
F000
3F00
0700
C180
C380
FF00
3E00
0000
1800
1800
ENDCHAR
STARTCHAR 0388
ENCODING 904
SWIDTH 624 0
DWIDTH 13 0
BBX 12 18 0 0
BITMAP
0300
0300
0000
FFF0
FFF0
0600
0600
0600
0600
0600
0600
0600
0600
0600
0600
0600
0600
0600
ENDCHAR
STARTCHAR 0389
ENCODING 905
SWIDTH 288 0
DWIDTH 6 0
BBX 5 17 0 0
BITMAP
30
30
00
30
30
30
F8
F8
30
30
30
30
30
30
30
38
38
ENDCHAR
STARTCHAR 038A
ENCODING 906
SWIDTH 624 0
DWIDTH 13 0
BBX 12 18 0 -3
BITMAP
FFF0
FFF0
0600
0600
0600
0600
0600
0600
0600
0600
0600
0600
0600
0600
0600
0000
0600
0600
ENDCHAR
STARTCHAR 038B
ENCODING 907
SWIDTH 288 0
DWIDTH 6 0
BBX 5 17 0 -3
BITMAP
30
30
30
F8
F8
30
30
30
30
30
30
30
38
38
00
30
30
ENDCHAR
STARTCHAR 038C
ENCODING 908
SWIDTH 624 0
DWIDTH 13 0
BBX 12 17 0 -2
BITMAP
FFF0
FFF0
0600
0600
0600
0600
0600
0600
0600
0600
0600
0600
0600
0600
0600
0000
1FC0
ENDCHAR
STARTCHAR 038D
ENCODING 909
SWIDTH 288 0
DWIDTH 6 0
BBX 6 16 0 -2
BITMAP
30
30
30
F8
F8
30
30
30
30
30
30
30
38
38
00
FC
ENDCHAR
STARTCHAR 038E
ENCODING 910
SWIDTH 624 0
DWIDTH 13 0
BBX 12 19 0 -4
BITMAP
FFF0
FFF0
0600
0600
0600
0600
0600
0600
0600
0600
0600
0600
0600
0600
0600
0000
0700
0D00
0980
ENDCHAR
STARTCHAR 038F
ENCODING 911
SWIDTH 288 0
DWIDTH 6 0
BBX 5 19 0 -5
BITMAP
30
30
30
F8
F8
30
30
30
30
30
30
30
38
38
00
00
70
58
C8
ENDCHAR
STARTCHAR 0390
ENCODING 912
SWIDTH 720 0
DWIDTH 15 0
BBX 12 18 2 -3
BITMAP
C070
C070
C070
C070
C070
C070
C070
C070
C060
C060
C060
C060
60E0
7FC0
1F00
0000
1900
1900
ENDCHAR
STARTCHAR 0391
ENCODING 913
SWIDTH 576 0
DWIDTH 12 0
BBX 9 14 1 -3
BITMAP
C180
C180
C180
C180
C180
C180
C180
C180
E380
7F80
3D80
0000
3300
3300
ENDCHAR
STARTCHAR 0392
ENCODING 914
SWIDTH 720 0
DWIDTH 15 0
BBX 12 18 2 -3
BITMAP
C070
C070
C070
C070
C070
C070
C070
C070
C060
C060
C060
C060
60E0
7FC0
1F00
0000
1C80
2380
ENDCHAR
STARTCHAR 0393
ENCODING 915
SWIDTH 576 0
DWIDTH 12 0
BBX 9 14 1 -3
BITMAP
C180
C180
C180
C180
C180
C180
C180
C180
E380
7F80
3D80
0000
3900
2700
ENDCHAR
STARTCHAR 0394
ENCODING 916
SWIDTH 720 0
DWIDTH 15 0
BBX 12 20 2 -5
BITMAP
C070
C070
C070
C070
C070
C070
C070
C070
C060
C060
C060
C060
60E0
7FC0
1F00
0000
0000
0E00
1A00
1300
ENDCHAR
STARTCHAR 0395
ENCODING 917
SWIDTH 576 0
DWIDTH 12 0
BBX 9 15 1 -4
BITMAP
C180
C180
C180
C180
C180
C180
C180
C180
E380
7F80
3D80
0000
1C00
3400
2600
ENDCHAR
STARTCHAR 0396
ENCODING 918
SWIDTH 720 0
DWIDTH 15 0
BBX 12 22 2 0
BITMAP
0600
0400
0C00
0000
1C80
2700
0000
C070
C070
C070
C070
C070
C070
C070
C070
C060
C060
C060
C060
60E0
7FC0
1F00
ENDCHAR
STARTCHAR 0397
ENCODING 919
SWIDTH 576 0
DWIDTH 12 0
BBX 9 18 1 0
BITMAP
0600
0C00
1800
0000
3900
4700
0000
C180
C180
C180
C180
C180
C180
C180
C180
E380
7F80
3D80
ENDCHAR
STARTCHAR 0398
ENCODING 920
SWIDTH 720 0
DWIDTH 15 0
BBX 12 20 2 0
BITMAP
1900
1900
0000
1F80
0000
C070
C070
C070
C070
C070
C070
C070
C070
C060
C060
C060
C060
60E0
7FC0
1F00
ENDCHAR
STARTCHAR 0399
ENCODING 921
SWIDTH 576 0
DWIDTH 12 0
BBX 9 17 1 0
BITMAP
3600
3600
0000
0000
3F00
0000
C180
C180
C180
C180
C180
C180
C180
C180
E380
7F80
3D80
ENDCHAR
STARTCHAR 039A
ENCODING 922
SWIDTH 672 0
DWIDTH 14 0
BBX 12 18 1 0
BITMAP
1C40
1380
0000
C030
C030
E070
6060
6060
30E0
30C0
30C0
1980
1980
1D80
0F00
0F00
0F00
0600
ENDCHAR
STARTCHAR 039B
ENCODING 923
SWIDTH 480 0
DWIDTH 10 0
BBX 10 15 0 0
BITMAP
1C80
2700
0000
0000
C0C0
60C0
6180
6180
3180
3300
3300
1A00
1E00
0E00
0C00
ENDCHAR
STARTCHAR 039C
ENCODING 924
SWIDTH 672 0
DWIDTH 14 0
BBX 12 18 1 -3
BITMAP
C030
C030
E070
6060
6060
30E0
30C0
30C0
1980
1980
1D80
0F00
0F00
0F00
0600
0000
0600
0600
ENDCHAR
STARTCHAR 039D
ENCODING 925
SWIDTH 480 0
DWIDTH 10 0
BBX 10 14 0 -3
BITMAP
C0C0
60C0
6180
6180
3180
3300
3300
1A00
1E00
0E00
0C00
0000
0C00
0C00
ENDCHAR
STARTCHAR 039E
ENCODING 926
SWIDTH 960 0
DWIDTH 20 0
BBX 18 19 1 0
BITMAP
018000
018000
00C000
000000
C0C0C0
C1C0C0
C1E0C0
C1E180
636180
633180
633180
633300
363300
361B00
361B00
3C1E00
1C0E00
1C0E00
1C0E00
ENDCHAR
STARTCHAR 039F
ENCODING 927
SWIDTH 720 0
DWIDTH 15 0
BBX 15 15 0 0
BITMAP
0600
0300
0100
0000
C386
638C
638C
628C
66C8
36D8
34D8
3450
1C70
1C70
1870
ENDCHAR
STARTCHAR 03A0
ENCODING 928
SWIDTH 960 0
DWIDTH 20 0
BBX 18 19 1 0
BITMAP
006000
006000
00C000
000000
C0C0C0
C1C0C0
C1E0C0
C1E180
636180
633180
633180
633300
363300
361B00
361B00
3C1E00
1C0E00
1C0E00
1C0E00
ENDCHAR
STARTCHAR 03A1
ENCODING 929
SWIDTH 720 0
DWIDTH 15 0
BBX 15 15 0 0
BITMAP
00C0
0180
0100
0000
C386
638C
638C
628C
66C8
36D8
34D8
3450
1C70
1C70
1870
ENDCHAR
STARTCHAR 03A2
ENCODING 930
SWIDTH 960 0
DWIDTH 20 0
BBX 18 18 1 0
BITMAP
033000
033000
000000
C0C0C0
C1C0C0
C1E0C0
C1E180
636180
633180
633180
633300
363300
361B00
361B00
3C1E00
1C0E00
1C0E00
1C0E00
ENDCHAR
STARTCHAR 03A3
ENCODING 931
SWIDTH 720 0
DWIDTH 15 0
BBX 15 15 0 0
BITMAP
06C0
06C0
0000
0000
C386
638C
638C
628C
66C8
36D8
34D8
3450
1C70
1C70
1870
ENDCHAR
STARTCHAR 03A4
ENCODING 932
SWIDTH 960 0
DWIDTH 20 0
BBX 18 18 1 0
BITMAP
00C000
00C000
000000
C0C0C0
C1C0C0
C1E0C0
C1E180
636180
633180
633180
633300
363300
361B00
361B00
3C1E00
1C0E00
1C0E00
1C0E00
ENDCHAR
STARTCHAR 03A5
ENCODING 933
SWIDTH 720 0
DWIDTH 15 0
BBX 15 15 0 0
BITMAP
0300
0300
0000
0000
C386
638C
638C
628C
66C8
36D8
34D8
3450
1C70
1C70
1870
ENDCHAR
STARTCHAR 03A6
ENCODING 934
SWIDTH 960 0
DWIDTH 20 0
BBX 18 18 1 -3
BITMAP
C0C0C0
C1C0C0
C1E0C0
C1E180
636180
633180
633180
633300
363300
361B00
361B00
3C1E00
1C0E00
1C0E00
1C0E00
000000
00C000
00C000
ENDCHAR
STARTCHAR 03A7
ENCODING 935
SWIDTH 720 0
DWIDTH 15 0
BBX 15 14 0 -3
BITMAP
C386
638C
638C
628C
66C8
36D8
34D8
3450
1C70
1C70
1870
0000
0300
0300
ENDCHAR
STARTCHAR 03A8
ENCODING 936
SWIDTH 672 0
DWIDTH 14 0
BBX 12 18 1 0
BITMAP
0600
0600
0000
E030
6060
70E0
38C0
1980
0F80
0F00
0600
0F00
1F80
1980
30C0
70E0
E070
C030
ENDCHAR
STARTCHAR 03A9
ENCODING 937
SWIDTH 480 0
DWIDTH 10 0
BBX 10 15 0 0
BITMAP
0C00
0C00
0000
0000
61C0
7180
3300
1F00
1E00
0C00
1E00
3F00
3300
6180
E1C0
ENDCHAR
STARTCHAR 03AA
ENCODING 938
SWIDTH 672 0
DWIDTH 14 0
BBX 12 18 1 0
BITMAP
1980
1980
0000
E030
6060
70E0
38C0
1980
0F80
0F00
0600
0F00
1F80
1980
30C0
70E0
E070
C030
ENDCHAR
STARTCHAR 03AB
ENCODING 939
SWIDTH 480 0
DWIDTH 10 0
BBX 10 15 0 0
BITMAP
3300
3300
0000
0000
61C0
7180
3300
1F00
1E00
0C00
1E00
3F00
3300
6180
E1C0
ENDCHAR
STARTCHAR 03AC
ENCODING 940
SWIDTH 672 0
DWIDTH 14 0
BBX 12 18 1 0
BITMAP
0600
0600
0000
C030
E070
6060
30E0
30C0
1980
1F80
0F00
0F00
0600
0600
0600
0600
0600
0600
ENDCHAR
STARTCHAR 03AD
ENCODING 941
SWIDTH 480 0
DWIDTH 10 0
BBX 10 19 0 -4
BITMAP
0C00
0C00
0000
0000
C0C0
60C0
6180
6180
3180
3300
3300
1B00
1E00
1E00
0C00
0C00
0800
7800
7000
ENDCHAR
STARTCHAR 03AE
ENCODING 942
SWIDTH 624 0
DWIDTH 13 0
BBX 12 19 0 0
BITMAP
0700
0D00
0980
0000
7FF0
7FF0
0070
00E0
00C0
0180
0300
0700
0E00
1C00
1800
3000
6000
FFF0
FFF0
ENDCHAR
STARTCHAR 03AF
ENCODING 943
SWIDTH 480 0
DWIDTH 10 0
BBX 9 15 1 0
BITMAP
1800
3C00
6600
0000
FF00
FF00
0300
0600
0C00
1800
3000
6000
C000
FF80
FF80
ENDCHAR
STARTCHAR 03B0
ENCODING 944
SWIDTH 624 0
DWIDTH 13 0
BBX 12 18 0 -3
BITMAP
7FF0
7FF0
0070
00E0
00C0
0180
0300
0700
0E00
1C00
1800
3000
6000
FFF0
FFF0
0000
0300
0300
ENDCHAR
STARTCHAR 03B1
ENCODING 945
SWIDTH 480 0
DWIDTH 10 0
BBX 9 14 1 -3
BITMAP
FF00
FF00
0300
0600
0C00
1800
3000
6000
C000
FF80
FF80
0000
1800
1800
ENDCHAR
STARTCHAR 03B2
ENCODING 946
SWIDTH 624 0
DWIDTH 13 0
BBX 12 17 0 -2
BITMAP
7FF0
7FF0
0070
00E0
00C0
0180
0300
0700
0E00
1C00
1800
3000
6000
FFF0
FFF0
0000
1FC0
ENDCHAR
STARTCHAR 03B3
ENCODING 947
SWIDTH 480 0
DWIDTH 10 0
BBX 9 13 1 -2
BITMAP
FF00
FF00
0300
0600
0C00
1800
3000
6000
C000
FF80
FF80
0000
7F00
ENDCHAR
STARTCHAR 03B4
ENCODING 948
SWIDTH 576 0
DWIDTH 12 0
BBX 9 17 1 -2
BITMAP
C000
C000
C000
C000
CF00
DF80
E180
E180
C180
C180
C180
C180
C180
C180
C180
0000
3F00
ENDCHAR
STARTCHAR 03B5
ENCODING 949
SWIDTH 288 0
DWIDTH 6 0
BBX 5 18 0 0
BITMAP
C8
C8
00
00
30
30
30
F8
F8
30
30
30
30
30
30
30
38
38
ENDCHAR
STARTCHAR 03B6
ENCODING 950
SWIDTH 720 0
DWIDTH 15 0
BBX 15 17 0 0
BITMAP
0380
0280
0440
0280
0380
0000
C386
638C
638C
628C
66C8
36D8
34D8
3450
1C70
1C70
1870
ENDCHAR
STARTCHAR 03B7
ENCODING 951
SWIDTH 480 0
DWIDTH 10 0
BBX 10 20 0 -4
BITMAP
0E00
1200
1100
1200
0E00
C0C0
60C0
6180
6180
3180
3300
3300
1B00
1E00
1E00
0C00
0C00
0800
7800
7000
ENDCHAR
STARTCHAR 03B8
ENCODING 952
SWIDTH 288 0
DWIDTH 6 0
BBX 5 19 0 0
BITMAP
30
30
00
00
18
38
30
30
F0
30
30
30
30
30
30
30
30
30
30
ENDCHAR
STARTCHAR 03B9
ENCODING 953
SWIDTH 672 0
DWIDTH 14 0
BBX 13 18 0 -3
BITMAP
0300
0780
0780
0780
0CC0
0CC0
18E0
1860
1860
3FF0
3FF0
3030
6038
6018
E018
0000
0300
0300
ENDCHAR
STARTCHAR 03BA
ENCODING 954
SWIDTH 576 0
DWIDTH 12 0
BBX 10 14 1 -3
BITMAP
3E00
7F00
6180
C180
0180
3F80
FD80
C180
C380
FFC0
78C0
0000
0C00
0C00
ENDCHAR
STARTCHAR 03BB
ENCODING 955
SWIDTH 672 0
DWIDTH 14 0
BBX 13 19 0 0
BITMAP
0300
0080
0100
0000
0300
0780
0780
0780
0CC0
0CC0
18E0
1860
1860
3FF0
3FF0
3030
6038
6018
E018
ENDCHAR
STARTCHAR 03BC
ENCODING 956
SWIDTH 576 0
DWIDTH 12 0
BBX 10 15 1 0
BITMAP
0C00
0200
0C00
0000
3E00
7F00
6180
C180
0180
3F80
FD80
C180
C380
FFC0
78C0
ENDCHAR
STARTCHAR 03BD
ENCODING 957
SWIDTH 672 0
DWIDTH 14 0
BBX 13 20 0 0
BITMAP
0038
0030
0360
0780
0CC0
0300
0780
0780
0780
0CC0
0CC0
18E0
1860
1860
3FF0
3FF0
3030
6038
6018
E018
ENDCHAR
STARTCHAR 03BE
ENCODING 958
SWIDTH 576 0
DWIDTH 12 0
BBX 10 17 1 0
BITMAP
00C0
0180
1F00
1600
3200
0000
3E00
7F00
6180
C180
0180
3F80
FD80
C180
C380
FFC0
78C0
ENDCHAR
STARTCHAR 03BF
ENCODING 959
SWIDTH 672 0
DWIDTH 14 0
BBX 13 20 0 0
BITMAP
6000
3000
1700
0580
0CC0
0300
0780
0780
0780
0CC0
0CC0
18E0
1860
1860
3FF0
3FF0
3030
6038
6018
E018
ENDCHAR
STARTCHAR 03C0
ENCODING 960
SWIDTH 576 0
DWIDTH 12 0
BBX 11 17 0 0
BITMAP
C000
6000
2E00
0B00
1900
0000
1F00
3F80
30C0
60C0
00C0
1FC0
7EC0
60C0
61C0
7FE0
3C60
ENDCHAR
STARTCHAR 03C1
ENCODING 961
SWIDTH 672 0
DWIDTH 14 0
BBX 13 21 0 0
BITMAP
0060
0020
0060
0300
0780
0CC0
0300
0780
0780
0780
0CC0
0CC0
18E0
1860
1860
3FF0
3FF0
3030
6038
6018
E018
ENDCHAR
STARTCHAR 03C2
ENCODING 962
SWIDTH 576 0
DWIDTH 12 0
BBX 10 17 1 0
BITMAP
0300
0080
1D00
3600
2200
0000
3E00
7F00
6180
C180
0180
3F80
FD80
C180
C380
FFC0
78C0
ENDCHAR
STARTCHAR 03C3
ENCODING 963
SWIDTH 672 0
DWIDTH 14 0
BBX 13 21 0 0
BITMAP
0E20
09C0
0000
0300
0780
0CC0
0300
0780
0780
0780
0CC0
0CC0
18E0
1860
1860
3FF0
3FF0
3030
6038
6018
E018
ENDCHAR
STARTCHAR 03C4
ENCODING 964
SWIDTH 576 0
DWIDTH 12 0
BBX 10 18 1 0
BITMAP
3900
4E00
0000
1C00
1600
3200
0000
3E00
7F00
6180
C180
0180
3F80
FD80
C180
C380
FFC0
78C0
ENDCHAR
STARTCHAR 03C5
ENCODING 965
SWIDTH 672 0
DWIDTH 14 0
BBX 13 21 0 -3
BITMAP
0300
0780
0CC0
0300
0780
0780
0780
0CC0
0CC0
18E0
1860
1860
3FF0
3FF0
3030
6038
6018
E018
0000
0300
0300
ENDCHAR
STARTCHAR 03C6
ENCODING 966
SWIDTH 576 0
DWIDTH 12 0
BBX 10 18 1 -3
BITMAP
0C00
1600
3300
0000
3E00
7F00
6180
C180
0180
3F80
FD80
C180
C380
FFC0
78C0
0000
0C00
0C00
ENDCHAR
STARTCHAR 03C7
ENCODING 967
SWIDTH 672 0
DWIDTH 14 0
BBX 13 21 0 0
BITMAP
00C0
0180
0300
0840
0C40
0780
0300
0780
0780
0780
0CC0
0CC0
18E0
1860
1860
3FF0
3FF0
3030
6038
6018
E018
ENDCHAR
STARTCHAR 03C8
ENCODING 968
SWIDTH 576 0
DWIDTH 12 0
BBX 10 18 1 0
BITMAP
0300
0600
0C00
2100
3100
1E00
0000
3E00
7F00
6180
C180
0180
3F80
FD80
C180
C380
FFC0
78C0
ENDCHAR
STARTCHAR 03C9
ENCODING 969
SWIDTH 672 0
DWIDTH 14 0
BBX 13 21 0 0
BITMAP
0E00
0600
0B40
0C40
0780
0000
0300
0780
0780
0780
0CC0
0CC0
18E0
1860
1860
3FF0
3FF0
3030
6038
6018
E018
ENDCHAR
STARTCHAR 03CA
ENCODING 970
SWIDTH 576 0
DWIDTH 12 0
BBX 10 18 1 0
BITMAP
3000
1800
0C00
2100
3100
1E00
0000
3E00
7F00
6180
C180
0180
3F80
FD80
C180
C380
FFC0
78C0
ENDCHAR
STARTCHAR 03CB
ENCODING 971
SWIDTH 672 0
DWIDTH 14 0
BBX 13 21 0 0
BITMAP
0300
0080
0100
0840
0C40
0780
0300
0780
0780
0780
0CC0
0CC0
18E0
1860
1860
3FF0
3FF0
3030
6038
6018
E018
ENDCHAR
STARTCHAR 03CC
ENCODING 972
SWIDTH 576 0
DWIDTH 12 0
BBX 10 19 1 0
BITMAP
0C00
0200
0C00
0000
2100
3100
1E00
0000
3E00
7F00
6180
C180
0180
3F80
FD80
C180
C380
FFC0
78C0
ENDCHAR
STARTCHAR 03CD
ENCODING 973
SWIDTH 672 0
DWIDTH 14 0
BBX 13 22 0 0
BITMAP
0720
09C0
0000
0840
0C40
0780
0000
0300
0780
0780
0780
0CC0
0CC0
18E0
1860
1860
3FF0
3FF0
3030
6038
6018
E018
ENDCHAR
STARTCHAR 03CE
ENCODING 974
SWIDTH 576 0
DWIDTH 12 0
BBX 10 18 1 0
BITMAP
3880
2700
0000
2100
3100
1E00
0000
3E00
7F00
6180
C180
0180
3F80
FD80
C180
C380
FFC0
78C0
ENDCHAR
STARTCHAR 03CF
ENCODING 975
SWIDTH 672 0
DWIDTH 14 0
BBX 13 22 0 -3
BITMAP
0840
0C40
0780
0000
0300
0780
0780
0780
0CC0
0CC0
18E0
1860
1860
3FF0
3FF0
3030
6038
6018
E018
0000
0300
0300
ENDCHAR
STARTCHAR 03D0
ENCODING 976
SWIDTH 576 0
DWIDTH 12 0
BBX 10 18 1 -3
BITMAP
2100
3100
1E00
0000
3E00
7F00
6180
C180
0180
3F80
FD80
C180
C380
FFC0
78C0
0000
0C00
0C00
ENDCHAR
STARTCHAR 03D1
ENCODING 977
SWIDTH 672 0
DWIDTH 14 0
BBX 11 18 2 -3
BITMAP
FFE0
FFE0
C000
C000
C000
C000
FFC0
FFC0
C000
C000
C000
C000
C000
FFE0
FFE0
0000
0600
0600
ENDCHAR
STARTCHAR 03D2
ENCODING 978
SWIDTH 576 0
DWIDTH 12 0
BBX 10 14 1 -3
BITMAP
1E00
7F80
E180
C0C0
FFC0
FFC0
C000
C080
E180
7F00
3E00
0000
0C00
0C00
ENDCHAR
STARTCHAR 03D3
ENCODING 979
SWIDTH 672 0
DWIDTH 14 0
BBX 11 19 2 0
BITMAP
0C00
0200
0400
0000
FFE0
FFE0
C000
C000
C000
C000
FFC0
FFC0
C000
C000
C000
C000
C000
FFE0
FFE0
ENDCHAR
STARTCHAR 03D4
ENCODING 980
SWIDTH 576 0
DWIDTH 12 0
BBX 10 15 1 0
BITMAP
1C00
0400
0800
0000
1E00
7F80
E180
C0C0
FFC0
FFC0
C000
C080
E180
7F00
3E00
ENDCHAR
STARTCHAR 03D5
ENCODING 981
SWIDTH 672 0
DWIDTH 14 0
BBX 11 19 2 0
BITMAP
1C80
2700
0000
0000
FFE0
FFE0
C000
C000
C000
C000
FFC0
FFC0
C000
C000
C000
C000
C000
FFE0
FFE0
ENDCHAR
STARTCHAR 03D6
ENCODING 982
SWIDTH 576 0
DWIDTH 12 0
BBX 10 15 1 0
BITMAP
3900
2700
0000
0000
1E00
7F80
E180
C0C0
FFC0
FFC0
C000
C080
E180
7F00
3E00
ENDCHAR
STARTCHAR 03D7
ENCODING 983
SWIDTH 672 0
DWIDTH 14 0
BBX 11 21 2 0
BITMAP
00C0
0080
0F80
1A00
1300
0000
FFE0
FFE0
C000
C000
C000
C000
FFC0
FFC0
C000
C000
C000
C000
C000
FFE0
FFE0
ENDCHAR
STARTCHAR 03D8
ENCODING 984
SWIDTH 576 0
DWIDTH 12 0
BBX 10 17 1 0
BITMAP
00C0
0180
1F00
3600
2200
0000
1E00
7F80
E180
C0C0
FFC0
FFC0
C000
C080
E180
7F00
3E00
ENDCHAR
STARTCHAR 03D9
ENCODING 985
SWIDTH 672 0
DWIDTH 14 0
BBX 11 20 2 0
BITMAP
C000
6600
2F00
1980
0000
FFE0
FFE0
C000
C000
C000
C000
FFC0
FFC0
C000
C000
C000
C000
C000
FFE0
FFE0
ENDCHAR
STARTCHAR 03DA
ENCODING 986
SWIDTH 576 0
DWIDTH 12 0
BBX 11 17 0 0
BITMAP
C000
6000
3600
0B00
1980
0000
0F00
3FC0
70C0
6060
7FE0
7FE0
6000
6040
70C0
3F80
1F00
ENDCHAR
STARTCHAR 03DB
ENCODING 987
SWIDTH 672 0
DWIDTH 14 0
BBX 11 21 2 0
BITMAP
0180
0040
0180
0E00
1A00
1300
FFE0
FFE0
C000
C000
C000
C000
FFC0
FFC0
C000
C000
C000
C000
C000
FFE0
FFE0
ENDCHAR
STARTCHAR 03DC
ENCODING 988
SWIDTH 576 0
DWIDTH 12 0
BBX 10 17 1 0
BITMAP
0380
0080
0D00
1E00
3300
0000
1E00
7F80
E180
C0C0
FFC0
FFC0
C000
C080
E180
7F00
3E00
ENDCHAR
STARTCHAR 03DD
ENCODING 989
SWIDTH 672 0
DWIDTH 14 0
BBX 11 22 2 0
BITMAP
1C80
2700
0000
0000
0C00
1E00
3300
FFE0
FFE0
C000
C000
C000
C000
FFC0
FFC0
C000
C000
C000
C000
C000
FFE0
FFE0
ENDCHAR
STARTCHAR 03DE
ENCODING 990
SWIDTH 576 0
DWIDTH 12 0
BBX 10 17 1 0
BITMAP
3900
4700
0000
1C00
1600
3200
1E00
7F80
E180
C0C0
FFC0
FFC0
C000
C080
E180
7F00
3E00
ENDCHAR
STARTCHAR 03DF
ENCODING 991
SWIDTH 672 0
DWIDTH 14 0
BBX 11 21 2 -3
BITMAP
0C00
1E00
3300
FFE0
FFE0
C000
C000
C000
C000
FFC0
FFC0
C000
C000
C000
C000
C000
FFE0
FFE0
0000
0600
0600
ENDCHAR
STARTCHAR 03E0
ENCODING 992
SWIDTH 576 0
DWIDTH 12 0
BBX 10 18 1 -3
BITMAP
1C00
3400
2600
0000
1E00
7F80
E180
C0C0
FFC0
FFC0
C000
C080
E180
7F00
3E00
0000
0C00
0C00
ENDCHAR
STARTCHAR 03E1
ENCODING 993
SWIDTH 288 0
DWIDTH 6 0
BBX 3 19 2 0
BITMAP
C0
20
C0
00
C0
C0
C0
C0
C0
C0
C0
C0
C0
C0
C0
C0
C0
C0
C0
ENDCHAR
STARTCHAR 03E2
ENCODING 994
SWIDTH 288 0
DWIDTH 6 0
BBX 2 15 2 0
BITMAP
C0
40
80
00
C0
C0
C0
C0
C0
C0
C0
C0
C0
C0
C0
ENDCHAR
STARTCHAR 03E3
ENCODING 995
SWIDTH 288 0
DWIDTH 6 0
BBX 2 18 2 -3
BITMAP
C0
C0
C0
C0
C0
C0
C0
C0
C0
C0
C0
C0
C0
C0
C0
00
C0
C0
ENDCHAR
STARTCHAR 03E4
ENCODING 996
SWIDTH 240 0
DWIDTH 5 0
BBX 2 18 1 -3
BITMAP
C0
C0
00
00
C0
C0
C0
C0
C0
C0
C0
C0
C0
C0
C0
00
C0
C0
ENDCHAR
STARTCHAR 03E5
ENCODING 997
SWIDTH 768 0
DWIDTH 16 0
BBX 14 18 1 -3
BITMAP
0FC0
3FF0
7838
601C
E00C
C00C
C00C
C00C
C00C
C00C
E00C
6018
7838
3FF0
0FC0
0000
0300
0300
ENDCHAR
STARTCHAR 03E6
ENCODING 998
SWIDTH 576 0
DWIDTH 12 0
BBX 10 14 1 -3
BITMAP
3E00
7F00
E180
C1C0
C0C0
80C0
C0C0
C180
E180
7F00
3E00
0000
0C00
0C00
ENDCHAR
STARTCHAR 03E7
ENCODING 999
SWIDTH 768 0
DWIDTH 16 0
BBX 14 19 1 0
BITMAP
0300
0080
0300
0000
0FC0
3FF0
7838
601C
E00C
C00C
C00C
C00C
C00C
C00C
E00C
6018
7838
3FF0
0FC0
ENDCHAR
STARTCHAR 03E8
ENCODING 1000
SWIDTH 576 0
DWIDTH 12 0
BBX 10 15 1 0
BITMAP
1C00
0400
0800
0000
3E00
7F00
E180
C1C0
C0C0
80C0
C0C0
C180
E180
7F00
3E00
ENDCHAR
STARTCHAR 03E9
ENCODING 1001
SWIDTH 768 0
DWIDTH 16 0
BBX 14 21 1 0
BITMAP
0038
0030
0360
0780
0CC0
0000
0FC0
3FF0
7838
601C
E00C
C00C
C00C
C00C
C00C
C00C
E00C
6018
7838
3FF0
0FC0
ENDCHAR
STARTCHAR 03EA
ENCODING 1002
SWIDTH 576 0
DWIDTH 12 0
BBX 10 17 1 0
BITMAP
00C0
0180
0D00
1E00
3300
0000
3E00
7F00
E180
C1C0
C0C0
80C0
C0C0
C180
E180
7F00
3E00
ENDCHAR
STARTCHAR 03EB
ENCODING 1003
SWIDTH 768 0
DWIDTH 16 0
BBX 14 21 1 0
BITMAP
6000
3000
1B00
0780
0CC0
0000
0FC0
3FF0
7838
601C
E00C
C00C
C00C
C00C
C00C
C00C
E00C
6018
7838
3FF0
0FC0
ENDCHAR
STARTCHAR 03EC
ENCODING 1004
SWIDTH 576 0
DWIDTH 12 0
BBX 11 17 0 0
BITMAP
C000
6000
2E00
0B00
1900
0000
1F00
3F80
70C0
60E0
6060
4060
6060
60C0
70C0
3F80
1F00
ENDCHAR
STARTCHAR 03ED
ENCODING 1005
SWIDTH 768 0
DWIDTH 16 0
BBX 14 21 1 0
BITMAP
0060
0010
03A0
0680
04C0
0000
0FC0
3FF0
7838
601C
E00C
C00C
C00C
C00C
C00C
C00C
E00C
6018
7838
3FF0
0FC0
ENDCHAR
STARTCHAR 03EE
ENCODING 1006
SWIDTH 576 0
DWIDTH 12 0
BBX 10 17 1 0
BITMAP
0380
0080
0D00
1E00
3300
0000
3E00
7F00
E180
C1C0
C0C0
80C0
C0C0
C180
E180
7F00
3E00
ENDCHAR
STARTCHAR 03EF
ENCODING 1007
SWIDTH 768 0
DWIDTH 16 0
BBX 14 22 1 0
BITMAP
0720
08E0
0000
0000
0380
02C0
0640
0FC0
3FF0
7838
601C
E00C
C00C
C00C
C00C
C00C
C00C
E00C
6018
7838
3FF0
0FC0
ENDCHAR
STARTCHAR 03F0
ENCODING 1008
SWIDTH 576 0
DWIDTH 12 0
BBX 10 18 1 0
BITMAP
3900
4E00
0000
1C00
1600
3200
0000
3E00
7F00
E180
C1C0
C0C0
80C0
C0C0
C180
E180
7F00
3E00
ENDCHAR
STARTCHAR 03F1
ENCODING 1009
SWIDTH 768 0
DWIDTH 16 0
BBX 14 22 1 -3
BITMAP
0300
0780
0CC0
0000
0FC0
3FF0
7838
601C
E00C
C00C
C00C
C00C
C00C
C00C
E00C
6018
7838
3FF0
0FC0
0000
0300
0300
ENDCHAR
STARTCHAR 03F2
ENCODING 1010
SWIDTH 576 0
DWIDTH 12 0
BBX 10 18 1 -3
BITMAP
0C00
1E00
3300
0000
3E00
7F00
E180
C1C0
C0C0
80C0
C0C0
C180
E180
7F00
3E00
0000
0C00
0C00
ENDCHAR
STARTCHAR 03F3
ENCODING 1011
SWIDTH 912 0
DWIDTH 19 0
BBX 17 20 1 -1
BITMAP
01C000
018000
030000
000000
0FC100
3FF380
383F00
601800
E00C00
C00C00
C00C00
C00C00
C00C00
C00C00
C00C00
E01C00
601800
783800
3FF000
0FC000
ENDCHAR
STARTCHAR 03F4
ENCODING 1012
SWIDTH 672 0
DWIDTH 14 0
BBX 12 16 1 -1
BITMAP
0600
0C00
0800
0010
3E30
7F30
E1C0
C1C0
C0C0
C0C0
80C0
C0C0
C180
E380
7F00
3E00
ENDCHAR
STARTCHAR 03F5
ENCODING 1013
SWIDTH 912 0
DWIDTH 19 0
BBX 17 20 1 -1
BITMAP
060000
030000
010000
000000
0FC100
3FF380
383F00
601800
E00C00
C00C00
C00C00
C00C00
C00C00
C00C00
C00C00
E01C00
601800
783800
3FF000
0FC000
ENDCHAR
STARTCHAR 03F6
ENCODING 1014
SWIDTH 672 0
DWIDTH 14 0
BBX 12 16 1 -1
BITMAP
1800
0800
0400
0010
3E30
7F30
E1C0
C1C0
C0C0
C0C0
80C0
C0C0
C180
E380
7F00
3E00
ENDCHAR
STARTCHAR 03F7
ENCODING 1015
SWIDTH 912 0
DWIDTH 19 0
BBX 17 20 1 -1
BITMAP
030000
008000
030000
000000
0FC100
3FF380
383F00
601800
E00C00
C00C00
C00C00
C00C00
C00C00
C00C00
C00C00
E01C00
601800
783800
3FF000
0FC000
ENDCHAR
STARTCHAR 03F8
ENCODING 1016
SWIDTH 672 0
DWIDTH 14 0
BBX 12 16 1 -1
BITMAP
0C00
0400
0800
0010
3E30
7F30
E1C0
C1C0
C0C0
C0C0
80C0
C0C0
C180
E380
7F00
3E00
ENDCHAR
STARTCHAR 03F9
ENCODING 1017
SWIDTH 912 0
DWIDTH 19 0
BBX 17 20 1 -1
BITMAP
072000
09C000
000000
000000
0FC100
3FF380
383F00
601800
E00C00
C00C00
C00C00
C00C00
C00C00
C00C00
C00C00
E01C00
601800
783800
3FF000
0FC000
ENDCHAR
STARTCHAR 03FA
ENCODING 1018
SWIDTH 672 0
DWIDTH 14 0
BBX 12 16 1 -1
BITMAP
3900
2700
0000
0010
3E30
7F30
E1C0
C1C0
C0C0
C0C0
80C0
C0C0
C180
E380
7F00
3E00
ENDCHAR
STARTCHAR 03FB
ENCODING 1019
SWIDTH 912 0
DWIDTH 19 0
BBX 17 18 1 -3
BITMAP
0FC100
3FF380
383F00
601800
E00C00
C00C00
C00C00
C00C00
C00C00
C00C00
C00C00
E01C00
601800
783800
3FF000
0FC000
030000
030000
ENDCHAR
STARTCHAR 03FC
ENCODING 1020
SWIDTH 672 0
DWIDTH 14 0
BBX 12 15 1 -3
BITMAP
0010
3E30
7F30
E1C0
C1C0
C0C0
C0C0
80C0
C0C0
C180
E380
7F00
3E00
0C00
0C00
ENDCHAR
STARTCHAR 03FD
ENCODING 1021
SWIDTH 720 0
DWIDTH 15 0
BBX 12 18 2 -3
BITMAP
C070
C070
C070
C070
C070
C070
C070
C070
C060
C060
C060
C060
60E0
7FC0
1F00
0000
0600
0600
ENDCHAR
STARTCHAR 03FE
ENCODING 1022
SWIDTH 576 0
DWIDTH 12 0
BBX 9 14 1 -3
BITMAP
C180
C180
C180
C180
C180
C180
C180
C180
E380
7F80
3D80
0000
0800
0800
ENDCHAR
STARTCHAR 03FF
ENCODING 1023
SWIDTH 720 0
DWIDTH 15 0
BBX 12 19 2 0
BITMAP
0E00
0200
0400
0000
C070
C070
C070
C070
C070
C070
C070
C070
C060
C060
C060
C060
60E0
7FC0
1F00
ENDCHAR
STARTCHAR 0400
ENCODING 1024
SWIDTH 576 0
DWIDTH 12 0
BBX 9 15 1 0
BITMAP
1C00
0400
0800
0000
C180
C180
C180
C180
C180
C180
C180
C180
E380
7F80
3D80
ENDCHAR
STARTCHAR 0401
ENCODING 1025
SWIDTH 864 0
DWIDTH 18 0
BBX 15 19 2 -1
BITMAP
0300
0600
0C06
C076
C07E
C070
C070
C070
C070
C070
C070
C070
C060
C060
C060
C060
60E0
7FC0
1F00
ENDCHAR
STARTCHAR 0402
ENCODING 1026
SWIDTH 720 0
DWIDTH 15 0
BBX 13 15 1 0
BITMAP
0600
0C00
1800
C010
C1B8
C1F0
C180
C180
C180
C180
C180
C180
6380
7F80
3D80
ENDCHAR
STARTCHAR 0403
ENCODING 1027
SWIDTH 864 0
DWIDTH 18 0
BBX 15 20 2 -1
BITMAP
0C00
0400
0600
0006
C076
C07E
C070
C070
C070
C070
C070
C070
C070
C060
C060
C060
C060
60E0
7FC0
1F00
ENDCHAR
STARTCHAR 0404
ENCODING 1028
SWIDTH 720 0
DWIDTH 15 0
BBX 13 15 1 0
BITMAP
1800
0C00
0400
C010
C1B8
C1F0
C180
C180
C180
C180
C180
C180
6380
7F80
3D80
ENDCHAR
STARTCHAR 0405
ENCODING 1029
SWIDTH 864 0
DWIDTH 18 0
BBX 15 20 2 -1
BITMAP
0600
0100
0600
0006
C076
C07E
C070
C070
C070
C070
C070
C070
C070
C060
C060
C060
C060
60E0
7FC0
1F00
ENDCHAR
STARTCHAR 0406
ENCODING 1030
SWIDTH 720 0
DWIDTH 15 0
BBX 13 15 1 0
BITMAP
0C00
0400
0800
C010
C1B8
C1F0
C180
C180
C180
C180
C180
C180
6380
7F80
3D80
ENDCHAR
STARTCHAR 0407
ENCODING 1031
SWIDTH 864 0
DWIDTH 18 0
BBX 15 20 2 -1
BITMAP
1C80
1380
0000
0006
C076
C07E
C070
C070
C070
C070
C070
C070
C070
C060
C060
C060
C060
60E0
7FC0
1F00
ENDCHAR
STARTCHAR 0408
ENCODING 1032
SWIDTH 720 0
DWIDTH 15 0
BBX 13 15 1 0
BITMAP
3900
4E00
0000
C010
C1B8
C1F0
C180
C180
C180
C180
C180
C180
6380
7F80
3D80
ENDCHAR
STARTCHAR 0409
ENCODING 1033
SWIDTH 864 0
DWIDTH 18 0
BBX 15 19 2 -3
BITMAP
0006
C076
C07E
C070
C070
C070
C070
C070
C070
C070
C060
C060
C060
C060
60E0
7FC0
1F00
0600
0600
ENDCHAR
STARTCHAR 040A
ENCODING 1034
SWIDTH 720 0
DWIDTH 15 0
BBX 13 15 1 -3
BITMAP
C010
C1B8
C1F0
C180
C180
C180
C180
C180
C180
6380
7F80
3D80
0000
0C00
0C00
ENDCHAR
STARTCHAR 040B
ENCODING 1035
SWIDTH 672 0
DWIDTH 14 0
BBX 12 18 1 0
BITMAP
0C00
0600
0200
C030
E070
6060
30E0
30C0
1980
1F80
0F00
0F00
0600
0600
0600
0600
0600
0600
ENDCHAR
STARTCHAR 040C
ENCODING 1036
SWIDTH 480 0
DWIDTH 10 0
BBX 10 19 0 -4
BITMAP
1800
0C00
0400
0000
C0C0
60C0
6180
6180
3180
3300
3300
1B00
1E00
1E00
0C00
0C00
0800
7800
7000
ENDCHAR
STARTCHAR 040D
ENCODING 1037
SWIDTH 672 0
DWIDTH 14 0
BBX 12 18 1 -3
BITMAP
C030
E070
6060
30E0
30C0
1980
1F80
0F00
0F00
0600
0600
0600
0600
0600
0600
0000
0600
0600
ENDCHAR
STARTCHAR 040E
ENCODING 1038
SWIDTH 480 0
DWIDTH 10 0
BBX 10 18 0 -7
BITMAP
C0C0
60C0
6180
6180
3180
3300
3300
1B00
1E00
1E00
0C00
0C00
0800
7800
7000
0000
0C00
0C00
ENDCHAR
STARTCHAR 040F
ENCODING 1039
SWIDTH 672 0
DWIDTH 14 0
BBX 12 19 1 0
BITMAP
0600
0100
0600
0000
C030
E070
6060
30E0
30C0
1980
1F80
0F00
0F00
0600
0600
0600
0600
0600
0600
ENDCHAR
STARTCHAR 0410
ENCODING 1040
SWIDTH 480 0
DWIDTH 10 0
BBX 10 18 0 -4
BITMAP
0C00
0200
0C00
C0C0
60C0
6180
6180
3180
3300
3300
1B00
1E00
1E00
0C00
0C00
0800
7800
7000
ENDCHAR
STARTCHAR 0411
ENCODING 1041
SWIDTH 672 0
DWIDTH 14 0
BBX 12 18 1 0
BITMAP
0E40
1380
0000
C030
E070
6060
30E0
30C0
1980
1F80
0F00
0F00
0600
0600
0600
0600
0600
0600
ENDCHAR
STARTCHAR 0412
ENCODING 1042
SWIDTH 480 0
DWIDTH 10 0
BBX 10 19 0 -4
BITMAP
1C80
2700
0000
0000
C0C0
60C0
6180
6180
3180
3300
3300
1B00
1E00
1E00
0C00
0C00
0800
7800
7000
ENDCHAR
STARTCHAR 0413
ENCODING 1043
SWIDTH 672 0
DWIDTH 14 0
BBX 11 20 2 0
BITMAP
3F00
0C00
1E00
3300
0000
FFE0
FFE0
C000
C000
C000
C000
FFC0
FFC0
C000
C000
C000
C000
C000
FFE0
FFE0
ENDCHAR
STARTCHAR 0414
ENCODING 1044
SWIDTH 576 0
DWIDTH 12 0
BBX 10 17 1 0
BITMAP
3F00
0000
0000
0C00
1E00
3300
1E00
7F80
E180
C0C0
FFC0
FFC0
C000
C080
E180
7F00
3E00
ENDCHAR
STARTCHAR 0415
ENCODING 1045
SWIDTH 672 0
DWIDTH 14 0
BBX 11 22 2 0
BITMAP
3300
1E00
0C00
0C00
1E00
3300
0000
FFE0
FFE0
C000
C000
C000
C000
FFC0
FFC0
C000
C000
C000
C000
C000
FFE0
FFE0
ENDCHAR
STARTCHAR 0416
ENCODING 1046
SWIDTH 576 0
DWIDTH 12 0
BBX 10 18 1 0
BITMAP
3300
1E00
0C00
0C00
1E00
3300
0000
1E00
7F80
E180
C0C0
FFC0
FFC0
C000
C080
E180
7F00
3E00
ENDCHAR
STARTCHAR 0417
ENCODING 1047
SWIDTH 672 0
DWIDTH 14 0
BBX 11 19 1 0
BITMAP
0C00
0400
0200
0000
FFE0
FFE0
C000
C000
C000
C000
FFC0
FFC0
C000
C000
C000
C000
C000
FFE0
FFE0
ENDCHAR
STARTCHAR 0418
ENCODING 1048
SWIDTH 720 0
DWIDTH 15 0
BBX 11 19 2 0
BITMAP
1800
0C00
0600
0000
C060
C0E0
C0E0
C1E0
C360
C360
C660
CE60
CC60
D860
D860
F060
E060
E060
C060
ENDCHAR
STARTCHAR 0419
ENCODING 1049
SWIDTH 576 0
DWIDTH 12 0
BBX 10 16 1 -1
BITMAP
1800
0C00
0400
0000
1E00
7F80
6180
C0C0
C0C0
FFC0
C000
C000
C0C0
6180
7F00
1E00
ENDCHAR
STARTCHAR 041A
ENCODING 1050
SWIDTH 576 0
DWIDTH 12 0
BBX 10 15 1 0
BITMAP
1800
0C00
0400
0000
C1C0
C1C0
C3C0
C6C0
C6C0
CCC0
C8C0
D8C0
F0C0
E0C0
E0C0
ENDCHAR
STARTCHAR 041B
ENCODING 1051
SWIDTH 912 0
DWIDTH 19 0
BBX 19 19 1 0
BITMAP
020800
011000
00E000
000000
C0C0E0
E0C0C0
70C180
38C380
1CC700
0ECE00
07FC00
07FC00
0ECE00
1CC600
18C300
30C380
70C1C0
E0C0C0
C0C0E0
ENDCHAR
STARTCHAR 041C
ENCODING 1052
SWIDTH 672 0
DWIDTH 14 0
BBX 15 15 1 0
BITMAP
0840
0C40
0780
0000
C30C
630C
6318
3330
1B60
0FE0
1B70
3330
6318
E30C
C30E
ENDCHAR
STARTCHAR 041D
ENCODING 1053
SWIDTH 672 0
DWIDTH 14 0
BBX 13 19 1 0
BITMAP
1080
1880
0F00
0000
0700
0F00
0F00
0D80
1980
1980
18C0
30C0
30C0
7FE0
7FE0
6070
E030
C030
C038
ENDCHAR
STARTCHAR 041E
ENCODING 1054
SWIDTH 576 0
DWIDTH 12 0
BBX 10 16 1 -1
BITMAP
2100
2200
1E00
0000
3E00
7F00
E380
C180
0180
1F80
6180
C180
C180
C780
FDC0
78C0
ENDCHAR
STARTCHAR 041F
ENCODING 1055
SWIDTH 672 0
DWIDTH 14 0
BBX 13 19 1 0
BITMAP
1980
1980
0000
0000
0700
0F00
0F00
0D80
1980
1980
18C0
30C0
30C0
7FE0
7FE0
6070
E030
C030
C038
ENDCHAR
STARTCHAR 0420
ENCODING 1056
SWIDTH 576 0
DWIDTH 12 0
BBX 10 16 1 -1
BITMAP
3600
3600
0000
0000
3E00
7F00
E380
C180
0180
1F80
6180
C180
C180
C780
FDC0
78C0
ENDCHAR
STARTCHAR 0421
ENCODING 1057
SWIDTH 672 0
DWIDTH 14 0
BBX 11 19 1 0
BITMAP
1840
0880
0780
0000
FFE0
FFE0
C000
C000
C000
C000
FFC0
FFC0
C000
C000
C000
C000
C000
FFE0
FFE0
ENDCHAR
STARTCHAR 0422
ENCODING 1058
SWIDTH 576 0
DWIDTH 12 0
BBX 10 16 1 -1
BITMAP
2100
3100
1E00
0000
1E00
7F80
6180
C0C0
C0C0
FFC0
C000
C000
C0C0
6180
7F00
1E00
ENDCHAR
STARTCHAR 0423
ENCODING 1059
SWIDTH 1104 0
DWIDTH 23 0
BBX 19 19 1 0
BITMAP
01B000
01B000
000000
000000
C0C060
60C0C0
70C1C0
38C380
1CC700
0ECE00
07FC00
07FC00
0ECE00
0CC600
18C300
30C380
70C1C0
E0C0C0
C0C060
ENDCHAR
STARTCHAR 0424
ENCODING 1060
SWIDTH 864 0
DWIDTH 18 0
BBX 15 15 1 0
BITMAP
04C0
04C0
0000
0000
C30C
631C
6318
3330
1B60
1FE0
1B70
3330
6318
E30C
C30E
ENDCHAR
STARTCHAR 0425
ENCODING 1061
SWIDTH 672 0
DWIDTH 14 0
BBX 12 19 1 0
BITMAP
1980
1980
0000
0000
1F80
7FE0
7060
C060
C060
0060
0FC0
0FE0
0070
0030
C030
C030
E060
7FE0
1F80
ENDCHAR
STARTCHAR 0426
ENCODING 1062
SWIDTH 528 0
DWIDTH 11 0
BBX 9 16 1 -1
BITMAP
2600
2600
0000
0000
3E00
7F00
E300
C300
1E00
1F00
0300
0180
8180
C300
FF00
3C00
ENDCHAR
STARTCHAR 0427
ENCODING 1063
SWIDTH 720 0
DWIDTH 15 0
BBX 11 17 2 0
BITMAP
1F80
0000
C060
C0E0
C0E0
C1E0
C360
C360
C660
CE60
CC60
D860
D860
F060
E060
E060
C060
ENDCHAR
STARTCHAR 0428
ENCODING 1064
SWIDTH 576 0
DWIDTH 12 0
BBX 10 13 1 0
BITMAP
7F00
0000
C1C0
C1C0
C3C0
C6C0
C6C0
CCC0
C8C0
D8C0
F0C0
E0C0
E0C0
ENDCHAR
STARTCHAR 0429
ENCODING 1065
SWIDTH 720 0
DWIDTH 15 0
BBX 11 19 2 0
BITMAP
1B00
1B00
0000
0000
C060
C0E0
C0E0
C1E0
C360
C360
C660
CE60
CC60
D860
D860
F060
E060
E060
C060
ENDCHAR
STARTCHAR 042A
ENCODING 1066
SWIDTH 576 0
DWIDTH 12 0
BBX 10 15 1 0
BITMAP
3300
3300
0000
0000
C1C0
C1C0
C3C0
C6C0
C6C0
CCC0
C8C0
D8C0
F0C0
E0C0
E0C0
ENDCHAR
STARTCHAR 042B
ENCODING 1067
SWIDTH 768 0
DWIDTH 16 0
BBX 14 19 1 0
BITMAP
06C0
06C0
0000
0000
0FC0
3FF0
7838
6018
E00C
C00C
C00C
C00C
C00C
C00C
C00C
6018
7838
3FF0
0FC0
ENDCHAR
STARTCHAR 042C
ENCODING 1068
SWIDTH 576 0
DWIDTH 12 0
BBX 10 16 1 -1
BITMAP
3600
3600
0000
0000
1E00
7F80
6180
C0C0
C0C0
C0C0
C0C0
C0C0
C0C0
6180
7F80
1E00
ENDCHAR
STARTCHAR 042D
ENCODING 1069
SWIDTH 720 0
DWIDTH 15 0
BBX 13 19 1 0
BITMAP
0D80
0D80
0000
0000
0F80
3FE0
7070
E030
C018
0018
07F8
07F8
0018
C018
C018
6030
7070
3FE0
0F80
ENDCHAR
STARTCHAR 042E
ENCODING 1070
SWIDTH 528 0
DWIDTH 11 0
BBX 9 16 1 -1
BITMAP
3600
3600
0000
0000
3C00
7F00
C300
C180
0180
1F80
1F80
0180
C180
C300
7F00
3C00
ENDCHAR
STARTCHAR 042F
ENCODING 1071
SWIDTH 672 0
DWIDTH 14 0
BBX 13 17 0 0
BITMAP
0FC0
0000
E018
6018
7030
3030
1870
1860
0C60
0CC0
06C0
0680
0380
0300
0300
1E00
1C00
ENDCHAR
STARTCHAR 0430
ENCODING 1072
SWIDTH 528 0
DWIDTH 11 0
BBX 10 18 0 -5
BITMAP
3F00
0000
C0C0
60C0
6180
6180
3180
3300
1300
1B00
1E00
0E00
0E00
0C00
0C00
1800
7800
7000
ENDCHAR
STARTCHAR 0431
ENCODING 1073
SWIDTH 672 0
DWIDTH 14 0
BBX 13 19 0 0
BITMAP
04C0
04C0
0000
0000
E018
6018
7030
3030
1870
1860
0C60
0CC0
06C0
0680
0380
0300
0300
1E00
1C00
ENDCHAR
STARTCHAR 0432
ENCODING 1074
SWIDTH 528 0
DWIDTH 11 0
BBX 10 20 0 -5
BITMAP
1300
1300
0000
0000
C0C0
60C0
6180
6180
3180
3300
1300
1B00
1E00
0E00
0E00
0C00
0C00
1800
7800
7000
ENDCHAR
STARTCHAR 0433
ENCODING 1075
SWIDTH 672 0
DWIDTH 14 0
BBX 13 19 0 0
BITMAP
0360
06C0
0480
0000
E018
6018
7030
3030
1870
1860
0C60
0CC0
06C0
0680
0380
0300
0300
1E00
1C00
ENDCHAR
STARTCHAR 0434
ENCODING 1076
SWIDTH 528 0
DWIDTH 11 0
BBX 10 20 0 -5
BITMAP
0D80
1900
1300
0000
C0C0
60C0
6180
6180
3180
3300
1300
1B00
1E00
0E00
0E00
0C00
0C00
1800
7800
7000
ENDCHAR
STARTCHAR 0435
ENCODING 1077
SWIDTH 720 0
DWIDTH 15 0
BBX 11 19 1 0
BITMAP
1980
1980
0000
0000
C060
C060
C060
C060
C060
C060
C060
E0E0
7FE0
3F60
0060
0060
0060
0060
0060
ENDCHAR
STARTCHAR 0436
ENCODING 1078
SWIDTH 576 0
DWIDTH 12 0
BBX 9 15 1 0
BITMAP
3600
3600
0000
0000
C180
C180
C180
C180
E180
7F80
3F80
0180
0180
0180
0180
ENDCHAR
STARTCHAR 0437
ENCODING 1079
SWIDTH 912 0
DWIDTH 19 0
BBX 15 19 2 0
BITMAP
06C0
06C0
0000
0000
C006
C006
C006
C006
C006
C006
FF06
FFC6
C0C6
C0E6
C066
C0E6
C0C6
FFC6
FF06
ENDCHAR
STARTCHAR 0438
ENCODING 1080
SWIDTH 768 0
DWIDTH 16 0
BBX 13 15 1 0
BITMAP
0CC0
0CC0
0000
0000
C018
C018
C018
C018
FF18
FF98
C198
C198
C198
FF98
FF18
ENDCHAR
STARTCHAR 0439
ENCODING 1081
SWIDTH 1008 0
DWIDTH 21 0
BBX 20 15 0 0
BITMAP
03FFF0
03FFF0
063000
063000
0E3000
0C3000
0C3FE0
183FE0
183000
3FF000
3FF000
303000
603000
603FF0
E03FF0
ENDCHAR
STARTCHAR 043A
ENCODING 1082
SWIDTH 912 0
DWIDTH 19 0
BBX 17 11 1 0
BITMAP
3E3C00
7F7F00
E1C300
C18180
1FFF80
7DFF80
C18000
C18300
C3C300
FEFE00
783C00
ENDCHAR
STARTCHAR 043B
ENCODING 1083
SWIDTH 816 0
DWIDTH 17 0
BBX 14 18 2 0
BITMAP
0E00
0600
0300
E01C
E03C
E03C
B03C
B06C
906C
986C
98CC
88CC
8CCC
8D8C
858C
878C
870C
830C
ENDCHAR
STARTCHAR 043C
ENCODING 1084
SWIDTH 816 0
DWIDTH 17 0
BBX 15 15 1 0
BITMAP
0300
0100
0180
0000
CE3C
DF7E
E3C6
E186
C186
C186
C186
C186
C186
C186
C186
ENDCHAR
STARTCHAR 043D
ENCODING 1085
SWIDTH 720 0
DWIDTH 15 0
BBX 12 19 2 0
BITMAP
3080
1100
0F00
0000
FFC0
FFE0
C060
C070
C030
C070
C060
FFC0
FFE0
C060
C060
C060
C060
C070
C030
ENDCHAR
STARTCHAR 043E
ENCODING 1086
SWIDTH 336 0
DWIDTH 7 0
BBX 6 15 1 0
BITMAP
84
CC
78
00
CC
DC
E0
E0
C0
C0
C0
C0
C0
C0
C0
ENDCHAR
STARTCHAR 043F
ENCODING 1087
SWIDTH 288 0
DWIDTH 6 0
BBX 7 5 -1 12
BITMAP
3C
44
C2
2C
2C
ENDCHAR
STARTCHAR 0440
ENCODING 1088
SWIDTH 672 0
DWIDTH 14 0
BBX 13 15 0 0
BITMAP
0300
0780
0780
0580
0CC0
0CC0
18C0
1860
1860
3FF0
3FF0
3030
6038
6018
E018
ENDCHAR
STARTCHAR 0441
ENCODING 1089
SWIDTH 720 0
DWIDTH 15 0
BBX 12 15 2 0
BITMAP
FF80
FFC0
C0E0
C060
C060
C0C0
FF80
FFC0
C060
C070
C030
C070
C060
FFE0
FF80
ENDCHAR
STARTCHAR 0442
ENCODING 1090
SWIDTH 624 0
DWIDTH 13 0
BBX 10 15 2 0
BITMAP
FFC0
FFC0
C000
C000
C000
C000
C000
C000
C000
C000
C000
C000
C000
C000
C000
ENDCHAR
STARTCHAR 0443
ENCODING 1091
SWIDTH 720 0
DWIDTH 15 0
BBX 13 15 1 0
BITMAP
0700
0700
0D80
0D80
0880
18C0
18C0
3060
3060
2020
6030
6030
C018
FFF8
FFF8
ENDCHAR
STARTCHAR 0444
ENCODING 1092
SWIDTH 672 0
DWIDTH 14 0
BBX 11 15 2 0
BITMAP
FFC0
FFC0
C000
C000
C000
C000
FFC0
FFC0
C000
C000
C000
C000
C000
FFE0
FFE0
ENDCHAR
STARTCHAR 0445
ENCODING 1093
SWIDTH 624 0
DWIDTH 13 0
BBX 11 15 1 0
BITMAP
FFE0
FFE0
00C0
01C0
0380
0300
0600
0C00
1C00
1800
3000
6000
C000
FFE0
FFE0
ENDCHAR
STARTCHAR 0446
ENCODING 1094
SWIDTH 720 0
DWIDTH 15 0
BBX 11 15 2 0
BITMAP
C060
C060
C060
C060
C060
C060
FFE0
FFE0
C060
C060
C060
C060
C060
C060
C060
ENDCHAR
STARTCHAR 0447
ENCODING 1095
SWIDTH 768 0
DWIDTH 16 0
BBX 14 15 1 0
BITMAP
0FC0
1FF0
3838
6018
601C
C00C
CFCC
CFCC
C00C
C00C
601C
6018
3878
1FF0
0FC0
ENDCHAR
STARTCHAR 0448
ENCODING 1096
SWIDTH 288 0
DWIDTH 6 0
BBX 2 15 2 0
BITMAP
C0
C0
C0
C0
C0
C0
C0
C0
C0
C0
C0
C0
C0
C0
C0
ENDCHAR
STARTCHAR 0449
ENCODING 1097
SWIDTH 672 0
DWIDTH 14 0
BBX 11 15 2 0
BITMAP
C0E0
C1C0
C180
C300
C600
CC00
DC00
FE00
E600
C700
C380
C180
C1C0
C0E0
C060
ENDCHAR
STARTCHAR 044A
ENCODING 1098
SWIDTH 672 0
DWIDTH 14 0
BBX 12 15 1 0
BITMAP
0600
0F00
0F00
0B00
1980
1980
1180
30C0
30C0
60C0
6060
6060
C070
C030
C030
ENDCHAR
STARTCHAR 044B
ENCODING 1099
SWIDTH 912 0
DWIDTH 19 0
BBX 15 15 2 0
BITMAP
E00E
E01E
F01E
F016
D036
D836
D826
C866
CC46
CCC6
C4C6
C686
C786
C386
C306
ENDCHAR
STARTCHAR 044C
ENCODING 1100
SWIDTH 720 0
DWIDTH 15 0
BBX 11 15 2 0
BITMAP
C060
E060
F060
F060
D860
D860
CC60
C660
C660
C360
C360
C1E0
C0E0
C0E0
C060
ENDCHAR
STARTCHAR 044D
ENCODING 1101
SWIDTH 624 0
DWIDTH 13 0
BBX 11 15 1 0
BITMAP
FFE0
FFE0
0000
0000
0000
0000
7FC0
7FC0
0000
0000
0000
0000
0000
FFE0
FFE0
ENDCHAR
STARTCHAR 044E
ENCODING 1102
SWIDTH 768 0
DWIDTH 16 0
BBX 14 15 1 0
BITMAP
0FC0
1FF0
3838
6018
601C
C00C
C00C
C00C
C00C
C00C
601C
6018
3878
1FF0
0FC0
ENDCHAR
STARTCHAR 044F
ENCODING 1103
SWIDTH 720 0
DWIDTH 15 0
BBX 11 15 2 0
BITMAP
FFE0
FFE0
C060
C060
C060
C060
C060
C060
C060
C060
C060
C060
C060
C060
C060
ENDCHAR
STARTCHAR 0450
ENCODING 1104
SWIDTH 672 0
DWIDTH 14 0
BBX 11 15 2 0
BITMAP
FF80
FFC0
C0E0
C060
C060
C060
C0C0
FFC0
FF00
C000
C000
C000
C000
C000
C000
ENDCHAR
STARTCHAR 0451
ENCODING 1105
SWIDTH 624 0
DWIDTH 13 0
BBX 11 15 1 0
BITMAP
FFE0
FFE0
6000
3000
1800
0C00
0600
0300
0600
0C00
1800
3000
6000
FFE0
FFE0
ENDCHAR
STARTCHAR 0452
ENCODING 1106
SWIDTH 624 0
DWIDTH 13 0
BBX 12 15 0 0
BITMAP
FFF0
FFF0
0600
0600
0600
0600
0600
0600
0600
0600
0600
0600
0600
0600
0600
ENDCHAR
STARTCHAR 0453
ENCODING 1107
SWIDTH 672 0
DWIDTH 14 0
BBX 12 15 1 0
BITMAP
C030
E070
6060
30C0
38C0
1980
0F00
0F00
0600
0600
0600
0600
0600
0600
0600
ENDCHAR
STARTCHAR 0454
ENCODING 1108
SWIDTH 720 0
DWIDTH 15 0
BBX 13 15 1 0
BITMAP
0200
0200
1FC0
7FF0
7270
C218
C218
C218
C218
C218
6230
7FF0
1FC0
0200
0200
ENDCHAR
STARTCHAR 0455
ENCODING 1109
SWIDTH 672 0
DWIDTH 14 0
BBX 12 15 1 0
BITMAP
E070
6060
30C0
39C0
1980
0F00
0F00
0600
0F00
1F80
1980
30C0
70E0
6060
C030
ENDCHAR
STARTCHAR 0456
ENCODING 1110
SWIDTH 816 0
DWIDTH 17 0
BBX 15 15 1 0
BITMAP
C186
C186
C186
C186
C186
C186
C186
C186
618E
719C
3FF8
0FF0
0180
0180
0180
ENDCHAR
STARTCHAR 0457
ENCODING 1111
SWIDTH 768 0
DWIDTH 16 0
BBX 14 15 1 0
BITMAP
0FC0
3FF0
7838
6018
E01C
C00C
C00C
C00C
C00C
400C
6018
3010
1820
FCFC
FCFC
ENDCHAR
STARTCHAR 0458
ENCODING 1112
SWIDTH 288 0
DWIDTH 6 0
BBX 6 18 0 0
BITMAP
CC
CC
00
30
30
30
30
30
30
30
30
30
30
30
30
30
30
30
ENDCHAR
STARTCHAR 0459
ENCODING 1113
SWIDTH 672 0
DWIDTH 14 0
BBX 12 18 1 0
BITMAP
1980
1980
0000
C030
E070
6060
30C0
38C0
1980
0F80
0F00
0600
0600
0600
0600
0600
0600
0600
ENDCHAR
STARTCHAR 045A
ENCODING 1114
SWIDTH 624 0
DWIDTH 13 0
BBX 11 11 1 0
BITMAP
3EC0
61C0
41C0
C0C0
C0C0
C0C0
C0C0
C1C0
61C0
7FE0
3E60
ENDCHAR
STARTCHAR 045B
ENCODING 1115
SWIDTH 624 0
DWIDTH 13 0
BBX 10 19 2 -4
BITMAP
3E00
7F00
E380
C180
C180
C300
DE00
DF00
C180
C080
C0C0
C180
E180
FF80
DE00
C000
C000
C000
C000
ENDCHAR
STARTCHAR 045C
ENCODING 1116
SWIDTH 576 0
DWIDTH 12 0
BBX 11 15 0 -4
BITMAP
E060
E060
30C0
30C0
1180
1980
1980
0F00
0F00
0600
0600
0600
0600
0600
0600
ENDCHAR
STARTCHAR 045D
ENCODING 1117
SWIDTH 624 0
DWIDTH 13 0
BBX 11 15 1 0
BITMAP
7F80
7F80
3000
1C00
0600
1F80
71C0
60C0
C060
C060
C060
E0C0
71C0
7F80
1F00
ENDCHAR
STARTCHAR 045E
ENCODING 1118
SWIDTH 576 0
DWIDTH 12 0
BBX 9 11 1 0
BITMAP
3F00
6180
4180
6000
3C00
7C00
C000
C180
E180
7F00
3E00
ENDCHAR
STARTCHAR 045F
ENCODING 1119
SWIDTH 432 0
DWIDTH 9 0
BBX 8 19 1 -4
BITMAP
7F
7F
04
18
30
20
60
C0
C0
C0
C0
C0
C0
FF
3F
01
01
03
02
ENDCHAR
STARTCHAR 0460
ENCODING 1120
SWIDTH 624 0
DWIDTH 13 0
BBX 10 15 1 -4
BITMAP
CF00
FF80
71C0
60C0
60C0
60C0
60C0
60C0
60C0
60C0
60C0
00C0
00C0
00C0
00C0
ENDCHAR
STARTCHAR 0461
ENCODING 1121
SWIDTH 624 0
DWIDTH 13 0
BBX 10 15 1 0
BITMAP
1F00
3F80
7180
60C0
60C0
40C0
FFC0
FFC0
C0C0
60C0
60C0
60C0
71C0
3F80
1F00
ENDCHAR
STARTCHAR 0462
ENCODING 1122
SWIDTH 288 0
DWIDTH 6 0
BBX 3 11 2 0
BITMAP
C0
C0
C0
C0
C0
C0
C0
C0
C0
E0
E0
ENDCHAR
STARTCHAR 0463
ENCODING 1123
SWIDTH 576 0
DWIDTH 12 0
BBX 9 11 2 0
BITMAP
C300
C600
CC00
D800
F800
FC00
CC00
C600
C700
C300
C180
ENDCHAR
STARTCHAR 0464
ENCODING 1124
SWIDTH 576 0
DWIDTH 12 0
BBX 10 15 1 0
BITMAP
7000
7000
1800
1800
0800
1C00
1C00
3600
3600
3200
6300
6300
C180
C1C0
C0C0
ENDCHAR
STARTCHAR 0465
ENCODING 1125
SWIDTH 624 0
DWIDTH 13 0
BBX 10 15 2 -4
BITMAP
C180
C180
C180
C180
C180
C180
C180
C180
E380
FFC0
DCC0
C000
C000
C000
C000
ENDCHAR
STARTCHAR 0466
ENCODING 1126
SWIDTH 576 0
DWIDTH 12 0
BBX 10 11 1 0
BITMAP
C0C0
C180
6180
6180
6300
3300
3200
1600
1E00
1C00
0C00
ENDCHAR
STARTCHAR 0467
ENCODING 1127
SWIDTH 480 0
DWIDTH 10 0
BBX 9 19 1 -4
BITMAP
7F80
7F80
3000
6000
6000
7000
1F00
3F00
6000
C000
C000
C000
E000
7F80
3F80
0180
0080
0180
0180
ENDCHAR
STARTCHAR 0468
ENCODING 1128
SWIDTH 624 0
DWIDTH 13 0
BBX 11 11 1 0
BITMAP
1F00
3180
60C0
C0C0
C060
C060
C0E0
E0C0
71C0
3F80
1F00
ENDCHAR
STARTCHAR 0469
ENCODING 1129
SWIDTH 624 0
DWIDTH 13 0
BBX 10 15 2 -4
BITMAP
3E00
7F00
E380
C180
C0C0
C0C0
C0C0
C180
E380
FF00
DE00
C000
C000
C000
C000
ENDCHAR
STARTCHAR 046A
ENCODING 1130
SWIDTH 576 0
DWIDTH 12 0
BBX 10 15 1 -4
BITMAP
1E00
7F00
E180
C1C0
C0C0
C000
C000
C000
7000
3C00
0F80
0180
0180
0180
0300
ENDCHAR
STARTCHAR 046B
ENCODING 1131
SWIDTH 624 0
DWIDTH 13 0
BBX 12 11 1 0
BITMAP
1FF0
31F0
60C0
C0C0
C060
C060
C0E0
E0C0
71C0
3F80
1F00
ENDCHAR
STARTCHAR 046C
ENCODING 1132
SWIDTH 480 0
DWIDTH 10 0
BBX 9 11 1 0
BITMAP
FF80
FF80
1800
1800
1800
1800
1800
1800
1800
1E00
0E00
ENDCHAR
STARTCHAR 046D
ENCODING 1133
SWIDTH 624 0
DWIDTH 13 0
BBX 9 11 2 0
BITMAP
C180
C180
C180
C180
C180
C180
C180
C180
E380
7F00
3E00
ENDCHAR
STARTCHAR 046E
ENCODING 1134
SWIDTH 720 0
DWIDTH 15 0
BBX 13 18 1 -4
BITMAP
0200
0200
0200
1FC0
3260
6230
C218
C218
C218
C218
6238
7270
3FE0
1FC0
0200
0200
0200
0200
ENDCHAR
STARTCHAR 046F
ENCODING 1135
SWIDTH 576 0
DWIDTH 12 0
BBX 11 15 0 -4
BITMAP
E060
E0C0
31C0
3980
1B00
0F00
0E00
0600
0E00
1B00
1B00
3180
30C0
60E0
C060
ENDCHAR
STARTCHAR 0470
ENCODING 1136
SWIDTH 720 0
DWIDTH 15 0
BBX 13 18 1 -4
BITMAP
0200
0200
0200
C218
C218
C218
C218
C218
C218
C218
6230
6230
3FE0
0FC0
0200
0200
0200
0200
ENDCHAR
STARTCHAR 0471
ENCODING 1137
SWIDTH 768 0
DWIDTH 16 0
BBX 14 11 1 0
BITMAP
3030
6010
6318
C318
C30C
C30C
C30C
C31C
6718
7FF8
3CF0
ENDCHAR
STARTCHAR 0472
ENCODING 1138
SWIDTH 288 0
DWIDTH 6 0
BBX 6 14 0 0
BITMAP
CC
CC
00
30
30
30
30
30
30
30
30
30
38
38
ENDCHAR
STARTCHAR 0473
ENCODING 1139
SWIDTH 624 0
DWIDTH 13 0
BBX 9 14 2 0
BITMAP
2600
2600
C180
C180
C180
C180
C180
C180
C180
C180
C180
E300
7F00
3E00
ENDCHAR
STARTCHAR 0474
ENCODING 1140
SWIDTH 288 0
DWIDTH 6 0
BBX 2 3 2 5
BITMAP
C0
C0
C0
ENDCHAR
STARTCHAR 0475
ENCODING 1141
SWIDTH 288 0
DWIDTH 6 0
BBX 6 3 0 12
BITMAP
78
44
84
ENDCHAR
STARTCHAR 0476
ENCODING 1142
SWIDTH 0 0
DWIDTH 0 0
BBX 4 5 -8 -5
BITMAP
C0
C0
C0
C0
70
ENDCHAR
STARTCHAR 0477
ENCODING 1143
SWIDTH 288 0
DWIDTH 6 0
BBX 3 5 2 -5
BITMAP
C0
C0
C0
C0
E0
ENDCHAR
STARTCHAR 0478
ENCODING 1144
SWIDTH 192 0
DWIDTH 4 0
BBX 2 4 1 10
BITMAP
C0
C0
40
80
ENDCHAR
STARTCHAR 0479
ENCODING 1145
SWIDTH 192 0
DWIDTH 4 0
BBX 2 4 1 10
BITMAP
C0
C0
40
80
ENDCHAR
STARTCHAR 047A
ENCODING 1146
SWIDTH 0 0
DWIDTH 0 0
BBX 3 3 -7 12
BITMAP
C0
40
60
ENDCHAR
STARTCHAR 047B
ENCODING 1147
SWIDTH 0 0
DWIDTH 0 0
BBX 4 3 -8 12
BITMAP
30
60
C0
ENDCHAR
STARTCHAR 047C
ENCODING 1148
SWIDTH 192 0
DWIDTH 4 0
BBX 2 4 1 10
BITMAP
C0
C0
80
40
ENDCHAR
STARTCHAR 047D
ENCODING 1149
SWIDTH 336 0
DWIDTH 7 0
BBX 7 6 0 12
BITMAP
0C
08
18
10
C6
C6
ENDCHAR
STARTCHAR 047E
ENCODING 1150
SWIDTH 336 0
DWIDTH 7 0
BBX 7 6 0 12
BITMAP
60
20
20
10
C6
C6
ENDCHAR
STARTCHAR 047F
ENCODING 1151
SWIDTH 384 0
DWIDTH 8 0
BBX 6 4 1 10
BITMAP
CC
CC
48
90
ENDCHAR
STARTCHAR 0480
ENCODING 1152
SWIDTH 384 0
DWIDTH 8 0
BBX 6 4 1 10
BITMAP
CC
CC
88
50
ENDCHAR
STARTCHAR 0481
ENCODING 1153
SWIDTH 288 0
DWIDTH 6 0
BBX 3 4 1 10
BITMAP
80
C0
40
60
ENDCHAR
STARTCHAR 0482
ENCODING 1154
SWIDTH 288 0
DWIDTH 6 0
BBX 2 4 1 10
BITMAP
40
C0
80
80
ENDCHAR
STARTCHAR 0483
ENCODING 1155
SWIDTH 384 0
DWIDTH 8 0
BBX 6 4 1 10
BITMAP
D8
C8
4C
84
ENDCHAR
STARTCHAR 0484
ENCODING 1156
SWIDTH 432 0
DWIDTH 9 0
BBX 6 6 1 10
BITMAP
78
44
94
10
10
20
ENDCHAR
STARTCHAR 0485
ENCODING 1157
SWIDTH 384 0
DWIDTH 8 0
BBX 6 4 1 10
BITMAP
D8
CC
84
44
ENDCHAR
STARTCHAR 0486
ENCODING 1158
SWIDTH 432 0
DWIDTH 9 0
BBX 6 6 1 10
BITMAP
78
44
94
10
10
10
ENDCHAR
STARTCHAR 0487
ENCODING 1159
SWIDTH 912 0
DWIDTH 19 0
BBX 17 15 1 0
BITMAP
C0C000
E0C000
E0C000
F0C000
D0C000
D8CF00
C8C900
CCD980
C6D980
C6D980
C3C900
C3CF00
C1C000
C1C000
C0DF80
ENDCHAR
STARTCHAR 0488
ENCODING 1160
SWIDTH 768 0
DWIDTH 16 0
BBX 14 15 1 0
BITMAP
FCFC
FCFC
1820
3018
6018
E00C
C00C
C00C
C00C
C00C
E00C
6018
7838
3FF0
0FC0
ENDCHAR
STARTCHAR 0489
ENCODING 1161
SWIDTH 768 0
DWIDTH 16 0
BBX 16 14 0 0
BITMAP
0FE1
3FFB
781E
600E
C00E
C01A
C003
C003
C002
C006
600E
781C
1FF8
07E0
ENDCHAR
STARTCHAR 048A
ENCODING 1162
SWIDTH 240 0
DWIDTH 5 0
BBX 3 5 1 10
BITMAP
60
40
80
E0
E0
ENDCHAR
STARTCHAR 048B
ENCODING 1163
SWIDTH 240 0
DWIDTH 5 0
BBX 2 5 2 10
BITMAP
C0
C0
40
40
80
ENDCHAR
STARTCHAR 048C
ENCODING 1164
SWIDTH 576 0
DWIDTH 12 0
BBX 8 15 2 0
BITMAP
C3
C3
C3
C3
C3
C3
43
43
43
41
41
41
00
C3
C3
ENDCHAR
STARTCHAR 048D
ENCODING 1165
SWIDTH 816 0
DWIDTH 17 0
BBX 14 15 2 0
BITMAP
3E0C
7F0C
C30C
C18C
818C
030C
070C
0E0C
0C0C
180C
180C
000C
0000
180C
180C
ENDCHAR
STARTCHAR 048E
ENCODING 1166
SWIDTH 816 0
DWIDTH 17 0
BBX 14 15 2 0
BITMAP
C0F0
C1FC
C30C
C20C
C60C
C00C
4018
4030
4060
4060
4060
4000
0000
C060
C060
ENDCHAR
STARTCHAR 048F
ENCODING 1167
SWIDTH 576 0
DWIDTH 12 0
BBX 10 17 1 0
BITMAP
7F00
0000
1C00
1600
3200
0000
1E00
7F80
E180
C0C0
FFC0
FFC0
C000
C080
E180
7F00
3E00
ENDCHAR
STARTCHAR 0490
ENCODING 1168
SWIDTH 576 0
DWIDTH 12 0
BBX 10 18 1 0
BITMAP
3200
1600
1C00
1C00
1600
3200
0000
1E00
7F80
E180
C0C0
FFC0
FFC0
C000
C080
E180
7F00
3E00
ENDCHAR
STARTCHAR 0491
ENCODING 1169
SWIDTH 672 0
DWIDTH 14 0
BBX 13 20 0 0
BITMAP
0600
0600
0300
0FC0
0000
0300
0780
0780
0780
0CC0
0CC0
18E0
1860
1860
3FF0
3FF0
3030
6038
6018
E018
ENDCHAR
STARTCHAR 0492
ENCODING 1170
SWIDTH 576 0
DWIDTH 12 0
BBX 10 17 1 0
BITMAP
3000
1800
0C00
0000
3F00
0000
3E00
7F00
6180
C180
0180
3F80
FD80
C180
C380
FFC0
78C0
ENDCHAR
STARTCHAR 0493
ENCODING 1171
SWIDTH 576 0
DWIDTH 12 0
BBX 10 20 1 -5
BITMAP
0600
0C00
0800
0000
3E00
7F00
6180
C180
0180
3F80
FD80
C180
C380
FFC0
78C0
00C0
0180
0100
0100
01C0
ENDCHAR
STARTCHAR 0494
ENCODING 1172
SWIDTH 672 0
DWIDTH 14 0
BBX 11 20 2 -5
BITMAP
FFE0
FFE0
C000
C000
C000
C000
FFC0
FFC0
C000
C000
C000
C000
C000
FFE0
FFE0
0000
0400
0400
0400
0400
ENDCHAR
STARTCHAR 0495
ENCODING 1173
SWIDTH 576 0
DWIDTH 12 0
BBX 10 16 1 -5
BITMAP
1E00
7F80
E180
C0C0
FFC0
FFC0
C000
C080
E180
7F00
3E00
0000
0800
0800
0800
0800
ENDCHAR
STARTCHAR 0496
ENCODING 1174
SWIDTH 672 0
DWIDTH 14 0
BBX 11 22 2 -4
BITMAP
1800
0800
0400
FFE0
FFE0
C000
C000
C000
C000
FFC0
FFC0
C000
C000
C000
C000
C000
FFE0
FFE0
0400
0400
0400
0400
ENDCHAR
STARTCHAR 0497
ENCODING 1175
SWIDTH 576 0
DWIDTH 12 0
BBX 10 20 1 -5
BITMAP
3000
1800
0C00
0000
1E00
7F80
E180
C0C0
FFC0
FFC0
C000
C080
E180
7F00
3E00
0000
0800
0800
0800
0800
ENDCHAR
STARTCHAR 0498
ENCODING 1176
SWIDTH 672 0
DWIDTH 14 0
BBX 11 24 2 -5
BITMAP
0700
0600
0C00
0000
FFE0
FFE0
C000
C000
C000
C000
FFC0
FFC0
C000
C000
C000
C000
C000
FFE0
FFE0
0000
0400
0400
0400
0400
ENDCHAR
STARTCHAR 0499
ENCODING 1177
SWIDTH 576 0
DWIDTH 12 0
BBX 10 20 1 -5
BITMAP
0600
0C00
0800
0000
1E00
7F80
E180
C0C0
FFC0
FFC0
C000
C080
E180
7F00
3E00
0000
0800
0800
0800
0800
ENDCHAR
STARTCHAR 049A
ENCODING 1178
SWIDTH 288 0
DWIDTH 6 0
BBX 6 21 0 0
BITMAP
60
60
30
00
FC
00
30
30
30
30
30
30
30
30
30
30
30
30
30
30
30
ENDCHAR
STARTCHAR 049B
ENCODING 1179
SWIDTH 288 0
DWIDTH 6 0
BBX 6 17 0 0
BITMAP
C0
60
30
00
FC
00
30
30
30
30
30
30
30
30
30
30
30
ENDCHAR
STARTCHAR 049C
ENCODING 1180
SWIDTH 240 0
DWIDTH 5 0
BBX 4 19 1 0
BITMAP
30
60
40
00
C0
C0
00
00
C0
C0
C0
C0
C0
C0
C0
C0
C0
C0
C0
ENDCHAR
STARTCHAR 049D
ENCODING 1181
SWIDTH 768 0
DWIDTH 16 0
BBX 14 20 1 -5
BITMAP
0FC0
3FF0
7838
601C
E00C
C00C
C00C
C00C
C00C
C00C
E00C
6018
7838
3FF0
0FC0
0000
0300
0300
0300
0300
ENDCHAR
STARTCHAR 049E
ENCODING 1182
SWIDTH 576 0
DWIDTH 12 0
BBX 10 16 1 -5
BITMAP
3E00
7F00
E180
C1C0
C0C0
80C0
C0C0
C180
E180
7F00
3E00
0000
0800
0800
0800
0800
ENDCHAR
STARTCHAR 049F
ENCODING 1183
SWIDTH 768 0
DWIDTH 16 0
BBX 14 24 1 -5
BITMAP
0600
0600
0300
0000
0FC0
3FF0
7838
601C
E00C
C00C
C00C
C00C
C00C
C00C
E00C
6018
7838
3FF0
0FC0
0000
0300
0300
0300
0300
ENDCHAR
STARTCHAR 04A0
ENCODING 1184
SWIDTH 576 0
DWIDTH 12 0
BBX 10 20 1 -5
BITMAP
3000
1800
0800
0000
3E00
7F00
E180
C1C0
C0C0
80C0
C0C0
C180
E180
7F00
3E00
0000
0800
0800
0800
0800
ENDCHAR
STARTCHAR 04A1
ENCODING 1185
SWIDTH 768 0
DWIDTH 16 0
BBX 14 24 1 -5
BITMAP
0180
0180
0300
0000
0FC0
3FF0
7838
601C
E00C
C00C
C00C
C00C
C00C
C00C
E00C
6018
7838
3FF0
0FC0
0000
0300
0300
0300
0300
ENDCHAR
STARTCHAR 04A2
ENCODING 1186
SWIDTH 576 0
DWIDTH 12 0
BBX 10 20 1 -5
BITMAP
0600
0C00
0800
0000
3E00
7F00
E180
C1C0
C0C0
80C0
C0C0
C180
E180
7F00
3E00
0000
0800
0800
0800
0800
ENDCHAR
STARTCHAR 04A3
ENCODING 1187
SWIDTH 672 0
DWIDTH 14 0
BBX 12 20 1 -5
BITMAP
1F80
3FC0
60E0
6060
4060
6000
7E00
3FC0
03E0
0030
C030
C030
6070
7FE0
1F80
0000
0400
0400
0400
0400
ENDCHAR
STARTCHAR 04A4
ENCODING 1188
SWIDTH 480 0
DWIDTH 10 0
BBX 9 16 1 -5
BITMAP
3E00
7F00
C300
C000
F000
3F00
0700
C180
C380
FF00
3E00
0000
0800
0800
0800
0800
ENDCHAR
STARTCHAR 04A5
ENCODING 1189
SWIDTH 720 0
DWIDTH 15 0
BBX 12 21 2 0
BITMAP
1800
0C00
0600
0000
3F80
0000
C070
C070
C070
C070
C070
C070
C070
C070
C060
C060
C060
C060
60E0
7FC0
1F00
ENDCHAR
STARTCHAR 04A6
ENCODING 1190
SWIDTH 576 0
DWIDTH 12 0
BBX 9 17 1 0
BITMAP
3000
1800
0800
0000
7F00
0000
C180
C180
C180
C180
C180
C180
C180
C180
E380
7F80
3D80
ENDCHAR
STARTCHAR 04A7
ENCODING 1191
SWIDTH 480 0
DWIDTH 10 0
BBX 10 14 0 -3
BITMAP
61C0
7180
3300
1F00
1E00
0C00
1E00
3F00
3300
6180
E1C0
0000
0C00
0C00
ENDCHAR
STARTCHAR 04A8
ENCODING 1192
SWIDTH 864 0
DWIDTH 18 0
BBX 15 20 2 -1
BITMAP
3080
1100
0E00
0006
C076
C07E
C070
C070
C070
C070
C070
C070
C070
C060
C060
C060
C060
60E0
7FC0
1F00
ENDCHAR
STARTCHAR 04A9
ENCODING 1193
SWIDTH 720 0
DWIDTH 15 0
BBX 13 15 1 0
BITMAP
2100
2300
1E00
C010
C1B8
C1F0
C180
C180
C180
C180
C180
C180
6380
7F80
3D80
ENDCHAR
STARTCHAR 04AA
ENCODING 1194
SWIDTH 768 0
DWIDTH 16 0
BBX 13 16 1 -1
BITMAP
0F80
1FE0
3870
6038
4018
C018
0018
FFF8
C018
C018
C018
E038
6070
78F0
3FE0
0F80
ENDCHAR
STARTCHAR 04AB
ENCODING 1195
SWIDTH 576 0
DWIDTH 12 0
BBX 10 15 0 -4
BITMAP
6780
7FC0
70C0
70C0
60C0
60C0
60C0
60C0
60C0
60C0
60C0
6000
6000
E000
C000
ENDCHAR
STARTCHAR 04AC
ENCODING 1196
SWIDTH 720 0
DWIDTH 15 0
BBX 13 19 0 -4
BITMAP
3008
3808
3C08
3C08
3608
3608
3308
3388
3188
30C8
30E8
3068
3038
3038
3018
2000
2000
E000
E000
ENDCHAR
STARTCHAR 04AD
ENCODING 1197
SWIDTH 576 0
DWIDTH 12 0
BBX 9 15 1 -4
BITMAP
CF00
DF80
E180
E180
C180
C180
C180
C180
C180
C180
C180
0180
0180
0180
0180
ENDCHAR
STARTCHAR 04AE
ENCODING 1198
SWIDTH 816 0
DWIDTH 17 0
BBX 15 15 1 -4
BITMAP
CE3C
DFFE
E3C6
E186
C186
C186
C186
C186
C186
C186
C186
0006
0006
001E
001C
ENDCHAR
STARTCHAR 04AF
ENCODING 1199
SWIDTH 480 0
DWIDTH 10 0
BBX 7 11 2 0
BITMAP
C0
C0
C0
C0
C0
C0
C0
C0
C0
FE
FE
ENDCHAR
STARTCHAR 04B0
ENCODING 1200
SWIDTH 528 0
DWIDTH 11 0
BBX 9 15 2 0
BITMAP
0180
0180
0180
0180
0180
0180
7F80
FF80
C180
8180
8180
8180
C180
FF80
7F80
ENDCHAR
STARTCHAR 04B1
ENCODING 1201
SWIDTH 480 0
DWIDTH 10 0
BBX 8 16 1 0
BITMAP
03
03
03
03
3F
7F
67
C3
C3
C3
C3
C3
C3
43
67
3D
ENDCHAR
STARTCHAR 04B2
ENCODING 1202
SWIDTH 480 0
DWIDTH 10 0
BBX 10 15 0 0
BITMAP
3FC0
3FC0
2000
2000
2000
2000
2000
F800
2000
2000
2000
2000
2000
2000
2000
ENDCHAR
STARTCHAR 04B3
ENCODING 1203
SWIDTH 336 0
DWIDTH 7 0
BBX 7 11 0 0
BITMAP
7E
60
60
60
60
F8
60
60
60
60
60
ENDCHAR
STARTCHAR 04B4
ENCODING 1204
SWIDTH 528 0
DWIDTH 11 0
BBX 9 17 1 -1
BITMAP
3E00
7F00
6300
C180
C180
C000
4000
6000
3800
6000
C000
C000
C080
C180
E380
7F00
3E00
ENDCHAR
STARTCHAR 04B5
ENCODING 1205
SWIDTH 768 0
DWIDTH 16 0
BBX 13 16 1 -1
BITMAP
0F80
1FE0
3870
6038
4018
C018
0018
FFF8
C018
C018
C018
E038
6070
78F0
3FE0
0F80
ENDCHAR
STARTCHAR 04B6
ENCODING 1206
SWIDTH 576 0
DWIDTH 12 0
BBX 10 12 1 -1
BITMAP
1E00
7F00
E180
C180
00C0
FFC0
FFC0
C0C0
C180
6380
7F00
1E00
ENDCHAR
STARTCHAR 04B7
ENCODING 1207
SWIDTH 768 0
DWIDTH 16 0
BBX 15 17 1 -1
BITMAP
0FC0
1FF0
3838
7018
600C
C00C
C00E
C006
FFFE
C006
C00E
C00C
600C
7018
3838
1FF0
0FC0
ENDCHAR
STARTCHAR 04B8
ENCODING 1208
SWIDTH 576 0
DWIDTH 12 0
BBX 10 11 1 0
BITMAP
3E00
6380
C180
C0C0
C0C0
FFC0
FFC0
C0C0
C180
6180
3E00
ENDCHAR
STARTCHAR 04B9
ENCODING 1209
SWIDTH 768 0
DWIDTH 16 0
BBX 14 16 1 -1
BITMAP
0FC0
3FF0
3838
6018
E00C
C00C
C00C
FFFC
C00C
C00C
C00C
E01C
6018
7878
3FF0
0FC0
ENDCHAR
STARTCHAR 04BA
ENCODING 1210
SWIDTH 336 0
DWIDTH 7 0
BBX 5 3 1 -4
BITMAP
70
D0
98
ENDCHAR
STARTCHAR 04BB
ENCODING 1211
SWIDTH 960 0
DWIDTH 20 0
BBX 20 5 0 -3
BITMAP
800010
600060
3C03C0
0FFF00
03FC00
ENDCHAR
STARTCHAR 04BC
ENCODING 1212
SWIDTH 960 0
DWIDTH 20 0
BBX 20 5 0 11
BITMAP
03FC00
0FFF00
3C03C0
600070
800010
ENDCHAR
STARTCHAR 04BD
ENCODING 1213
SWIDTH 1104 0
DWIDTH 23 0
BBX 23 21 0 -4
BITMAP
1FC006
7FFC0E
E07FFC
C003F0
000000
000000
6781EC
7FC3FC
70C61C
70CE0C
60CC0C
60CC0C
60CC0C
60CC0C
60C41C
60C61C
60C1EC
00000C
000618
0007F8
0003E0
ENDCHAR
STARTCHAR 04BE
ENCODING 1214
SWIDTH 0 0
DWIDTH 0 0
BBX 24 4 -18 13
BITMAP
1FC003
3FFE0F
703FFE
E003F8
ENDCHAR
STARTCHAR 04BF
ENCODING 1215
SWIDTH 0 0
DWIDTH 0 0
BBX 20 5 -16 11
BITMAP
03FC00
0FFF00
3C03C0
600070
800010
ENDCHAR
STARTCHAR 04C0
ENCODING 1216
SWIDTH 0 0
DWIDTH 0 0
BBX 20 5 -16 11
BITMAP
800010
600070
3C03C0
0FFF00
03FC00
ENDCHAR
STARTCHAR 04C1
ENCODING 1217
SWIDTH 0 0
DWIDTH 0 0
BBX 20 1 -16 13
BITMAP
FFFFF0
ENDCHAR
STARTCHAR 04C2
ENCODING 1218
SWIDTH 0 0
DWIDTH 0 0
BBX 20 1 -16 -3
BITMAP
FFFFF0
ENDCHAR
STARTCHAR 04C3
ENCODING 1219
SWIDTH 768 0
DWIDTH 16 0
BBX 13 20 1 -1
BITMAP
0D80
0D80
0000
0000
0F80
1FE0
3870
6038
4018
C018
0018
FFF8
C018
C018
C018
E038
6070
78F0
3FE0
0F80
ENDCHAR
STARTCHAR 04C4
ENCODING 1220
SWIDTH 576 0
DWIDTH 12 0
BBX 10 16 1 -1
BITMAP
3600
3600
0000
0000
1E00
7F00
E180
C180
00C0
FFC0
FFC0
C0C0
C180
6380
7F00
1E00
ENDCHAR
STARTCHAR 04C5
ENCODING 1221
SWIDTH 768 0
DWIDTH 16 0
BBX 15 20 1 -1
BITMAP
06C0
06C0
0000
0FC0
1FF0
3838
7018
600C
C00C
C00E
C006
FFFE
C006
C00E
C00C
600C
7018
3838
1FF0
0FC0
ENDCHAR
STARTCHAR 04C6
ENCODING 1222
SWIDTH 576 0
DWIDTH 12 0
BBX 10 15 1 0
BITMAP
3200
3200
0000
0000
3E00
6380
C180
C0C0
C0C0
FFC0
FFC0
C0C0
C180
6180
3E00
ENDCHAR
STARTCHAR 04C7
ENCODING 1223
SWIDTH 288 0
DWIDTH 6 0
BBX 2 4 1 10
BITMAP
40
C0
80
80
ENDCHAR
STARTCHAR 04C8
ENCODING 1224
SWIDTH 336 0
DWIDTH 7 0
BBX 7 6 0 12
BITMAP
0C
08
18
10
C6
C6
ENDCHAR
STARTCHAR 04C9
ENCODING 1225
SWIDTH 576 0
DWIDTH 12 0
BBX 10 15 1 0
BITMAP
6000
7000
1E00
7800
D800
1C00
1C00
1600
3600
3200
6300
6300
C180
C180
C0C0
ENDCHAR
STARTCHAR 04CA
ENCODING 1226
SWIDTH 624 0
DWIDTH 13 0
BBX 12 15 0 0
BITMAP
7FF0
7FF0
0070
00E0
00C0
0180
1FE0
0600
0E00
1C00
1800
3000
6000
FFF0
FFF0
ENDCHAR
STARTCHAR 04CB
ENCODING 1227
SWIDTH 480 0
DWIDTH 10 0
BBX 9 11 1 0
BITMAP
FF00
FF00
0300
0600
0C00
7E00
3800
7000
6000
FF80
FF80
ENDCHAR
STARTCHAR 04CC
ENCODING 1228
SWIDTH 576 0
DWIDTH 12 0
BBX 10 12 1 -1
BITMAP
3E00
7F00
E180
C180
C0C0
FFC0
C0C0
C0C0
C180
E380
7F00
3E00
ENDCHAR
STARTCHAR 04CD
ENCODING 1229
SWIDTH 624 0
DWIDTH 13 0
BBX 11 15 1 -4
BITMAP
CF00
DF80
E180
E180
C180
C180
C180
C180
C180
C180
C180
0180
0180
01E0
00E0
ENDCHAR
STARTCHAR 04CE
ENCODING 1230
SWIDTH 624 0
DWIDTH 13 0
BBX 11 19 1 -4
BITMAP
0180
0180
0180
0180
3D80
7F80
E380
C180
C180
C080
C080
C180
C180
E380
7F80
3D80
0180
01E0
00E0
ENDCHAR
STARTCHAR 04CF
ENCODING 1231
SWIDTH 576 0
DWIDTH 12 0
BBX 10 16 1 -1
BITMAP
7000
F000
C000
C000
DE00
FF80
E180
C1C0
C0C0
C0C0
C0C0
C0C0
C180
E180
FF00
DE00
ENDCHAR
STARTCHAR 04D0
ENCODING 1232
SWIDTH 576 0
DWIDTH 12 0
BBX 11 16 1 -1
BITMAP
00E0
00E0
0180
0180
3D80
7F80
E380
C180
C180
C080
C080
C180
C180
E380
7E80
3C80
ENDCHAR
STARTCHAR 04D1
ENCODING 1233
SWIDTH 624 0
DWIDTH 13 0
BBX 11 18 1 -5
BITMAP
00E0
00E0
3D80
7F80
E380
C180
C180
C180
C180
C180
C180
6380
3D80
0180
0180
C380
FF00
3E00
ENDCHAR
STARTCHAR 04D2
ENCODING 1234
SWIDTH 576 0
DWIDTH 12 0
BBX 9 16 1 0
BITMAP
7000
F000
C000
C000
C000
DF00
FF80
E180
E180
C180
C180
C180
C180
C180
C180
C180
ENDCHAR
STARTCHAR 04D3
ENCODING 1235
SWIDTH 624 0
DWIDTH 13 0
BBX 11 20 1 -4
BITMAP
7000
7000
C000
C000
C000
DF00
FF80
E180
E180
C180
C180
C180
C180
C180
C180
C180
C180
0180
01E0
00E0
ENDCHAR
STARTCHAR 04D4
ENCODING 1236
SWIDTH 288 0
DWIDTH 6 0
BBX 4 19 1 -4
BITMAP
C0
C0
C0
C0
C0
C0
C0
C0
C0
C0
C0
C0
C0
C0
C0
C0
C0
70
70
ENDCHAR
STARTCHAR 04D5
ENCODING 1237
SWIDTH 960 0
DWIDTH 20 0
BBX 18 11 1 0
BITMAP
3E1E00
7FFF80
E1E180
C0C0C0
C0C0C0
C0FFC0
C0C000
C0C180
E1E180
7F7F00
3E1E00
ENDCHAR
STARTCHAR 04D6
ENCODING 1238
SWIDTH 432 0
DWIDTH 9 0
BBX 7 15 1 -4
BITMAP
0C
0C
0C
0C
0C
0C
0C
0C
1C
EC
CC
0C
0C
0E
06
ENDCHAR
STARTCHAR 04D7
ENCODING 1239
SWIDTH 336 0
DWIDTH 7 0
BBX 6 15 1 -4
BITMAP
CC
FC
E0
E0
C0
C0
C0
C0
C0
C0
C0
C0
C0
70
70
ENDCHAR
STARTCHAR 04D8
ENCODING 1240
SWIDTH 624 0
DWIDTH 13 0
BBX 11 18 1 -4
BITMAP
00E0
00E0
0180
3D80
7F80
E380
C180
C180
C180
C180
C180
C180
E380
7F80
3D80
0180
0180
0180
ENDCHAR
STARTCHAR 04D9
ENCODING 1241
SWIDTH 576 0
DWIDTH 12 0
BBX 10 18 1 -4
BITMAP
C000
E000
E000
60C0
60C0
60C0
60C0
60C0
60C0
60C0
60C0
60C0
71C0
3FC0
1EC0
00C0
00C0
00C0
ENDCHAR
STARTCHAR 04DA
ENCODING 1242
SWIDTH 624 0
DWIDTH 13 0
BBX 12 18 1 -4
BITMAP
C000
E000
E000
60C0
60C0
60C0
60C0
60C0
60C0
60C0
60C0
60C0
71C0
3FC0
1EC0
00C0
00E0
0070
ENDCHAR
STARTCHAR 04DB
ENCODING 1243
SWIDTH 912 0
DWIDTH 19 0
BBX 18 16 1 -1
BITMAP
018000
018000
018000
018000
3DFF80
7FFF80
E38180
C18300
C18600
C08C00
C09800
C1B000
C1B000
E2FFC0
7EFFC0
3C0000
ENDCHAR
STARTCHAR 04DC
ENCODING 1244
SWIDTH 672 0
DWIDTH 14 0
BBX 13 15 0 -1
BITMAP
3000
3000
3000
31E0
FBF0
3618
3400
3600
33C0
3078
3C18
3418
3E18
3FF8
03E0
ENDCHAR
STARTCHAR 04DD
ENCODING 1245
SWIDTH 528 0
DWIDTH 11 0
BBX 11 20 0 -4
BITMAP
01E0
01C0
3300
3300
3300
FF00
FF00
3200
3200
3600
3600
3600
3600
3600
3600
1E00
0600
0E00
3C00
3800
ENDCHAR
STARTCHAR 04DE
ENCODING 1246
SWIDTH 720 0
DWIDTH 15 0
BBX 14 19 0 -4
BITMAP
1800
3800
3000
3000
FEF8
FFFC
370C
360C
360C
360C
360C
360C
360C
360C
360C
000C
000C
001C
0018
ENDCHAR
STARTCHAR 04DF
ENCODING 1247
SWIDTH 576 0
DWIDTH 12 0
BBX 11 16 1 -1
BITMAP
C000
C000
C000
C000
CF80
FFC0
F0C0
F000
F000
DF00
C3C0
C060
F060
F0C0
FFC0
CF80
ENDCHAR
STARTCHAR 04E0
ENCODING 1248
SWIDTH 576 0
DWIDTH 12 0
BBX 11 15 1 0
BITMAP
C000
C000
C000
C000
FFC0
FFC0
C180
C180
C300
C600
CC00
D800
F000
FFE0
FFE0
ENDCHAR
STARTCHAR 04E1
ENCODING 1249
SWIDTH 192 0
DWIDTH 4 0
BBX 3 5 1 12
BITMAP
C0
40
20
40
C0
ENDCHAR
STARTCHAR 04E2
ENCODING 1250
SWIDTH 192 0
DWIDTH 4 0
BBX 3 5 1 12
BITMAP
60
40
80
40
60
ENDCHAR
STARTCHAR 04E3
ENCODING 1251
SWIDTH 240 0
DWIDTH 5 0
BBX 2 5 2 10
BITMAP
C0
C0
80
80
40
ENDCHAR
STARTCHAR 04E4
ENCODING 1252
SWIDTH 192 0
DWIDTH 4 0
BBX 1 3 1 12
BITMAP
80
80
80
ENDCHAR
STARTCHAR 04E5
ENCODING 1253
SWIDTH 336 0
DWIDTH 7 0
BBX 7 1 0 13
BITMAP
FE
ENDCHAR
STARTCHAR 04E6
ENCODING 1254
SWIDTH 336 0
DWIDTH 7 0
BBX 4 3 2 12
BITMAP
30
60
C0
ENDCHAR
STARTCHAR 04E7
ENCODING 1255
SWIDTH 336 0
DWIDTH 7 0
BBX 3 3 1 12
BITMAP
C0
60
20
ENDCHAR
STARTCHAR 04E8
ENCODING 1256
SWIDTH 192 0
DWIDTH 4 0
BBX 1 4 1 -5
BITMAP
80
80
80
80
ENDCHAR
STARTCHAR 04E9
ENCODING 1257
SWIDTH 336 0
DWIDTH 7 0
BBX 7 1 0 -3
BITMAP
FE
ENDCHAR
STARTCHAR 04EA
ENCODING 1258
SWIDTH 336 0
DWIDTH 7 0
BBX 4 3 2 -4
BITMAP
30
60
C0
ENDCHAR
STARTCHAR 04EB
ENCODING 1259
SWIDTH 336 0
DWIDTH 7 0
BBX 3 3 1 -4
BITMAP
C0
60
20
ENDCHAR
STARTCHAR 04EC
ENCODING 1260
SWIDTH 192 0
DWIDTH 4 0
BBX 2 4 1 4
BITMAP
C0
40
40
C0
ENDCHAR
STARTCHAR 04ED
ENCODING 1261
SWIDTH 192 0
DWIDTH 4 0
BBX 3 4 1 4
BITMAP
60
80
80
60
ENDCHAR
STARTCHAR 04EE
ENCODING 1262
SWIDTH 336 0
DWIDTH 7 0
BBX 5 3 1 -4
BITMAP
98
D0
70
ENDCHAR
STARTCHAR 04EF
ENCODING 1263
SWIDTH 336 0
DWIDTH 7 0
BBX 7 3 0 11
BITMAP
FE
00
FE
ENDCHAR
STARTCHAR 04F0
ENCODING 1264
SWIDTH 288 0
DWIDTH 6 0
BBX 4 8 1 7
BITMAP
80
80
F0
90
90
90
90
90
ENDCHAR
STARTCHAR 04F1
ENCODING 1265
SWIDTH 288 0
DWIDTH 6 0
BBX 4 8 1 7
BITMAP
80
80
F0
90
90
90
90
90
ENDCHAR
STARTCHAR 04F2
ENCODING 1266
SWIDTH 96 0
DWIDTH 2 0
BBX 2 10 0 5
BITMAP
40
00
40
40
40
40
40
40
40
80
ENDCHAR
STARTCHAR 04F3
ENCODING 1267
SWIDTH 144 0
DWIDTH 3 0
BBX 2 6 1 7
BITMAP
C0
80
80
80
80
80
ENDCHAR
STARTCHAR 04F4
ENCODING 1268
SWIDTH 144 0
DWIDTH 3 0
BBX 2 6 1 7
BITMAP
40
40
40
40
40
C0
ENDCHAR
STARTCHAR 04F5
ENCODING 1269
SWIDTH 240 0
DWIDTH 5 0
BBX 3 8 1 5
BITMAP
40
40
40
40
40
C0
40
20
ENDCHAR
STARTCHAR 04F6
ENCODING 1270
SWIDTH 384 0
DWIDTH 8 0
BBX 7 6 0 7
BITMAP
92
9A
6A
6C
6C
24
ENDCHAR
STARTCHAR 04F7
ENCODING 1271
SWIDTH 240 0
DWIDTH 5 0
BBX 5 8 0 5
BITMAP
88
48
50
50
30
20
20
40
ENDCHAR
STARTCHAR 04F8
ENCODING 1272
SWIDTH 288 0
DWIDTH 6 0
BBX 4 8 1 7
BITMAP
70
90
90
10
20
40
40
40
ENDCHAR
STARTCHAR 04F9
ENCODING 1273
SWIDTH 288 0
DWIDTH 6 0
BBX 4 8 1 7
BITMAP
60
90
90
80
40
20
20
20
ENDCHAR
STARTCHAR 04FA
ENCODING 1274
SWIDTH 288 0
DWIDTH 6 0
BBX 6 6 0 7
BITMAP
04
18
E0
C0
38
04
ENDCHAR
STARTCHAR 04FB
ENCODING 1275
SWIDTH 288 0
DWIDTH 6 0
BBX 6 6 0 7
BITMAP
80
70
0C
0C
70
80
ENDCHAR
STARTCHAR 04FC
ENCODING 1276
SWIDTH 288 0
DWIDTH 6 0
BBX 6 6 0 7
BITMAP
10
30
28
48
48
84
ENDCHAR
STARTCHAR 04FD
ENCODING 1277
SWIDTH 288 0
DWIDTH 6 0
BBX 6 6 0 7
BITMAP
84
48
48
28
30
30
ENDCHAR
STARTCHAR 04FE
ENCODING 1278
SWIDTH 336 0
DWIDTH 7 0
BBX 5 1 1 4
BITMAP
F8
ENDCHAR
STARTCHAR 04FF
ENCODING 1279
SWIDTH 288 0
DWIDTH 6 0
BBX 6 5 0 0
BITMAP
10
10
FC
10
10
ENDCHAR
STARTCHAR 0500
ENCODING 1280
SWIDTH 288 0
DWIDTH 6 0
BBX 6 5 0 0
BITMAP
10
10
10
10
FC
ENDCHAR
STARTCHAR 0501
ENCODING 1281
SWIDTH 288 0
DWIDTH 6 0
BBX 6 5 0 0
BITMAP
FC
10
10
10
10
ENDCHAR
STARTCHAR 0502
ENCODING 1282
SWIDTH 240 0
DWIDTH 5 0
BBX 5 6 0 7
BITMAP
70
88
40
38
88
70
ENDCHAR
STARTCHAR 0503
ENCODING 1283
SWIDTH 240 0
DWIDTH 5 0
BBX 5 6 0 7
BITMAP
C8
50
20
20
50
C8
ENDCHAR
STARTCHAR 0504
ENCODING 1284
SWIDTH 96 0
DWIDTH 2 0
BBX 1 8 1 7
BITMAP
80
80
80
80
80
80
80
80
ENDCHAR
STARTCHAR 0505
ENCODING 1285
SWIDTH 288 0
DWIDTH 6 0
BBX 5 5 1 8
BITMAP
88
50
20
50
88
ENDCHAR
STARTCHAR 0506
ENCODING 1286
SWIDTH 288 0
DWIDTH 6 0
BBX 5 8 0 5
BITMAP
88
48
48
30
30
20
20
20
ENDCHAR
STARTCHAR 0507
ENCODING 1287
SWIDTH 288 0
DWIDTH 6 0
BBX 6 6 0 -5
BITMAP
84
48
48
28
30
30
ENDCHAR
STARTCHAR 0508
ENCODING 1288
SWIDTH 288 0
DWIDTH 6 0
BBX 6 6 0 -5
BITMAP
10
30
28
48
48
84
ENDCHAR
STARTCHAR 0509
ENCODING 1289
SWIDTH 288 0
DWIDTH 6 0
BBX 6 6 0 -5
BITMAP
04
18
E0
C0
38
04
ENDCHAR
STARTCHAR 050A
ENCODING 1290
SWIDTH 288 0
DWIDTH 6 0
BBX 6 6 0 -5
BITMAP
80
70
0C
0C
70
80
ENDCHAR
STARTCHAR 050B
ENCODING 1291
SWIDTH 336 0
DWIDTH 7 0
BBX 4 4 1 -4
BITMAP
70
90
90
70
ENDCHAR
STARTCHAR 050C
ENCODING 1292
SWIDTH 288 0
DWIDTH 6 0
BBX 4 8 1 7
BITMAP
60
90
90
80
40
20
20
20
ENDCHAR
STARTCHAR 050D
ENCODING 1293
SWIDTH 0 0
DWIDTH 0 0
BBX 5 5 -8 -5
BITMAP
88
50
20
50
88
ENDCHAR
STARTCHAR 050E
ENCODING 1294
SWIDTH 0 0
DWIDTH 0 0
BBX 6 6 -9 -5
BITMAP
04
18
E0
E0
18
04
ENDCHAR
STARTCHAR 050F
ENCODING 1295
SWIDTH 0 0
DWIDTH 0 0
BBX 6 6 -9 -5
BITMAP
80
70
0C
0C
70
80
ENDCHAR
STARTCHAR 0510
ENCODING 1296
SWIDTH 0 0
DWIDTH 0 0
BBX 2 5 -7 -5
BITMAP
40
40
40
40
C0
ENDCHAR
STARTCHAR 0511
ENCODING 1297
SWIDTH 0 0
DWIDTH 0 0
BBX 2 5 -7 -5
BITMAP
80
80
80
80
C0
ENDCHAR
STARTCHAR 0512
ENCODING 1298
SWIDTH 0 0
DWIDTH 0 0
BBX 8 3 -10 -3
BITMAP
FF
81
81
ENDCHAR
STARTCHAR 0513
ENCODING 1299
SWIDTH 0 0
DWIDTH 0 0
BBX 8 3 -10 13
BITMAP
FF
81
81
ENDCHAR
STARTCHAR 0514
ENCODING 1300
SWIDTH 0 0
DWIDTH 0 0
BBX 11 6 -11 -5
BITMAP
0180
E180
1980
1A40
E240
0420
ENDCHAR
STARTCHAR 0515
ENCODING 1301
SWIDTH 0 0
DWIDTH 0 0
BBX 6 6 -9 7
BITMAP
80
70
0C
0C
70
80
ENDCHAR
STARTCHAR 0516
ENCODING 1302
SWIDTH 0 0
DWIDTH 0 0
BBX 8 3 -10 -3
BITMAP
81
81
FF
ENDCHAR
STARTCHAR 0517
ENCODING 1303
SWIDTH 0 0
DWIDTH 0 0
BBX 5 5 -8 12
BITMAP
88
50
20
50
88
ENDCHAR
STARTCHAR 0518
ENCODING 1304
SWIDTH 0 0
DWIDTH 0 0
BBX 5 4 -8 12
BITMAP
E8
10
C0
38
ENDCHAR
STARTCHAR 0519
ENCODING 1305
SWIDTH 0 0
DWIDTH 0 0
BBX 5 3 -8 11
BITMAP
F8
08
08
ENDCHAR
STARTCHAR 051A
ENCODING 1306
SWIDTH 0 0
DWIDTH 0 0
BBX 0 0 0 0
BITMAP
ENDCHAR
STARTCHAR 051B
ENCODING 1307
SWIDTH 288 0
DWIDTH 6 0
BBX 0 0 0 0
BITMAP
ENDCHAR
STARTCHAR 051C
ENCODING 1308
SWIDTH 0 0
DWIDTH 0 0
BBX 0 0 0 0
BITMAP
ENDCHAR
STARTCHAR 051D
ENCODING 1309
SWIDTH 0 0
DWIDTH 0 0
BBX 0 0 0 0
BITMAP
ENDCHAR
STARTCHAR 051E
ENCODING 1310
SWIDTH 0 0
DWIDTH 0 0
BBX 0 0 0 0
BITMAP
ENDCHAR
STARTCHAR 051F
ENCODING 1311
SWIDTH 384 0
DWIDTH 8 0
BBX 6 6 1 0
BITMAP
30
30
FC
30
78
48
ENDCHAR
STARTCHAR 0520
ENCODING 1312
SWIDTH 384 0
DWIDTH 8 0
BBX 6 15 1 0
BITMAP
30
30
FC
30
78
48
00
00
00
30
30
FC
30
78
48
ENDCHAR
STARTCHAR 0521
ENCODING 1313
SWIDTH 864 0
DWIDTH 18 0
BBX 15 6 2 9
BITMAP
3666
66EC
66CC
4CCC
CC88
C998
ENDCHAR
STARTCHAR 0522
ENCODING 1314
SWIDTH 960 0
DWIDTH 20 0
BBX 20 5 0 -3
BITMAP
03FC00
0FFF00
3C03C0
600070
800010
ENDCHAR
STARTCHAR 0523
ENCODING 1315
SWIDTH 288 0
DWIDTH 6 0
BBX 2 14 2 -3
BITMAP
C0
C0
00
00
00
00
00
00
00
C0
C0
80
40
40
ENDCHAR
STARTCHAR 0524
ENCODING 1316
SWIDTH 1104 0
DWIDTH 23 0
BBX 20 15 2 0
BITMAP
3E03C0
7F0FE0
C30C30
C19830
819830
030030
070060
0E00C0
0C0180
180180
180100
000000
000000
180180
180180
ENDCHAR
STARTCHAR 0525
ENCODING 1317
SWIDTH 960 0
DWIDTH 20 0
BBX 20 19 0 -3
BITMAP
03FC00
0FFF00
3C03C0
600070
800010
000000
000000
000000
000000
000000
000000
000000
000000
000000
800010
E00070
3C03C0
0FFF00
03FC00
ENDCHAR
STARTCHAR 0526
ENCODING 1318
SWIDTH 912 0
DWIDTH 19 0
BBX 14 15 2 0
BITMAP
0030
0020
7040
F040
F080
7080
0100
0100
0200
021C
043C
0C3C
081C
1800
1000
ENDCHAR
STARTCHAR 0527
ENCODING 1319
SWIDTH 864 0
DWIDTH 18 0
BBX 18 4 0 3
BITMAP
1F00C0
3FE0C0
60FF80
C01F00
ENDCHAR
STARTCHAR 0528
ENCODING 1320
SWIDTH 288 0
DWIDTH 6 0
BBX 4 19 1 -4
BITMAP
F0
F0
C0
C0
C0
C0
C0
C0
F0
C0
C0
C0
C0
C0
C0
C0
C0
C0
F0
ENDCHAR
STARTCHAR 0529
ENCODING 1321
SWIDTH 288 0
DWIDTH 6 0
BBX 4 19 1 -4
BITMAP
F0
F0
10
10
10
10
10
10
F0
10
10
10
10
10
10
10
10
10
F0
ENDCHAR
STARTCHAR 052A
ENCODING 1322
SWIDTH 0 0
DWIDTH 0 0
BBX 0 0 0 0
BITMAP
ENDCHAR
STARTCHAR 052B
ENCODING 1323
SWIDTH 0 0
DWIDTH 0 0
BBX 0 0 0 0
BITMAP
ENDCHAR
STARTCHAR 052C
ENCODING 1324
SWIDTH 0 0
DWIDTH 0 0
BBX 0 0 0 0
BITMAP
ENDCHAR
STARTCHAR 052D
ENCODING 1325
SWIDTH 0 0
DWIDTH 0 0
BBX 0 0 0 0
BITMAP
ENDCHAR
STARTCHAR 052E
ENCODING 1326
SWIDTH 0 0
DWIDTH 0 0
BBX 0 0 0 0
BITMAP
ENDCHAR
STARTCHAR 052F
ENCODING 1327
SWIDTH 0 0
DWIDTH 0 0
BBX 0 0 0 0
BITMAP
ENDCHAR
STARTCHAR 0530
ENCODING 1328
SWIDTH 816 0
DWIDTH 17 0
BBX 15 15 1 0
BITMAP
0100
0100
0FE0
0300
0280
0480
0000
0000
0000
2018
2018
FC7E
3018
583C
4824
ENDCHAR
STARTCHAR 0531
ENCODING 1329
SWIDTH 288 0
DWIDTH 6 0
BBX 5 8 0 8
BITMAP
70
48
88
88
88
88
48
70
ENDCHAR
STARTCHAR 0532
ENCODING 1330
SWIDTH 288 0
DWIDTH 6 0
BBX 5 7 0 8
BITMAP
10
30
50
90
F8
10
10
ENDCHAR
STARTCHAR 0533
ENCODING 1331
SWIDTH 288 0
DWIDTH 6 0
BBX 5 7 0 8
BITMAP
78
40
70
48
08
C8
70
ENDCHAR
STARTCHAR 0534
ENCODING 1332
SWIDTH 288 0
DWIDTH 6 0
BBX 5 8 0 8
BITMAP
38
48
40
B8
C8
88
48
70
ENDCHAR
STARTCHAR 0535
ENCODING 1333
SWIDTH 288 0
DWIDTH 6 0
BBX 5 7 0 8
BITMAP
F8
08
10
10
20
20
20
ENDCHAR
STARTCHAR 0536
ENCODING 1334
SWIDTH 288 0
DWIDTH 6 0
BBX 5 8 0 8
BITMAP
70
48
48
48
70
C8
C8
78
ENDCHAR
STARTCHAR 0537
ENCODING 1335
SWIDTH 288 0
DWIDTH 6 0
BBX 5 8 0 8
BITMAP
70
48
88
88
48
78
48
70
ENDCHAR
STARTCHAR 0538
ENCODING 1336
SWIDTH 288 0
DWIDTH 6 0
BBX 6 5 0 8
BITMAP
10
10
FC
10
10
ENDCHAR
STARTCHAR 0539
ENCODING 1337
SWIDTH 144 0
DWIDTH 3 0
BBX 3 1 0 11
BITMAP
E0
ENDCHAR
STARTCHAR 053A
ENCODING 1338
SWIDTH 288 0
DWIDTH 6 0
BBX 6 3 0 9
BITMAP
FC
00
FC
ENDCHAR
STARTCHAR 053B
ENCODING 1339
SWIDTH 144 0
DWIDTH 3 0
BBX 2 10 1 6
BITMAP
40
80
80
80
80
80
80
80
80
40
ENDCHAR
STARTCHAR 053C
ENCODING 1340
SWIDTH 144 0
DWIDTH 3 0
BBX 3 10 0 6
BITMAP
80
40
40
20
20
20
20
40
40
80
ENDCHAR
STARTCHAR 053D
ENCODING 1341
SWIDTH 288 0
DWIDTH 6 0
BBX 4 6 1 8
BITMAP
F0
90
90
90
90
90
ENDCHAR
STARTCHAR 053E
ENCODING 1342
SWIDTH 288 0
DWIDTH 6 0
BBX 5 7 0 -7
BITMAP
70
48
88
88
88
48
70
ENDCHAR
STARTCHAR 053F
ENCODING 1343
SWIDTH 288 0
DWIDTH 6 0
BBX 3 7 1 -7
BITMAP
20
E0
20
20
20
20
20
ENDCHAR
STARTCHAR 0540
ENCODING 1344
SWIDTH 288 0
DWIDTH 6 0
BBX 5 7 0 -7
BITMAP
78
48
08
18
20
40
F8
ENDCHAR
STARTCHAR 0541
ENCODING 1345
SWIDTH 288 0
DWIDTH 6 0
BBX 5 7 0 -7
BITMAP
70
48
88
30
88
C8
78
ENDCHAR
STARTCHAR 0542
ENCODING 1346
SWIDTH 288 0
DWIDTH 6 0
BBX 5 7 0 -7
BITMAP
10
30
50
90
F8
10
10
ENDCHAR
STARTCHAR 0543
ENCODING 1347
SWIDTH 288 0
DWIDTH 6 0
BBX 5 7 0 -7
BITMAP
78
40
70
48
08
C8
70
ENDCHAR
STARTCHAR 0544
ENCODING 1348
SWIDTH 288 0
DWIDTH 6 0
BBX 5 7 0 -7
BITMAP
38
48
B8
C8
88
48
70
ENDCHAR
STARTCHAR 0545
ENCODING 1349
SWIDTH 288 0
DWIDTH 6 0
BBX 5 7 0 -7
BITMAP
F8
08
10
10
20
20
20
ENDCHAR
STARTCHAR 0546
ENCODING 1350
SWIDTH 288 0
DWIDTH 6 0
BBX 5 7 0 -7
BITMAP
70
48
48
70
C8
C8
78
ENDCHAR
STARTCHAR 0547
ENCODING 1351
SWIDTH 288 0
DWIDTH 6 0
BBX 5 7 0 -7
BITMAP
70
48
88
C8
78
48
70
ENDCHAR
STARTCHAR 0548
ENCODING 1352
SWIDTH 288 0
DWIDTH 6 0
BBX 6 5 0 -7
BITMAP
10
10
FC
10
10
ENDCHAR
STARTCHAR 0549
ENCODING 1353
SWIDTH 144 0
DWIDTH 3 0
BBX 3 1 0 -5
BITMAP
E0
ENDCHAR
STARTCHAR 054A
ENCODING 1354
SWIDTH 288 0
DWIDTH 6 0
BBX 6 3 0 -6
BITMAP
FC
00
FC
ENDCHAR
STARTCHAR 054B
ENCODING 1355
SWIDTH 144 0
DWIDTH 3 0
BBX 2 9 1 -9
BITMAP
40
80
80
80
80
80
80
80
40
ENDCHAR
STARTCHAR 054C
ENCODING 1356
SWIDTH 144 0
DWIDTH 3 0
BBX 3 9 0 -9
BITMAP
80
40
40
20
20
20
40
40
80
ENDCHAR
STARTCHAR 054D
ENCODING 1357
SWIDTH 768 0
DWIDTH 16 0
BBX 16 15 0 0
BITMAP
7FFF
7FFF
0066
00CC
0198
0318
0230
0660
0CC0
1980
3300
2300
4600
FFFF
FFFF
ENDCHAR
STARTCHAR 054E
ENCODING 1358
SWIDTH 768 0
DWIDTH 16 0
BBX 14 15 1 0
BITMAP
8FC0
DFE0
F070
E038
C018
C01C
FE0C
FE0C
000C
0018
C018
6038
7070
3FE0
0F80
ENDCHAR
STARTCHAR 054F
ENCODING 1359
SWIDTH 576 0
DWIDTH 12 0
BBX 9 15 2 0
BITMAP
FF80
FF80
0180
0180
0180
0180
0180
0180
0180
0180
0180
0180
0180
0180
0180
ENDCHAR
STARTCHAR 0550
ENCODING 1360
SWIDTH 576 0
DWIDTH 12 0
BBX 9 15 2 0
BITMAP
0180
0180
0180
0180
0180
0180
0180
0180
0180
0180
0180
0180
0180
FF80
FF80
ENDCHAR
STARTCHAR 0551
ENCODING 1361
SWIDTH 672 0
DWIDTH 14 0
BBX 12 15 1 0
BITMAP
0600
0600
0600
0600
0600
0600
0600
0F00
0D80
1980
30C0
30E0
6060
E070
C030
ENDCHAR
STARTCHAR 0552
ENCODING 1362
SWIDTH 816 0
DWIDTH 17 0
BBX 17 18 0 -3
BITMAP
7FFF80
7FFF80
730000
318000
18C000
0C6000
063000
033800
039C00
039C00
033800
067000
0CE000
19C000
318000
630000
FFFF80
FFFF80
ENDCHAR
STARTCHAR 0553
ENCODING 1363
SWIDTH 768 0
DWIDTH 16 0
BBX 14 8 1 8
BITMAP
710C
898C
898C
E194
1954
0954
8964
7924
ENDCHAR
STARTCHAR 0554
ENCODING 1364
SWIDTH 912 0
DWIDTH 19 0
BBX 19 8 0 8
BITMAP
FDFA00
110200
110200
110200
11F200
110200
110200
11FBE0
ENDCHAR
ENDFONT
